<?xml version="1.0" standalone="no"?>
<svg version="1.0" xmlns="http://www.w3.org/2000/svg"
  width="1em"
  height="1em"
  fill="currentColor"
  viewBox="0 0 512.000000 512.000000"
 preserveAspectRatio="xMidYMid meet">

<g transform="translate(0.000000,512.000000) scale(0.100000,-0.100000)"
 stroke="none">
<path d="M1613 4945 c-85 -23 -153 -64 -220 -130 -63 -63 -116 -155 -129 -222
l-6 -33 -242 0 c-133 0 -269 -5 -302 -11 -186 -34 -350 -195 -384 -378 -6 -35
-10 -679 -10 -1820 0 -1926 -3 -1816 56 -1933 34 -67 135 -168 202 -202 115
-58 38 -56 1738 -56 1021 0 1580 4 1615 10 131 25 274 131 333 248 58 115 56
68 56 1277 l0 1111 208 270 c114 148 217 292 229 320 73 168 51 347 -58 491
-47 62 -279 244 -342 268 -40 15 -45 21 -61 70 -38 122 -160 253 -275 296 -91
34 -143 39 -396 39 l-242 0 -16 58 c-42 153 -181 285 -344 327 -82 22 -1331
21 -1410 0z m1383 -331 c64 -47 69 -63 69 -214 0 -151 -5 -167 -69 -214 -27
-21 -37 -21 -676 -21 -639 0 -649 0 -676 21 -60 44 -69 66 -72 186 -5 135 1
168 35 209 51 60 29 59 725 56 626 -2 637 -2 664 -23z m-1732 -406 c19 -103
118 -235 222 -298 114 -69 115 -69 829 -69 690 -1 710 1 813 53 107 54 208
176 239 289 l16 57 241 0 c212 0 246 -3 281 -19 22 -10 48 -27 58 -38 18 -20
17 -21 -37 -51 -30 -17 -72 -48 -93 -69 -68 -65 -1726 -2224 -1760 -2290 -52
-102 -67 -192 -60 -362 3 -80 9 -156 12 -168 l7 -22 -413 -3 c-407 -3 -415 -3
-449 -25 -43 -27 -80 -89 -80 -134 0 -51 35 -112 78 -137 38 -21 44 -21 668
-22 416 -1 656 2 709 10 184 26 336 86 427 169 29 27 271 332 538 678 l485
629 3 -876 c1 -481 0 -890 -3 -908 -8 -44 -59 -99 -103 -112 -26 -8 -521 -10
-1594 -8 -1554 3 -1557 3 -1584 24 -15 11 -37 33 -48 48 l-21 27 0 1779 0
1779 21 28 c11 15 40 38 64 51 42 21 55 22 286 22 l242 0 6 -32z m2952 -343
c59 -24 230 -162 248 -199 19 -41 21 -102 3 -137 -8 -14 -391 -515 -852 -1113
-691 -896 -846 -1092 -882 -1113 -67 -39 -186 -73 -282 -80 l-87 -6 -12 39
c-34 103 -24 319 17 389 22 38 1633 2128 1675 2174 54 58 108 73 172 46z"/>
<path d="M1425 3500 c-50 -21 -95 -90 -95 -147 0 -42 36 -106 77 -133 34 -24
44 -25 167 -25 120 0 134 2 169 24 43 27 77 85 77 134 0 49 -39 117 -80 138
-29 16 -56 19 -165 18 -71 0 -139 -4 -150 -9z"/>
<path d="M1425 2840 c-50 -21 -95 -90 -95 -147 0 -42 36 -106 77 -133 34 -24
44 -25 167 -25 120 0 134 2 169 24 43 27 77 85 77 134 0 49 -39 117 -80 138
-29 16 -56 19 -165 18 -71 0 -139 -4 -150 -9z"/>
<path d="M1425 2170 c-50 -21 -95 -90 -95 -147 0 -44 38 -110 78 -135 34 -21
49 -23 167 -23 119 0 133 2 168 24 43 26 77 85 77 132 0 47 -36 115 -74 139
-29 18 -49 20 -167 19 -74 0 -143 -4 -154 -9z"/>
</g>
</svg>
