<svg version="1.0" xmlns="http://www.w3.org/2000/svg"
 width="1em" height="1em" fill="currentColor" viewBox="0 0 512.000000 512.000000"
 preserveAspectRatio="xMidYMid meet">
<g transform="translate(0.000000,512.000000) scale(0.100000,-0.100000)"
 stroke="none">
<path d="M669 5067 c-100 -29 -173 -91 -217 -187 -15 -32 -17 -244 -25 -2282
-7 -1693 -6 -2260 3 -2302 22 -106 111 -202 213 -230 43 -12 306 -15 1597 -20
850 -3 1561 -2 1580 3 19 4 71 3 114 -2 318 -39 630 164 733 478 22 68 26 99
27 205 1 135 -17 217 -71 325 -88 173 -279 321 -463 359 l-65 13 -3 1284 -2
1284 -538 538 -537 537 -401 0 c-220 0 -738 2 -1150 5 -602 4 -758 3 -795 -8z
m2223 -554 c3 -391 3 -399 26 -448 29 -63 83 -119 147 -153 l50 -27 403 -3
402 -3 0 -1227 0 -1227 -67 -13 c-128 -24 -293 -123 -376 -224 -230 -281 -218
-669 28 -933 l44 -48 -1424 5 c-1373 5 -1424 6 -1456 24 -17 10 -41 32 -53 47
l-21 29 2 2238 c2 2515 -6 2285 77 2335 l41 25 1087 0 1087 0 3 -397z m841
-471 c-38 -2 -181 -2 -319 0 l-251 3 -36 28 c-67 51 -67 51 -67 399 l0 313
370 -370 370 -370 -67 -3z m408 -2798 c188 -56 326 -197 374 -384 22 -83 16
-211 -13 -293 -54 -150 -176 -273 -327 -328 -87 -32 -244 -33 -335 -1 -202 69
-343 253 -357 467 -19 299 218 554 518 555 50 0 108 -7 140 -16z"/>
<path d="M1505 4564 c-226 -48 -422 -219 -507 -444 -31 -82 -32 -91 -33 -235
0 -138 2 -156 27 -226 15 -42 43 -103 62 -136 138 -236 420 -372 691 -334 164
23 283 81 400 196 81 79 134 163 173 274 25 69 27 89 27 221 0 132 -2 152 -28
226 -114 334 -464 531 -812 458z m280 -169 c176 -46 324 -187 377 -360 25 -81
29 -212 9 -285 -66 -234 -280 -400 -516 -400 -199 0 -388 120 -475 301 -85
179 -73 360 34 522 69 104 187 189 307 221 72 19 191 20 264 1z"/>
<path d="M1603 4275 c-12 -9 -25 -31 -29 -50 -3 -19 -10 -35 -15 -35 -19 0
-83 -67 -100 -105 -44 -97 -5 -215 86 -263 17 -8 54 -18 84 -21 60 -7 84 -28
65 -59 -9 -14 -30 -18 -113 -22 -93 -5 -105 -7 -122 -29 -44 -54 -7 -128 69
-138 34 -5 43 -10 48 -30 13 -49 86 -70 131 -38 12 9 25 30 29 48 4 22 19 41
48 62 124 91 111 276 -26 346 -21 10 -53 19 -73 19 -45 0 -75 15 -75 38 0 34
21 42 117 42 86 0 96 2 118 25 58 57 13 145 -74 145 -21 0 -31 5 -31 15 0 9
-11 27 -25 40 -28 29 -79 33 -112 10z"/>
<path d="M1004 2806 c-51 -23 -62 -96 -21 -134 21 -20 34 -22 124 -22 119 0
129 3 149 42 18 35 11 78 -17 104 -27 24 -189 31 -235 10z"/>
<path d="M1633 2813 c-13 -2 -32 -16 -44 -31 -26 -33 -20 -88 12 -114 20 -17
81 -18 969 -18 943 0 947 0 974 21 19 15 26 30 26 55 0 48 -14 70 -51 83 -23
8 -302 11 -948 10 -504 -1 -926 -4 -938 -6z"/>
<path d="M1003 2290 c-50 -20 -60 -105 -17 -139 23 -18 41 -21 126 -21 98 0
100 1 130 30 25 26 29 36 24 63 -3 18 -17 42 -32 55 -22 19 -35 22 -117 21
-51 0 -102 -4 -114 -9z"/>
<path d="M1599 2271 c-42 -43 -34 -106 18 -130 17 -8 296 -11 964 -11 l940 0
24 25 c31 30 33 83 6 116 l-19 24 -952 3 -951 2 -30 -29z"/>
<path d="M986 1759 c-32 -26 -36 -84 -7 -120 18 -23 26 -24 129 -24 92 0 113
3 130 18 43 39 35 113 -14 136 -14 6 -67 11 -118 11 -79 0 -97 -3 -120 -21z"/>
<path d="M1601 1763 c-12 -10 -24 -34 -27 -54 -5 -29 -1 -41 19 -65 l25 -29
934 -3 c513 -1 943 0 956 3 62 15 84 94 37 140 l-24 25 -949 0 c-890 0 -951
-1 -971 -17z"/>
<path d="M986 1179 c-32 -26 -36 -84 -7 -120 l19 -24 734 -3 c403 -1 743 0
756 3 62 15 84 94 37 140 l-24 25 -744 0 c-738 0 -745 0 -771 -21z"/>
<path d="M1003 700 c-50 -20 -60 -105 -17 -139 26 -21 33 -21 771 -21 l744 0
24 25 c25 24 32 65 19 100 -18 45 -20 45 -791 44 -400 0 -738 -4 -750 -9z"/>
<path d="M4064 838 l-133 -132 -60 57 c-67 64 -99 72 -145 36 -20 -16 -26 -29
-26 -61 0 -38 6 -47 94 -137 89 -90 97 -96 136 -96 40 0 46 6 210 171 163 164
170 172 170 210 0 51 -31 84 -80 84 -29 0 -49 -15 -166 -132z"/>
</g>
</svg>
