<?xml version="1.0" encoding="utf-8"?>
<!-- Generator: Adobe Illustrator 25.3.0, SVG Export Plug-In . SVG Version: 6.00 Build 0)  -->
<svg version="1.1" id="icono_ordenes" xmlns="http://www.w3.org/2000/svg" xmlns:xlink="http://www.w3.org/1999/xlink" x="0px" y="0px" width="1em" height="1em" fill="currentColor" viewBox="0 0 1080 1080" style="enable-background:new 0 0 1080 1080;" xml:space="preserve">
	<g>
		<path class="st0" d="M104.81,513.5c0-84.97,0-153.02,0-221.06c0-56.99,0.02-113.98,0.01-170.97c0-11.77,2.02-22.93,9.81-32.28
		c8.76-10.51,20.01-16.1,33.72-16.24c15.72-0.16,31.44-0.2,47.16,0.02c4.89,0.07,7.43-1.31,9.23-6.28
		c9.07-25.04,31.03-40.13,57.88-40.14c123.42-0.04,246.84-0.04,370.26-0.01c26.22,0.01,48.23,15.06,57.47,39.78
		c1.92,5.15,4.5,6.77,9.71,6.66c13.6-0.28,27.22-0.08,40.82-0.09c31.89,0,49.34,17.05,49.52,48.95c0.2,34.72,0.05,69.45,0.05,104.18
		c0,60.54,0,121.07,0,181.61c0,75.78,0.07,151.56-0.18,227.34c-0.02,6.04,2.12,6.9,7.26,6.88c33.32-0.16,66.64-0.05,99.95-0.09
		c31.76-0.03,58.53,11.21,79.87,34.99c17.4,19.4,25.66,42.41,25.77,68.13c0.27,68.98,0.31,137.96,0.01,206.94
		c-0.22,51.72-40.96,95.78-92.01,100.63c-7.27,0.69-14.5,0.95-21.77,0.95c-64.76,0-129.52,0.21-194.28-0.07
		c-50.03-0.22-90.83-33.66-101.32-82.31c-2.95-13.67-2.08-27.54-2.16-41.36c-0.06-9.72-0.03-9.74-9.6-9.74
		c-143.13,0-286.26-0.37-429.38,0.33c-26.41,0.13-48.48-18.58-47.9-47.89c0.79-39.87,0.73-79.77,0.48-119.63
		C104.65,667.34,105.33,581.95,104.81,513.5z M144.23,496.48c0,20.18,0,40.35,0,60.53c0.01,104.4,0.01,208.8,0.06,313.2
		c0,10.72,0.24,10.86,11.2,10.86c23.46,0.01,46.92,0.01,70.38,0.01c118.71,0,237.42,0,356.13,0c9.57,0,9.59-0.03,9.6-9.76
		c0.01-18.53,0.01-37.07,0-55.6c0-9.8-0.02-9.82-9.48-9.82c-22.52-0.01-45.04,0.02-67.57,0c-8.56-0.01-15.02-3.62-18.36-11.66
		c-5.64-13.58,4.06-26.91,19.79-27.03c22.76-0.18,45.51-0.18,68.27,0.01c5.37,0.05,7.59-1.54,7.44-7.2
		c-0.32-12.18-0.65-24.4,2.18-36.41c0.91-3.87-1.05-5.1-4.55-5.05c-3.75,0.05-7.51-0.01-11.26-0.02
		c-21.11-0.02-42.23-0.03-63.34-0.07c-8.65-0.01-14.91-4.28-18.51-11.78c-3.32-6.91-2.14-13.83,2.76-19.79
		c4.29-5.22,10.02-7.28,16.79-7.26c30.73,0.1,61.46-0.04,92.2,0.09c4.58,0.02,7.77-1.37,10.96-4.8c16.72-17.95,37.17-29,61.69-32.03
		c19.87-2.45,39.83-0.64,59.74-1.1c10.5-0.24,10.52-0.06,10.52-10.37c0-121.76,0-243.52,0-365.28c0-48.33,0.02-96.66-0.01-144.99
		c-0.01-8.63-0.75-9.36-9.14-9.39c-15.72-0.05-31.44,0.05-47.16-0.07c-3.59-0.03-6.04,0.82-8.02,4.21
		c-12.63,21.66-31.76,31.16-56.69,31.12c-121.53-0.2-243.05-0.21-364.58,0.01c-24.64,0.04-43.52-9.35-56.33-30.53
		c-1.49-2.46-2.93-4.75-6.36-4.73c-17.36,0.06-34.72,0.03-52.08,0.03c-4.02,0-6.08,2.02-6.18,6.02c-0.06,2.34-0.1,4.69-0.1,7.04
		C144.22,248.74,144.22,372.61,144.23,496.48z M797.74,680.57c0-0.01,0-0.02,0-0.03c-16.89,0-33.78,0-50.67,0
		c-16.89,0-33.78-0.01-50.67,0.03c-37.87,0.08-65.94,27.97-65.97,65.72c-0.06,67.32-0.06,134.64,0,201.96
		c0.03,38.15,28.05,66.26,66.25,66.32c66.85,0.11,133.7,0.03,200.55,0.05c6.13,0,12.19-0.73,18.1-2.18
		c29.66-7.27,48.89-31.93,49.08-64.81c0.39-67.08,0.48-134.17-0.07-201.25c-0.32-39.17-28.27-65.79-67.38-65.81
		C863.89,680.55,830.82,680.57,797.74,680.57z M308.09,66.68c0,0.01,0,0.02,0,0.04c-6.33,0-12.67-0.24-18.98,0.05
		c-11.35,0.52-20.28,9.89-20.44,21.06c-0.16,11.27,9.14,21.26,20.7,21.55c12.41,0.32,24.84,0.28,37.26,0.02
		c11.57-0.24,21.07-9.93,21.22-21.11c0.16-11.5-9.48-21.27-21.48-21.59C320.28,66.54,314.18,66.68,308.09,66.68z M447.84,66.68
		c-6.09,0-12.19-0.14-18.28,0.03c-12.17,0.34-21.58,9.8-21.54,21.45c0.04,11.57,9.57,21.05,21.79,21.26
		c11.95,0.21,23.91,0.22,35.86,0c11.98-0.21,21.65-10.04,21.57-21.49c-0.08-11.46-9.82-21-21.82-21.24
		C459.57,66.58,453.7,66.68,447.84,66.68z M586.83,66.68c-6.09,0-12.19-0.15-18.27,0.03c-11.61,0.34-21.21,10.04-21.13,21.13
		c0.08,11.39,9.33,21.27,20.76,21.54c12.41,0.3,24.83,0.26,37.24,0.02c11.33-0.22,21.02-10.14,21.18-21.18
		c0.16-11.37-9.58-21.2-21.51-21.51C599.02,66.56,592.92,66.69,586.83,66.68z" />
		<path class="st0" d="M250.91,524.71c3.56-9.62,6.53-18.18,9.88-26.58c8.22-20.57,18.27-40.14,32.99-56.93
		c13.22-15.08,29.16-25.56,49.45-28.57c12.63-1.87,22.36,4.47,24.45,16.35c1.88,10.71-5.54,20.07-17.72,22.01
		c-10.48,1.67-18.67,7.11-25.66,14.78c-17.36,19.04-26.32,42.46-34.48,66.27c-4.95,14.43-8.5,29.24-11.56,44.18
		c-1.82,8.85-7.19,14.81-16.21,16.43c-8.49,1.53-15.18-2.08-19.8-9.17c-18.84-28.86-37.68-57.72-56.32-86.72
		c-5.71-8.89-3.88-19.81,3.68-26.04c6.71-5.53,18.03-5.4,24.75,0.4c3.41,2.95,5.64,6.87,8.07,10.6
		c7.79,11.99,15.54,24.01,23.35,35.99C247.13,519.82,248.73,521.77,250.91,524.71z" />
		<path class="st0" d="M251.2,310.83c2.31-6.35,4.52-12.67,6.9-18.93c10.14-26.73,22.62-52.08,43.82-72.04
		c13.04-12.27,28.22-20.1,46.54-20.3c10.53-0.11,17.66,6.36,19.21,16.76c1.32,8.86-4.17,19.13-13.37,20.39
		c-25.41,3.49-37.03,22.11-47.55,41.69c-13.97,25.99-22.21,54.12-28.11,82.92c-1.85,9.02-5.81,15.92-15.39,17.88
		c-9.69,1.98-16.64-2.08-21.91-10.24c-18.19-28.15-36.66-56.11-54.83-84.27c-6.57-10.19-4.39-22.31,4.44-28
		c10.04-6.46,21.38-3.57,28.43,7.26c9.21,14.14,18.4,28.29,27.62,42.41C247.98,307.89,248.64,309.76,251.2,310.83z" />
		<path class="st0" d="M251.09,738.24c6.04-18.61,12.46-35.71,21.15-51.8c12.3-22.78,27.07-43.39,51.44-54.95
		c7.29-3.46,15.01-5.39,23-6c10.73-0.82,19.14,6.04,20.91,16.65c1.58,9.5-3.79,19.57-13.41,20.87
		c-23.54,3.19-35.24,19.84-45.48,38.08c-15.18,27.02-23.88,56.45-30.08,86.64c-1.87,9.08-5.99,15.79-15.49,17.83
		c-9.11,1.96-15.94-1.4-21.81-10.37c-18.21-27.86-36.38-55.74-54.58-83.6c-4.73-7.24-6.1-14.86-1.47-22.48
		c4.07-6.69,10.3-10.22,18.37-9.34c6.99,0.76,12.02,4.6,15.79,10.49c9.47,14.81,19.09,29.52,28.68,44.25
		C248.71,735.47,249.51,736.3,251.09,738.24z" />
		<path class="st0" d="M607.47,380.14c-29.56,0-59.11,0.02-88.67-0.01c-9.04-0.01-17.39-1.55-22-10.74
		c-7.01-13.98,3.04-28.53,19.76-28.54c52.77-0.04,105.54-0.06,158.31-0.06c8.21,0,16.44-0.28,24.62,0.27
		c11.22,0.75,17.49,6.36,19.31,16.21c1.45,7.88-2.96,16.73-10.35,20.61c-4.53,2.38-9.53,2.23-14.43,2.24
		C665.18,380.17,636.33,380.14,607.47,380.14z" />
		<path class="st0" d="M606.56,505.51c-29.79,0-59.59,0-89.38,0c-8.45,0-15.73-2.12-20.08-10.27c-6.18-11.56-0.21-25.29,12.6-28.1
		c3.85-0.85,7.92-0.97,11.88-0.96c39.87,0.09,79.75,0.35,119.62,0.41c18.06,0.03,36.11-0.38,54.17-0.38c8.2,0,15.97,1.34,20.66,9.39
		c7.17,12.29,0.85,26.54-13.12,29.12c-3.43,0.63-6.99,0.79-10.49,0.8c-28.62,0.06-57.24,0.03-85.86,0.03
		C606.56,505.54,606.56,505.53,606.56,505.51z" />
		<path class="st0" d="M606.52,554.34c30.25-0.01,60.49-0.03,90.74,0c13.39,0.02,21.89,7.69,21.78,19.5
		c-0.11,11.27-8.79,19.24-21.54,19.25c-60.49,0.08-120.98,0.07-181.47,0.02c-12.55-0.01-21.75-8.77-21.52-20.08
		c0.23-11,9.3-18.69,21.98-18.68C546.5,554.36,576.51,554.35,606.52,554.34z" />
		<path class="st0" d="M606.53,291.9c-30.71,0-61.42,0.01-92.12-0.01c-10.29-0.01-18.32-6.76-19.62-16.44
		c-1.3-9.64,4.68-18.63,14.35-21.37c2-0.57,4.15-0.87,6.23-0.87c60.95-0.04,121.9-0.02,182.84-0.02c8.55,0,15.01,3.8,18.83,11.3
		c6.64,13.03-2.52,27.32-17.68,27.42c-30.94,0.19-61.89,0.06-92.83,0.06C606.53,291.94,606.53,291.92,606.53,291.9z" />
		<path class="st0" d="M423.54,505.35c-11.47,0-22.96,0.48-34.39-0.13c-11.25-0.6-18.56-8.58-18.69-18.96
		c-0.14-10.79,6.44-18.02,17.89-19.64c1.39-0.2,2.79-0.4,4.19-0.41c20.82-0.03,41.65-0.22,62.47,0.05
		c11.9,0.16,19.85,6.01,21.84,15.04c2.79,12.63-5.78,23.19-19.6,24.16c-0.47,0.03-0.94,0.04-1.4,0.04c-10.77,0-21.53,0-32.3,0
		C423.54,505.46,423.54,505.4,423.54,505.35z" />
		<path class="st0" d="M420.01,380.08c-8.56-0.37-20.8,1.01-32.93-0.63c-10.61-1.43-17.01-9.45-16.61-20.07
		c0.4-10.67,8.55-18.25,20.83-18.48c15.47-0.3,30.96-0.02,46.44,0c6.33,0.01,12.67-0.25,18.98,0.05c13.12,0.6,20.32,7.93,20.3,20.27
		c-0.02,10.71-7.96,18.36-20.32,18.78C445.7,380.38,434.66,380.08,420.01,380.08z" />
		<path class="st0" d="M423,805.89c-10.78,0-21.56,0.05-32.35-0.01c-12.17-0.07-20-7.3-20.21-18.56
		c-0.21-11.59,7.54-19.84,19.72-20.05c17.81-0.32,35.63-0.1,53.45-0.11c4.45,0,8.91-0.14,13.36,0.02
		c12.12,0.44,20.37,8.48,20.37,19.69c0,11.39-8.1,18.89-20.59,19.01c-5.63,0.05-11.25,0.01-16.88,0
		C434.26,805.89,428.63,805.89,423,805.89z" />
		<path class="st0" d="M424.12,554.34c11.02,0,22.04-0.09,33.05,0.02c11.99,0.13,19.9,7.7,20,18.93c0.1,11.68-7.05,19.56-19.12,19.74
		c-22.73,0.34-45.48,0.32-68.21-0.01c-11.8-0.17-19.49-8.43-19.4-19.64c0.09-11.25,7.96-18.86,19.93-19.01
		C401.62,554.23,412.87,554.34,424.12,554.34z" />
		<path class="st0" d="M424.27,291.96c-11.24,0.01-22.49,0.09-33.73-0.02c-11.69-0.11-19.72-7.43-20.07-18.1
		c-0.39-11.66,7.22-20.32,19.25-20.52c22.95-0.37,45.91-0.39,68.86,0.02c11.75,0.21,18.69,8.55,18.34,20.38
		c-0.34,11.23-7.88,18.23-19.61,18.23C446.28,291.95,435.28,291.95,424.27,291.96z" />
		<path class="st0" d="M424.07,679.65c10.78,0,21.56-0.09,32.34,0.02c13.01,0.13,20.84,7.59,20.79,19.58
		c-0.05,11.54-7.92,19.15-20.47,19.24c-21.79,0.15-43.58,0.16-65.38-0.01c-12.83-0.1-20.9-7.93-20.9-19.69
		c0-11.56,8.22-18.99,21.28-19.13c5.39-0.06,10.78,0,16.17,0C413.29,679.66,418.68,679.66,424.07,679.65z" />
		<path class="st0" d="M810.18,921.22c-27.21,0.01-54.42,0.02-81.63,0c-15.77-0.01-20.37-3.05-25.72-17.54
		c-15.03-40.68-29.97-81.39-44.89-122.1c-4.6-12.54-0.38-23.27,10.59-27.42c10.88-4.13,21.13,1.23,25.81,13.9
		c13,35.18,26.04,70.35,38.61,105.68c2.37,6.66,5.61,8.85,12.64,8.79c43.16-0.33,86.32-0.26,129.48-0.05
		c5.91,0.03,8.76-1.44,9.98-7.72c2.32-11.95,5.72-23.68,8.66-35.51c2.34-9.43,2.33-9.44-7.73-9.44
		c-37.76-0.01-75.53,0.06-113.29-0.04c-15.17-0.04-24.74-13.61-18.83-26.82c3.88-8.67,11.33-11.98,20.56-11.95
		c20.41,0.05,40.81,0.01,61.22,0.01c27.21,0,54.42-0.05,81.63,0.02c17.14,0.04,25.59,10.53,21.6,27.06
		c-6.93,28.7-14.03,57.35-21.14,86.01c-2.84,11.47-9.86,17.06-21.67,17.1C867.42,921.28,838.8,921.22,810.18,921.22z" />
		<path class="st0" d="M851.66,964.85c-0.15-15.25,11.39-27.22,26.18-27.14c14.11,0.08,26.41,12.32,26.63,26.48
		c0.22,14.39-11.51,26.22-26.24,26.45C863.49,990.87,851.81,979.54,851.66,964.85z" />
		<path class="st0" d="M760.04,964.12c0.04,15.02-11.06,26.41-25.83,26.5c-14.73,0.09-26.56-11.26-26.88-25.79
		c-0.32-14.5,11.93-26.99,26.57-27.1C748.46,937.63,760,949.28,760.04,964.12z" />
	</g>
</svg>