<svg version="1.0" xmlns="http://www.w3.org/2000/svg"
    width="1em"
    height="1em"
    fill="currentColor" viewBox="0 0 512.000000 512.000000"
 preserveAspectRatio="xMidYMid meet">
 
<g transform="translate(0.000000,512.000000) scale(0.100000,-0.100000)" stroke="none">
<path d="M1035 4619 c-227 -33 -412 -119 -558 -258 -160 -153 -255 -340 -297
-586 -65 -379 -11 -770 159 -1155 294 -663 980 -1358 1876 -1897 152 -91 324
-183 343 -183 48 0 492 268 752 453 856 610 1412 1297 1584 1960 43 164 57
266 63 442 14 419 -79 714 -296 938 -123 128 -277 213 -476 263 -140 36 -390
44 -532 19 -278 -50 -555 -207 -803 -455 -92 -92 -236 -261 -280 -328 -15 -23
-16 -22 -107 90 -313 388 -661 628 -1003 692 -90 17 -322 20 -425 5z m347
-383 c314 -60 644 -332 935 -771 33 -50 100 -163 149 -252 49 -90 93 -161 98
-160 4 2 52 86 105 188 154 294 271 459 451 639 268 269 521 384 801 366 196
-12 337 -67 450 -174 90 -84 150 -200 181 -347 25 -119 30 -366 9 -485 -99
-580 -480 -1134 -1166 -1695 -208 -170 -574 -423 -785 -543 l-56 -31 -149 92
c-610 375 -1098 797 -1423 1230 -109 144 -182 265 -258 422 -75 156 -113 262
-150 421 -26 110 -28 134 -28 329 0 196 2 217 26 307 64 235 192 374 403 437
135 41 283 51 407 27z"/>
</g>
</svg>
