<svg version="1.0" xmlns="http://www.w3.org/2000/svg"
 width="1em" height="1em" fill="currentColor" viewBox="0 0 512.000000 512.000000"
 preserveAspectRatio="xMidYMid meet">
<g transform="translate(0.000000,512.000000) scale(0.100000,-0.100000)"
 stroke="none">
<path d="M1622 4468 c-231 -231 -335 -341 -339 -360 l-5 -28 -299 0 c-286 0
-300 -1 -319 -20 -20 -20 -20 -33 -20 -1260 0 -1227 0 -1240 20 -1260 20 -20
33 -20 1900 -20 1867 0 1880 0 1900 20 20 20 20 33 20 1260 0 1227 0 1240 -20
1260 -19 19 -33 20 -320 20 l-300 0 0 81 0 81 303 -4 c263 -3 307 -6 342 -21
54 -24 103 -73 129 -127 l21 -45 3 -1342 2 -1343 -780 0 c-919 0 -820 17 -820
-140 l0 -100 -480 0 -480 0 0 100 c0 157 99 140 -820 140 l-780 0 2 1343 c3
1268 4 1344 21 1382 24 54 73 103 127 129 42 20 65 21 373 26 311 5 329 6 343
24 21 30 18 92 -6 116 -20 20 -30 21 -378 18 l-357 -3 -60 -29 c-77 -38 -153
-114 -191 -191 l-29 -60 -3 -1381 -2 -1381 -24 -11 c-42 -19 -99 -76 -117
-117 -25 -55 -27 -334 -3 -416 43 -145 148 -277 272 -342 139 -73 -37 -67
2112 -67 2149 0 1973 -6 2112 67 124 65 229 197 272 342 24 82 22 361 -3 416
-18 41 -75 98 -117 117 l-24 11 -2 1381 -3 1381 -29 60 c-38 77 -114 153 -191
191 l-60 29 -337 3 -338 3 0 110 c0 123 -12 164 -63 218 -64 67 -83 71 -363
71 -249 0 -251 0 -272 -23 -30 -32 -29 -87 1 -115 22 -21 31 -22 235 -22 242
0 272 -6 291 -60 8 -24 11 -423 11 -1466 l0 -1434 -1120 0 -1120 0 0 1144 c0
629 3 1151 6 1160 5 14 41 16 300 16 281 0 295 1 314 20 19 19 20 33 20 320
l0 300 260 0 c247 0 261 1 280 20 13 13 20 33 20 60 0 27 -7 47 -20 60 -19 19
-33 20 -342 20 l-322 0 -334 -332z m298 -133 l0 -175 -177 0 -178 0 175 175
c96 96 176 175 177 175 2 0 3 -79 3 -175z m-640 -1535 l0 -1120 -240 0 -240 0
0 1120 0 1120 240 0 240 0 0 -1120z m3040 0 l0 -1120 -240 0 -240 0 0 1120 0
1120 240 0 240 0 0 -1120z m-2400 -1700 c0 -156 -71 -140 640 -140 711 0 640
-16 640 140 l0 100 754 0 c536 0 762 -3 786 -11 41 -15 60 -58 60 -141 -1
-170 -37 -276 -124 -364 -66 -65 -136 -100 -231 -114 -96 -13 -3674 -13 -3770
0 -38 6 -93 21 -122 35 -68 31 -157 120 -188 188 -40 87 -58 276 -34 347 22
61 -2 59 832 60 l757 0 0 -100z"/>
<path d="M2791 4774 c-12 -15 -21 -39 -21 -54 0 -15 9 -39 21 -54 19 -25 25
-26 115 -26 112 0 134 13 134 80 0 67 -22 80 -134 80 -90 0 -96 -1 -115 -26z"/>
<path d="M2340 4220 c-13 -13 -20 -33 -20 -60 0 -27 7 -47 20 -60 19 -19 33
-20 540 -20 507 0 521 1 540 20 13 13 20 33 20 60 0 27 -7 47 -20 60 -19 19
-33 20 -540 20 -507 0 -521 -1 -540 -20z"/>
<path d="M1700 3900 c-13 -13 -20 -33 -20 -60 0 -27 7 -47 20 -60 20 -20 33
-20 860 -20 827 0 840 0 860 20 13 13 20 33 20 60 0 27 -7 47 -20 60 -20 20
-33 20 -860 20 -827 0 -840 0 -860 -20z"/>
<path d="M2355 3581 c-316 -83 -539 -291 -641 -601 -26 -79 -28 -96 -29 -255
0 -138 4 -182 19 -235 76 -261 251 -467 490 -575 135 -61 183 -70 371 -70 159
1 176 3 255 29 316 104 535 343 606 662 21 95 15 326 -11 419 -24 88 -96 230
-158 310 -105 137 -295 265 -462 311 -94 25 -350 29 -440 5z m349 -162 c237
-46 448 -235 534 -478 24 -69 27 -89 27 -221 0 -132 -3 -152 -27 -221 -15 -42
-44 -105 -64 -140 -48 -82 -171 -205 -253 -253 -409 -238 -923 -25 -1051 435
-24 90 -27 244 -5 337 89 377 458 615 839 541z"/>
<path d="M2658 2823 l-258 -257 -98 97 c-92 90 -102 97 -139 97 -52 0 -83 -31
-83 -85 0 -37 8 -47 138 -177 136 -136 138 -138 182 -138 l45 0 297 298 c293
292 298 298 298 338 0 53 -31 84 -85 84 -38 0 -48 -9 -297 -257z"/>
</g>
</svg>
