<svg version="1.1" id="PreForm" xmlns="http://www.w3.org/2000/svg"
 width="1em"
 height="1em"
 fill="currentColor" 
 viewBox="0 0 512.000000 512.000000">

<g>
<path d="M452 5100 c-109 -29 -187 -74 -272 -160 -87 -86 -131 -163 -160 -276
-20 -76 -20 -118 -20 -2104 0 -1986 0 -2028 20 -2104 29 -113 73 -190 160
-276 86 -87 163 -131 276 -160 75 -19 115 -20 1344 -20 1229 0 1269 1 1344 20
113 29 190 73 276 160 87 86 131 163 160 276 20 76 20 118 20 2104 0 1986 0
2028 -20 2104 -29 113 -73 190 -160 276 -86 87 -163 131 -276 160 -75 19 -114
20 -1348 19 -1218 0 -1274 -1 -1344 -19z m2651 -409 c21 -13 50 -42 65 -64
l27 -41 0 -2026 0 -2026 -27 -41 c-15 -22 -44 -51 -65 -64 l-38 -24 -1266 0
-1265 0 -41 27 c-22 15 -51 44 -64 65 l-24 38 -3 2004 c-1 1390 1 2015 8 2043
13 47 77 114 122 127 20 6 512 9 1283 8 l1250 -2 38 -24z"/>
<path d="M800 3760 l0 -600 600 0 600 0 0 600 0 600 -600 0 -600 0 0 -600z
m800 0 l0 -200 -200 0 -200 0 0 200 0 200 200 0 200 0 0 -200z"/>
<path d="M800 2560 l0 -200 1000 0 1000 0 0 200 0 200 -1000 0 -1000 0 0 -200z"/>
<path d="M800 1760 l0 -200 1000 0 1000 0 0 200 0 200 -1000 0 -1000 0 0 -200z"/>
<path d="M800 960 l0 -200 600 0 600 0 0 200 0 200 -600 0 -600 0 0 -200z"/>
<path d="M3920 3035 l0 -1725 297 -595 c164 -327 300 -595 303 -595 3 0 139
268 303 595 l297 595 0 1725 0 1725 -600 0 -600 0 0 -1725z m800 -150 l0
-1475 -97 -195 c-54 -107 -100 -195 -103 -195 -3 0 -49 88 -103 195 l-97 195
0 1475 0 1475 200 0 200 0 0 -1475z"/>
</g>
</svg>
