<svg version="1.1" id="FormOut" xmlns="http://www.w3.org/2000/svg"
  width="1em"
  height="1em"
  fill="currentColor" 
  viewBox="0 0 512.000000 512.000000">

<g>
<path d="M1611 4944 c-157 -42 -291 -171 -337 -323 l-17 -59 -276 -4 c-267 -4
-278 -5 -342 -29 -111 -43 -191 -110 -253 -212 -70 -117 -66 -1 -66 -1964 0
-1929 -3 -1818 56 -1935 34 -67 135 -168 202 -202 115 -58 38 -56 1738 -56
1021 0 1580 4 1615 10 131 25 274 131 333 248 58 115 56 68 56 1277 l0 1111
201 259 c110 143 211 281 225 307 85 165 67 364 -46 514 -48 63 -254 226 -332
262 -54 24 -59 29 -72 77 -40 135 -156 253 -302 307 -54 20 -81 22 -335 26
l-276 4 -19 61 c-47 156 -178 280 -341 322 -84 22 -1331 21 -1412 -1z m-338
-761 c18 -65 77 -162 128 -210 56 -52 146 -101 219 -117 103 -24 1297 -24
1400 0 66 15 161 63 209 107 51 47 111 140 133 208 l22 69 241 0 c230 0 243
-1 285 -22 45 -24 74 -57 55 -64 -6 -2 -38 -22 -73 -45 -72 -47 10 56 -1043
-1309 -425 -551 -758 -991 -776 -1027 -52 -102 -67 -192 -60 -362 3 -80 9
-156 12 -168 l7 -22 -413 -3 c-407 -3 -415 -3 -449 -25 -43 -27 -80 -89 -80
-134 0 -43 33 -109 68 -134 26 -19 45 -20 642 -23 361 -2 656 1 715 7 195 20
352 77 452 166 30 26 265 322 540 678 l488 632 3 -875 c1 -481 0 -890 -3 -908
-8 -44 -59 -99 -103 -112 -26 -8 -521 -10 -1594 -8 -1554 3 -1557 3 -1584 24
-15 11 -37 33 -48 48 -21 27 -21 28 -24 1779 -1 964 0 1767 3 1785 8 42 58 99
99 111 17 5 139 10 272 10 l241 1 16 -57z"/>
<path d="M1407 3488 c-41 -24 -77 -86 -77 -133 0 -46 38 -112 78 -137 34 -21
49 -23 167 -23 118 0 133 2 167 23 40 25 78 91 78 137 0 39 -35 106 -68 130
-23 17 -45 20 -167 23 -129 2 -143 1 -178 -20z"/>
<path d="M1407 2828 c-41 -24 -77 -86 -77 -133 0 -46 38 -112 78 -137 34 -21
49 -23 167 -23 118 0 133 2 167 23 41 25 78 91 78 139 0 45 -40 113 -80 134
-29 16 -57 19 -165 19 -115 0 -134 -3 -168 -22z"/>
<path d="M1407 2158 c-41 -24 -77 -86 -77 -133 0 -46 38 -112 78 -137 34 -21
49 -23 167 -23 118 0 133 2 167 23 41 25 78 91 78 139 0 45 -40 113 -80 134
-29 16 -57 19 -165 19 -115 0 -134 -3 -168 -22z"/>
</g>
</svg>
