<svg id="svg" version="1.1" xmlns="http://www.w3.org/2000/svg" xmlns:xlink="http://www.w3.org/1999/xlink" width="1em" height="1em" viewBox="0, 0, 400,400"><g id="svgg"><path id="path0" d="M0.094 329.700 C 0.193 348.480,0.364 356.137,0.702 357.000 C 0.961 357.660,1.393 359.036,1.662 360.059 C 1.994 361.324,2.321 361.852,2.685 361.712 C 3.089 361.557,3.175 361.865,3.036 362.980 C 2.873 364.300,2.922 364.398,3.504 363.927 C 4.003 363.522,4.082 363.518,3.847 363.910 C 3.297 364.825,3.954 366.670,4.809 366.607 C 6.013 366.518,6.141 366.122,5.054 365.849 C 4.395 365.684,4.115 365.371,4.205 364.901 C 4.278 364.516,4.355 364.110,4.376 364.000 C 4.396 363.890,4.587 364.070,4.800 364.400 C 5.110 364.880,5.189 364.889,5.194 364.444 C 5.197 364.138,4.885 363.649,4.500 363.357 C 3.918 362.915,36.724 362.823,199.700 362.813 C 330.010 362.804,395.617 362.934,395.650 363.200 C 395.678 363.420,395.723 363.771,395.750 363.980 C 395.778 364.189,396.061 364.594,396.381 364.880 C 396.878 365.325,396.890 365.305,396.461 364.736 C 396.156 364.330,396.111 363.978,396.346 363.833 C 396.558 363.702,396.823 363.821,396.934 364.098 C 397.056 364.401,397.149 364.322,397.168 363.900 C 397.186 363.515,397.000 363.200,396.756 363.200 C 396.511 363.200,396.736 362.846,397.256 362.413 C 397.924 361.857,398.025 361.621,397.600 361.607 C 397.246 361.596,397.164 361.467,397.400 361.294 C 398.349 360.597,398.898 359.108,398.337 358.753 C 398.012 358.546,397.979 358.410,398.253 358.406 C 398.680 358.400,399.035 357.663,399.508 355.800 C 399.619 355.360,399.784 343.435,399.874 329.300 L 400.038 303.600 365.019 303.600 C 341.940 303.600,330.000 303.736,330.000 304.000 C 330.000 304.220,329.809 304.400,329.576 304.400 C 329.343 304.400,329.281 304.192,329.438 303.938 C 329.618 303.647,329.548 303.585,329.247 303.771 C 328.751 304.077,328.874 306.749,329.425 307.640 C 329.615 307.948,329.555 308.020,329.261 307.837 C 328.752 307.523,328.802 308.646,329.335 309.500 C 329.535 309.820,329.422 310.000,329.024 310.000 C 328.681 310.000,328.400 310.255,328.400 310.567 C 328.400 310.878,328.193 311.202,327.939 311.287 C 327.685 311.372,327.449 311.831,327.414 312.308 C 327.353 313.143,325.839 314.800,325.139 314.800 C 324.952 314.800,324.800 315.081,324.800 315.424 C 324.800 315.767,324.620 315.936,324.400 315.800 C 324.180 315.664,324.000 315.754,324.000 316.000 C 324.000 316.246,323.800 316.324,323.555 316.172 C 323.311 316.021,322.965 316.133,322.787 316.421 C 322.609 316.708,322.225 316.989,321.932 317.043 C 321.639 317.098,320.500 317.329,319.400 317.557 C 317.795 317.889,87.583 318.185,81.400 317.862 C 80.740 317.828,79.973 317.586,79.695 317.324 C 79.418 317.062,78.833 316.917,78.395 317.001 C 77.958 317.085,77.600 316.997,77.600 316.804 C 77.600 316.611,77.203 316.328,76.718 316.174 C 75.341 315.737,72.007 312.137,71.740 310.798 C 71.608 310.139,71.354 309.600,71.176 309.600 C 70.999 309.600,70.937 309.136,71.040 308.568 C 71.158 307.920,71.073 307.631,70.814 307.792 C 70.361 308.071,70.336 308.005,70.178 306.098 C 70.118 305.382,70.215 304.886,70.393 304.996 C 70.571 305.105,70.827 304.906,70.963 304.553 C 71.139 304.094,71.036 303.977,70.605 304.143 C 70.272 304.271,70.000 304.201,70.000 303.987 C 70.000 303.740,57.303 303.600,34.979 303.600 L -0.043 303.600 0.094 329.700 M394.800 365.067 C 394.800 366.800,395.043 366.723,395.328 364.900 C 395.439 364.185,395.366 363.600,395.165 363.600 C 394.964 363.600,394.800 364.260,394.800 365.067 M394.800 367.600 C 394.800 367.820,394.598 367.955,394.350 367.900 C 394.103 367.845,393.819 368.070,393.720 368.400 C 393.559 368.933,393.590 368.933,394.001 368.400 C 394.376 367.912,394.430 368.006,394.287 368.900 C 394.060 370.319,394.198 370.287,394.971 368.739 C 395.713 367.252,395.720 367.200,395.200 367.200 C 394.980 367.200,394.800 367.380,394.800 367.600 " stroke="none" fill="#4abfc4" fill-rule="evenodd"></path><path id="path1" d="M84.700 239.501 L 0.000 239.602 0.000 271.601 L 0.000 303.600 35.000 303.600 C 55.657 303.600,70.000 303.749,70.000 303.963 C 70.000 304.162,70.358 304.231,70.796 304.117 C 71.233 304.003,71.495 303.754,71.379 303.565 C 71.069 303.064,73.123 298.908,74.189 297.879 C 75.836 296.289,76.801 295.600,77.381 295.600 C 77.695 295.600,78.064 295.420,78.200 295.200 C 78.336 294.980,78.797 294.800,79.224 294.800 C 79.651 294.800,80.000 294.620,80.000 294.400 C 80.000 293.879,318.911 293.843,319.905 294.364 C 321.719 295.313,323.398 295.925,323.694 295.742 C 323.873 295.631,323.970 295.751,323.910 296.007 C 323.849 296.264,324.152 296.683,324.583 296.937 C 325.789 297.650,326.299 298.192,327.136 299.654 C 327.560 300.394,328.063 300.971,328.254 300.935 C 328.444 300.899,328.634 301.509,328.675 302.291 C 328.756 303.808,329.553 305.001,329.883 304.100 C 330.028 303.705,337.424 303.600,365.033 303.600 L 400.000 303.600 400.000 271.600 L 400.000 239.600 315.000 239.600 C 231.255 239.600,230.000 239.611,230.000 240.373 C 230.000 240.798,229.640 241.260,229.200 241.400 C 228.760 241.540,228.400 241.832,228.400 242.051 C 228.400 242.269,228.235 242.345,228.034 242.221 C 227.833 242.097,227.577 242.221,227.466 242.498 C 227.314 242.874,227.255 242.878,227.232 242.514 C 227.214 242.247,227.560 241.835,228.000 241.600 C 228.440 241.365,228.794 240.863,228.787 240.486 C 228.776 239.938,228.612 240.002,227.975 240.800 C 227.536 241.350,226.637 242.385,225.978 243.100 C 225.319 243.815,224.904 244.400,225.056 244.400 C 225.208 244.400,224.537 245.195,223.566 246.167 C 222.595 247.139,221.752 248.138,221.693 248.387 C 221.635 248.636,220.960 249.467,220.193 250.233 C 219.427 251.000,218.800 251.801,218.800 252.013 C 218.800 252.226,218.625 252.400,218.410 252.400 C 218.196 252.400,217.745 252.933,217.408 253.584 C 216.712 254.930,214.953 256.800,214.382 256.800 C 214.172 256.800,214.000 257.071,214.000 257.401 C 214.000 257.732,213.191 258.857,212.202 259.901 C 211.213 260.946,210.403 261.930,210.402 262.088 C 210.399 262.545,206.317 266.400,205.835 266.402 C 205.596 266.404,204.860 266.687,204.200 267.033 C 202.788 267.771,196.709 267.928,196.477 267.232 C 196.398 266.994,195.898 266.800,195.367 266.800 C 194.835 266.800,194.400 266.609,194.400 266.376 C 194.400 266.143,194.229 266.058,194.021 266.187 C 193.668 266.405,190.000 263.074,190.000 262.535 C 190.000 262.401,189.595 261.896,189.100 261.413 C 188.605 260.930,187.408 259.514,186.440 258.267 C 185.472 257.020,184.527 256.000,184.340 256.000 C 184.153 256.000,184.000 255.724,184.000 255.387 C 184.000 255.051,183.727 254.670,183.393 254.542 C 183.059 254.414,182.834 254.014,182.893 253.654 C 182.961 253.237,182.672 252.953,182.094 252.871 C 181.596 252.801,181.291 252.576,181.418 252.371 C 181.544 252.167,181.457 252.000,181.224 252.000 C 180.991 252.000,180.800 251.736,180.800 251.414 C 180.800 251.092,180.440 250.635,180.000 250.400 C 179.560 250.165,179.200 249.657,179.200 249.272 C 179.200 248.887,178.660 248.254,178.000 247.864 C 177.340 247.474,176.800 246.914,176.800 246.620 C 176.800 246.089,175.700 245.406,175.070 245.546 C 174.889 245.587,174.855 245.435,174.994 245.210 C 175.133 244.984,175.057 244.800,174.824 244.800 C 174.591 244.800,174.400 244.459,174.400 244.043 C 174.400 243.626,174.119 243.178,173.775 243.046 C 173.425 242.911,173.276 242.601,173.436 242.341 C 173.604 242.070,173.550 241.984,173.307 242.134 C 173.078 242.275,172.801 242.047,172.691 241.627 C 172.070 239.252,177.794 239.390,84.700 239.501 M171.800 241.103 C 172.461 241.494,172.484 241.578,171.933 241.588 C 171.022 241.604,170.000 241.184,170.000 240.793 C 170.000 240.373,170.796 240.510,171.800 241.103 M70.174 306.000 C 70.346 308.147,70.366 308.194,70.897 307.663 C 71.292 307.268,71.283 307.099,70.851 306.832 C 70.477 306.601,70.452 306.449,70.769 306.344 C 71.092 306.236,71.055 305.956,70.645 305.395 C 70.099 304.649,70.070 304.686,70.174 306.000 M71.169 308.100 C 70.916 308.928,70.946 309.600,71.235 309.600 C 71.436 309.600,71.600 309.240,71.600 308.800 C 71.600 308.157,71.301 307.671,71.169 308.100 M328.769 308.500 C 328.467 309.488,328.574 310.000,329.084 310.000 C 329.552 310.000,329.592 309.873,329.252 309.463 C 329.007 309.168,328.925 308.808,329.070 308.663 C 329.215 308.518,329.213 308.400,329.067 308.400 C 328.920 308.400,328.786 308.445,328.769 308.500 M71.600 310.353 C 71.600 310.925,72.731 313.200,73.016 313.200 C 73.218 313.200,72.119 310.385,71.787 310.054 C 71.684 309.951,71.600 310.086,71.600 310.353 M82.065 317.799 C 82.328 318.061,317.668 318.065,317.931 317.803 C 318.042 317.691,264.973 317.600,200.000 317.600 C 135.027 317.600,81.956 317.689,82.065 317.799 " stroke="none" fill="#38bbcb" fill-rule="evenodd"></path><path id="path2" d="M273.853 184.682 C 274.021 185.580,273.899 186.158,273.446 186.611 C 272.851 187.206,272.800 187.199,272.794 186.529 C 272.789 185.946,272.716 185.913,272.431 186.364 C 272.235 186.674,272.167 187.171,272.282 187.468 C 272.419 187.827,272.282 187.930,271.876 187.774 C 271.063 187.462,269.600 188.271,269.600 189.032 C 269.600 189.365,269.169 190.067,268.642 190.594 C 268.116 191.121,267.786 191.652,267.909 191.776 C 268.032 191.899,267.823 192.000,267.443 192.000 C 267.063 192.000,266.861 192.175,266.993 192.389 C 267.126 192.603,266.866 193.093,266.417 193.478 C 265.968 193.863,265.600 194.342,265.600 194.542 C 265.600 194.977,264.021 196.400,263.539 196.400 C 263.352 196.400,263.200 196.593,263.200 196.829 C 263.200 197.466,262.062 198.485,261.640 198.225 C 261.439 198.101,261.361 198.330,261.467 198.736 C 261.594 199.220,261.102 200.053,260.030 201.169 C 259.133 202.102,258.400 203.041,258.400 203.256 C 258.400 203.471,258.220 203.536,258.000 203.400 C 257.780 203.264,257.600 203.356,257.600 203.605 C 257.600 203.854,257.375 204.295,257.100 204.585 C 256.825 204.876,255.970 205.872,255.200 206.800 C 254.430 207.728,253.575 208.724,253.300 209.015 C 253.025 209.305,252.800 209.667,252.800 209.818 C 252.800 209.970,251.567 211.468,250.059 213.147 C 248.552 214.826,247.103 216.610,246.839 217.111 C 246.574 217.616,246.163 217.901,245.918 217.749 C 245.663 217.592,245.589 217.658,245.742 217.906 C 245.888 218.143,245.511 218.727,244.904 219.204 C 244.297 219.682,243.822 220.191,243.849 220.336 C 243.954 220.900,243.498 221.584,243.158 221.374 C 242.961 221.252,242.800 221.345,242.800 221.580 C 242.800 221.815,242.260 222.572,241.600 223.263 C 240.940 223.954,240.400 224.669,240.400 224.852 C 240.400 225.153,239.479 226.293,237.500 228.440 C 237.115 228.858,236.896 229.200,237.014 229.200 C 237.132 229.200,236.817 229.626,236.314 230.147 C 235.811 230.668,235.303 231.041,235.185 230.976 C 235.067 230.911,234.736 231.386,234.450 232.031 C 234.165 232.676,233.766 233.103,233.565 232.979 C 233.364 232.854,233.200 233.033,233.200 233.376 C 233.200 233.719,233.020 234.000,232.800 234.000 C 232.580 234.000,232.400 234.270,232.400 234.600 C 232.400 234.930,232.259 235.200,232.086 235.200 C 231.914 235.200,231.429 235.785,231.009 236.500 C 230.588 237.215,229.582 238.439,228.772 239.221 C 227.722 240.234,227.302 240.979,227.308 241.821 C 227.312 242.469,227.395 242.774,227.492 242.498 C 227.589 242.221,227.833 242.097,228.034 242.221 C 228.235 242.345,228.400 242.269,228.400 242.051 C 228.400 241.832,228.760 241.540,229.200 241.400 C 229.640 241.260,230.000 240.798,230.000 240.373 C 230.000 239.611,231.255 239.600,315.000 239.600 L 400.000 239.600 400.000 211.800 L 400.000 184.000 337.400 184.000 C 289.237 184.000,274.800 184.110,274.800 184.476 C 274.800 184.739,274.533 184.604,274.207 184.176 C 273.653 183.451,273.630 183.484,273.853 184.682 M-0.000 211.802 L -0.000 239.604 84.804 239.598 C 172.306 239.592,173.718 239.616,172.288 241.045 C 172.159 241.174,171.816 241.132,171.527 240.951 C 170.779 240.484,170.000 240.412,170.000 240.808 C 170.000 241.331,171.504 241.684,172.450 241.384 C 173.039 241.197,173.213 241.256,173.016 241.575 C 172.693 242.097,173.467 243.203,174.149 243.194 C 174.397 243.191,174.330 243.016,174.000 242.807 C 173.670 242.598,173.389 242.196,173.375 241.913 C 173.361 241.631,172.698 240.725,171.902 239.900 C 170.498 238.445,169.656 237.920,170.238 238.862 C 170.402 239.126,170.349 239.216,170.115 239.071 C 169.891 238.933,169.794 238.365,169.900 237.810 C 170.076 236.890,169.501 236.381,169.099 237.100 C 169.007 237.265,168.977 237.198,169.033 236.952 C 169.132 236.518,166.923 233.537,166.302 233.266 C 166.133 233.192,166.097 232.967,166.221 232.766 C 166.345 232.565,166.246 232.400,166.000 232.400 C 165.754 232.400,165.681 232.192,165.838 231.938 C 166.000 231.677,165.949 231.584,165.722 231.725 C 165.228 232.030,163.600 230.226,163.600 229.373 C 163.600 229.032,163.420 228.864,163.200 229.000 C 162.980 229.136,162.797 229.102,162.794 228.924 C 162.790 228.746,161.890 227.619,160.794 226.421 C 159.697 225.222,158.800 224.007,158.800 223.721 C 158.800 223.434,158.609 223.200,158.376 223.200 C 158.143 223.200,158.081 222.992,158.238 222.738 C 158.404 222.469,158.349 222.384,158.106 222.535 C 157.876 222.677,157.394 222.345,157.035 221.797 C 156.675 221.248,156.521 220.795,156.691 220.788 C 156.861 220.781,156.681 220.590,156.292 220.363 C 155.902 220.136,155.705 219.754,155.853 219.514 C 156.007 219.264,155.940 219.190,155.697 219.340 C 155.462 219.485,154.669 218.845,153.935 217.917 C 153.201 216.989,152.853 216.386,153.162 216.577 C 153.545 216.814,153.633 216.777,153.438 216.462 C 153.281 216.208,152.893 216.000,152.576 216.000 C 152.259 216.000,152.000 215.845,152.000 215.655 C 152.000 215.465,151.534 214.843,150.965 214.274 C 150.395 213.704,150.048 213.045,150.194 212.809 C 150.340 212.573,150.249 212.430,149.993 212.490 C 149.736 212.551,149.317 212.258,149.063 211.839 C 148.808 211.421,148.105 210.591,147.500 209.996 C 146.895 209.401,146.400 208.796,146.400 208.653 C 146.400 208.385,144.883 206.576,143.300 204.957 C 142.805 204.451,142.400 203.861,142.400 203.647 C 142.400 203.433,141.926 202.885,141.346 202.429 C 140.766 201.973,140.389 201.600,140.507 201.600 C 140.624 201.600,140.190 201.032,139.542 200.338 C 138.893 199.643,138.459 198.824,138.577 198.517 C 138.694 198.210,138.625 198.061,138.423 198.186 C 137.936 198.487,136.765 196.792,137.075 196.235 C 137.208 195.996,137.075 196.025,136.779 196.300 C 135.964 197.056,135.689 196.916,135.399 195.597 C 135.254 194.935,135.006 194.473,134.848 194.570 C 134.320 194.896,132.218 192.542,132.018 191.400 C 131.979 191.180,131.644 191.040,131.274 191.088 C 130.900 191.137,130.823 191.078,131.100 190.955 C 131.786 190.651,131.731 190.000,131.020 190.000 C 130.701 190.000,130.296 189.775,130.120 189.499 C 129.944 189.224,129.305 188.744,128.700 188.432 C 128.095 188.120,127.600 187.620,127.600 187.320 C 127.600 187.020,127.330 186.671,127.000 186.545 C 126.658 186.413,126.400 185.817,126.400 185.157 L 126.400 184.000 63.200 184.000 L 0.000 184.000 -0.000 211.802 M159.600 184.973 C 159.600 185.549,159.886 186.037,160.301 186.169 C 161.325 186.494,162.210 188.023,161.594 188.404 C 161.250 188.616,161.240 188.778,161.557 188.974 C 161.801 189.124,162.000 189.427,162.000 189.647 C 162.000 189.867,161.792 189.919,161.538 189.762 C 161.259 189.589,161.185 189.652,161.351 189.921 C 161.502 190.165,161.867 190.273,162.161 190.160 C 162.456 190.047,162.820 190.274,162.970 190.666 C 163.205 191.277,163.301 191.295,163.656 190.789 C 163.980 190.327,164.027 190.395,163.872 191.100 C 163.747 191.669,163.864 192.000,164.189 192.000 C 164.472 192.000,164.927 192.540,165.200 193.200 C 165.473 193.860,165.816 194.400,165.962 194.400 C 166.108 194.400,166.565 194.972,166.978 195.670 C 167.825 197.104,168.435 197.882,170.300 199.903 C 171.015 200.678,171.600 201.465,171.600 201.652 C 171.600 201.840,172.140 202.509,172.800 203.140 C 174.036 204.321,174.382 205.041,173.500 204.594 C 173.225 204.455,173.496 204.730,174.102 205.205 C 174.708 205.681,175.085 206.262,174.940 206.497 C 174.790 206.739,174.864 206.808,175.111 206.655 C 175.601 206.352,176.879 207.948,176.560 208.465 C 176.446 208.649,176.549 208.800,176.789 208.800 C 177.394 208.800,179.812 211.641,179.745 212.274 C 179.715 212.559,179.830 212.705,180.000 212.600 C 180.459 212.316,181.311 213.496,181.005 213.992 C 180.859 214.227,180.912 214.370,181.123 214.310 C 181.333 214.249,182.443 215.370,183.591 216.800 C 184.739 218.230,185.811 219.490,185.973 219.600 C 186.135 219.710,186.465 220.160,186.706 220.600 C 187.987 222.941,188.274 208.739,187.348 188.900 L 187.119 184.000 173.360 184.000 L 159.600 184.000 159.600 184.973 M212.663 190.664 C 211.990 207.719,212.411 223.323,213.468 220.566 C 213.613 220.190,214.241 219.394,214.865 218.798 C 215.489 218.201,216.000 217.548,216.000 217.345 C 216.000 217.142,216.360 216.717,216.800 216.400 C 217.240 216.083,217.600 215.593,217.600 215.312 C 217.600 215.030,217.768 214.800,217.973 214.800 C 218.178 214.800,218.448 214.485,218.573 214.100 C 218.698 213.715,219.511 212.680,220.380 211.800 C 221.250 210.920,221.970 209.885,221.980 209.500 C 221.991 209.115,222.270 208.800,222.600 208.800 C 222.930 208.800,223.200 208.609,223.200 208.376 C 223.200 208.143,223.408 208.081,223.662 208.238 C 223.949 208.416,224.015 208.348,223.836 208.059 C 223.499 207.512,224.560 206.308,225.017 206.719 C 225.188 206.874,225.208 206.790,225.061 206.534 C 224.822 206.116,225.639 204.906,227.700 202.625 C 228.085 202.198,228.400 201.644,228.400 201.392 C 228.400 201.141,228.835 200.702,229.366 200.418 C 229.898 200.134,230.433 199.608,230.555 199.250 C 231.130 197.566,232.448 196.083,233.159 196.320 C 233.469 196.423,233.599 196.322,233.455 196.089 C 233.314 195.861,234.023 194.663,235.030 193.427 C 236.037 192.191,236.712 191.229,236.530 191.290 C 236.349 191.350,236.200 191.220,236.200 191.000 C 236.200 190.780,236.314 190.638,236.452 190.684 C 236.917 190.839,237.924 189.411,238.063 188.400 C 238.210 187.325,239.607 185.595,240.100 185.876 C 240.265 185.970,240.400 185.767,240.400 185.424 C 240.400 185.081,240.625 184.797,240.900 184.794 C 241.233 184.790,241.200 184.658,240.800 184.400 C 240.443 184.169,234.677 184.010,226.563 184.006 L 212.926 184.000 212.663 190.664 M228.452 241.308 C 227.786 241.974,227.409 241.313,228.028 240.566 C 228.403 240.114,228.620 240.060,228.730 240.391 C 228.818 240.655,228.693 241.067,228.452 241.308 M174.400 244.125 C 174.400 244.496,174.591 244.800,174.824 244.800 C 175.057 244.800,175.155 244.950,175.041 245.133 C 174.928 245.317,175.097 245.467,175.418 245.467 C 176.180 245.467,176.155 245.333,175.200 244.308 C 174.522 243.580,174.400 243.552,174.400 244.125 M221.041 248.467 C 221.155 248.650,221.102 248.801,220.924 248.803 C 220.746 248.804,220.275 249.389,219.878 250.103 C 219.180 251.357,219.203 251.348,220.578 249.827 C 222.226 248.004,222.162 248.133,221.418 248.133 C 221.097 248.133,220.928 248.283,221.041 248.467 M216.281 254.639 C 215.886 255.168,215.708 255.600,215.885 255.600 C 216.234 255.600,217.338 254.001,217.128 253.800 C 217.057 253.733,216.677 254.111,216.281 254.639 M184.000 255.296 C 184.000 255.417,184.568 256.119,185.262 256.858 C 185.956 257.596,186.333 257.838,186.099 257.396 C 185.661 256.566,184.000 254.905,184.000 255.296 " stroke="none" fill="#27b4d1" fill-rule="evenodd"></path><path id="path3" d="M44.700 0.292 C 43.655 0.375,42.800 0.614,42.800 0.822 C 42.800 1.030,42.080 1.200,41.200 1.200 C 40.320 1.200,39.600 1.380,39.600 1.600 C 39.600 1.820,39.060 2.000,38.400 2.000 C 37.740 2.000,37.200 2.180,37.200 2.400 C 37.200 2.620,36.761 2.800,36.224 2.800 C 35.687 2.800,35.136 2.980,35.000 3.200 C 34.864 3.420,34.403 3.600,33.976 3.600 C 33.549 3.600,33.200 3.780,33.200 4.000 C 33.200 4.220,32.840 4.400,32.400 4.400 C 31.960 4.400,31.600 4.580,31.600 4.800 C 31.600 5.020,31.240 5.200,30.800 5.200 C 30.360 5.200,30.000 5.380,30.000 5.600 C 30.000 5.820,29.640 6.000,29.200 6.000 C 28.760 6.000,28.400 6.180,28.400 6.400 C 28.400 6.620,28.130 6.800,27.800 6.800 C 27.470 6.800,27.200 6.980,27.200 7.200 C 27.200 7.420,26.880 7.600,26.488 7.600 C 26.097 7.600,25.517 7.960,25.200 8.400 C 24.883 8.840,24.386 9.200,24.095 9.200 C 23.804 9.200,23.349 9.383,23.083 9.607 C 21.254 11.150,20.639 11.600,20.362 11.600 C 19.950 11.600,11.600 19.950,11.600 20.362 C 11.600 20.639,11.150 21.254,9.607 23.083 C 9.383 23.349,9.200 23.804,9.200 24.095 C 9.200 24.386,8.840 24.883,8.400 25.200 C 7.960 25.517,7.600 26.097,7.600 26.488 C 7.600 26.880,7.420 27.200,7.200 27.200 C 6.980 27.200,6.800 27.470,6.800 27.800 C 6.800 28.130,6.620 28.400,6.400 28.400 C 6.180 28.400,6.000 28.760,6.000 29.200 C 6.000 29.640,5.820 30.000,5.600 30.000 C 5.380 30.000,5.200 30.360,5.200 30.800 C 5.200 31.240,5.020 31.600,4.800 31.600 C 4.580 31.600,4.400 31.960,4.400 32.400 C 4.400 32.840,4.220 33.200,4.000 33.200 C 3.780 33.200,3.600 33.549,3.600 33.976 C 3.600 34.403,3.420 34.864,3.200 35.000 C 2.980 35.136,2.800 35.687,2.800 36.224 C 2.800 36.761,2.620 37.200,2.400 37.200 C 2.180 37.200,2.000 37.740,2.000 38.400 C 2.000 39.060,1.820 39.600,1.600 39.600 C 1.380 39.600,1.200 40.305,1.200 41.167 C 1.200 42.064,0.987 42.804,0.700 42.900 C 0.303 43.032,0.177 57.594,0.090 113.533 L -0.019 184.000 63.190 184.000 L 126.400 184.000 126.400 185.157 C 126.400 185.817,126.658 186.413,127.000 186.545 C 127.330 186.671,127.600 187.020,127.600 187.320 C 127.600 187.620,128.095 188.120,128.700 188.432 C 129.305 188.744,129.944 189.224,130.120 189.499 C 130.296 189.775,130.746 189.986,131.120 189.968 C 131.537 189.949,131.606 189.859,131.300 189.735 C 131.025 189.624,130.800 189.265,130.800 188.938 C 130.800 188.015,129.777 187.212,128.833 187.394 C 128.351 187.487,128.083 187.390,128.217 187.173 C 128.348 186.960,128.623 186.891,128.828 187.017 C 129.032 187.144,129.200 187.134,129.200 186.995 C 129.200 186.600,128.100 185.600,127.666 185.600 C 127.451 185.600,127.363 185.265,127.470 184.855 C 127.582 184.426,127.417 184.016,127.082 183.887 C 126.700 183.740,126.567 183.307,126.696 182.632 C 126.813 182.021,126.711 181.600,126.447 181.600 C 126.160 181.600,126.000 180.595,126.000 178.800 C 126.000 177.200,126.171 176.000,126.400 176.000 C 126.620 176.000,126.800 175.550,126.800 175.000 C 126.800 174.450,126.980 174.000,127.200 174.000 C 127.420 174.000,127.600 173.730,127.600 173.400 C 127.600 173.070,127.780 172.800,128.000 172.800 C 128.220 172.800,128.400 172.614,128.400 172.387 C 128.400 171.742,131.101 169.200,131.787 169.200 C 132.124 169.200,132.400 169.020,132.400 168.800 C 132.400 168.580,132.760 168.400,133.200 168.400 C 133.640 168.400,134.000 168.220,134.000 168.000 C 134.000 167.762,135.525 167.600,137.776 167.600 C 139.863 167.600,141.663 167.779,141.800 168.000 C 141.936 168.220,142.357 168.400,142.735 168.400 C 143.114 168.400,143.683 168.760,144.000 169.200 C 144.317 169.640,144.795 170.000,145.061 170.000 C 145.328 170.000,145.956 170.585,146.459 171.300 C 146.961 172.015,148.053 173.282,148.886 174.115 C 149.719 174.949,150.400 175.818,150.400 176.047 C 150.400 176.276,151.120 177.154,152.000 178.000 C 152.880 178.846,153.600 179.746,153.600 180.000 C 153.600 180.254,154.320 181.154,155.200 182.000 C 156.080 182.846,156.800 183.744,156.800 183.997 C 156.800 184.731,157.950 185.678,158.459 185.364 C 158.755 185.181,158.815 185.251,158.625 185.559 C 158.455 185.835,158.645 186.334,159.066 186.721 C 159.473 187.095,160.060 187.895,160.370 188.500 C 160.681 189.105,161.060 189.600,161.213 189.600 C 161.366 189.600,162.011 190.360,162.646 191.288 C 163.281 192.216,164.475 193.678,165.300 194.536 C 166.125 195.394,166.800 196.263,166.800 196.466 C 166.800 196.933,168.788 198.945,169.020 198.713 C 169.114 198.619,168.869 198.195,168.476 197.771 C 168.082 197.347,167.415 196.415,166.994 195.700 C 166.572 194.985,166.108 194.400,165.962 194.400 C 165.816 194.400,165.473 193.860,165.200 193.200 C 164.927 192.540,164.472 192.000,164.189 192.000 C 163.873 192.000,163.739 191.653,163.842 191.100 C 163.934 190.605,163.895 190.446,163.756 190.746 C 163.572 191.143,163.193 190.929,162.366 189.960 C 161.665 189.139,161.392 188.529,161.652 188.368 C 162.207 188.025,161.253 186.471,160.301 186.169 C 159.886 186.037,159.600 185.549,159.600 184.973 L 159.600 184.000 173.400 184.000 L 187.200 184.000 187.256 185.100 C 187.287 185.705,187.433 191.510,187.580 198.000 C 187.735 204.819,187.880 185.368,187.924 151.924 C 187.974 113.853,188.137 93.963,188.400 93.800 C 188.620 93.664,188.800 92.926,188.800 92.160 C 188.800 90.861,189.875 88.224,190.937 86.918 C 192.152 85.423,193.772 84.000,194.259 84.000 C 194.557 84.000,194.800 83.820,194.800 83.600 C 194.800 83.380,195.340 83.200,196.000 83.200 C 196.660 83.200,197.200 83.020,197.200 82.800 C 197.200 82.572,198.392 82.400,199.976 82.400 C 201.503 82.400,202.864 82.580,203.000 82.800 C 203.136 83.020,203.687 83.200,204.224 83.200 C 204.761 83.200,205.200 83.380,205.200 83.600 C 205.200 83.820,205.441 84.000,205.736 84.000 C 206.418 84.000,210.000 87.361,210.000 88.000 C 210.000 88.263,210.255 89.046,210.566 89.740 C 211.693 92.246,211.744 94.732,211.970 157.467 C 212.193 219.297,212.257 222.313,213.307 221.245 C 213.699 220.846,213.677 220.769,213.200 220.871 C 212.465 221.029,212.179 207.298,212.618 192.900 L 212.889 184.000 226.545 184.006 C 234.670 184.010,240.443 184.169,240.800 184.400 C 241.200 184.658,241.233 184.790,240.900 184.794 C 240.625 184.797,240.400 185.081,240.400 185.424 C 240.400 185.767,240.265 185.970,240.100 185.876 C 239.607 185.595,238.210 187.325,238.063 188.400 C 237.918 189.458,236.918 190.826,236.392 190.684 C 236.221 190.638,236.080 190.780,236.080 191.000 C 236.080 191.220,236.261 191.349,236.482 191.286 C 236.703 191.223,236.460 191.691,235.942 192.325 C 235.310 193.099,234.889 193.334,234.662 193.039 C 234.453 192.768,234.406 192.856,234.538 193.271 C 234.656 193.640,234.493 194.157,234.176 194.420 C 233.859 194.683,233.600 195.079,233.600 195.300 C 233.600 195.810,236.625 192.559,237.507 191.100 C 237.873 190.495,238.326 190.000,238.513 190.000 C 238.701 190.000,238.740 189.595,238.601 189.100 C 238.432 188.499,238.469 188.374,238.712 188.724 C 238.989 189.121,239.358 188.896,240.238 187.793 C 240.877 186.993,241.805 185.911,242.300 185.387 C 242.795 184.864,243.200 184.234,243.200 183.987 C 243.200 183.740,243.920 182.846,244.800 182.000 C 245.680 181.154,246.400 180.290,246.400 180.080 C 246.400 179.869,247.120 178.955,248.000 178.048 C 248.880 177.141,249.600 176.141,249.600 175.826 C 249.600 175.512,249.960 175.140,250.400 175.000 C 250.840 174.860,251.200 174.528,251.200 174.261 C 251.200 173.995,251.560 173.517,251.999 173.201 C 252.528 172.820,252.722 172.350,252.573 171.812 C 252.420 171.261,252.463 171.165,252.707 171.515 C 252.980 171.907,253.247 171.788,253.828 171.015 C 254.247 170.457,254.789 170.000,255.033 170.000 C 255.277 170.000,255.802 169.640,256.200 169.200 C 256.598 168.760,257.245 168.400,257.638 168.400 C 258.031 168.400,258.464 168.220,258.600 168.000 C 258.736 167.780,260.457 167.600,262.424 167.600 C 264.541 167.600,266.000 167.763,266.000 168.000 C 266.000 168.220,266.272 168.400,266.605 168.400 C 268.535 168.400,273.200 173.184,273.200 175.162 C 273.200 175.623,273.380 176.000,273.600 176.000 C 274.125 176.000,274.125 181.475,273.600 181.800 C 273.380 181.936,273.200 182.487,273.200 183.024 C 273.200 183.561,273.020 184.000,272.800 184.000 C 272.580 184.000,272.400 184.248,272.400 184.552 C 272.400 184.855,271.680 185.845,270.800 186.752 C 269.920 187.659,269.200 188.605,269.200 188.854 C 269.200 189.102,268.811 189.643,268.336 190.056 C 267.861 190.468,267.606 190.939,267.770 191.103 C 268.137 191.468,269.600 189.732,269.600 188.932 C 269.600 188.596,269.794 188.473,270.062 188.638 C 270.337 188.808,270.415 188.749,270.256 188.491 C 269.930 187.964,271.406 187.433,272.064 187.840 C 272.373 188.031,272.456 187.923,272.305 187.529 C 272.178 187.198,272.235 186.674,272.431 186.364 C 272.716 185.913,272.789 185.946,272.794 186.529 C 272.800 187.199,272.851 187.206,273.446 186.611 C 273.899 186.158,274.021 185.580,273.853 184.682 C 273.630 183.484,273.653 183.451,274.207 184.176 C 274.533 184.604,274.800 184.739,274.800 184.476 C 274.800 184.110,289.239 184.000,337.410 184.000 L 400.019 184.000 399.910 113.533 C 399.823 57.594,399.697 43.032,399.300 42.900 C 399.013 42.804,398.800 42.064,398.800 41.167 C 398.800 40.305,398.620 39.600,398.400 39.600 C 398.180 39.600,398.000 39.060,398.000 38.400 C 398.000 37.740,397.820 37.200,397.600 37.200 C 397.380 37.200,397.200 36.660,397.200 36.000 C 397.200 35.340,397.020 34.800,396.800 34.800 C 396.580 34.800,396.400 34.440,396.400 34.000 C 396.400 33.560,396.220 33.200,396.000 33.200 C 395.780 33.200,395.600 32.840,395.600 32.400 C 395.600 31.960,395.420 31.600,395.200 31.600 C 394.980 31.600,394.800 31.240,394.800 30.800 C 394.800 30.360,394.620 30.000,394.400 30.000 C 394.180 30.000,394.000 29.640,394.000 29.200 C 394.000 28.760,393.820 28.400,393.600 28.400 C 393.380 28.400,393.200 28.130,393.200 27.800 C 393.200 27.470,393.020 27.200,392.800 27.200 C 392.580 27.200,392.400 26.840,392.400 26.400 C 392.400 25.960,392.242 25.600,392.049 25.600 C 391.855 25.600,391.464 25.037,391.179 24.348 C 390.893 23.660,390.242 22.678,389.730 22.166 C 389.219 21.655,388.800 21.051,388.800 20.825 C 388.800 20.353,380.102 11.600,379.633 11.600 C 379.360 11.600,378.742 11.146,376.917 9.607 C 376.651 9.383,376.196 9.200,375.905 9.200 C 375.614 9.200,375.117 8.840,374.800 8.400 C 374.483 7.960,373.993 7.600,373.712 7.600 C 373.430 7.600,373.200 7.420,373.200 7.200 C 373.200 6.980,372.840 6.800,372.400 6.800 C 371.960 6.800,371.600 6.620,371.600 6.400 C 371.600 6.180,371.240 6.000,370.800 6.000 C 370.360 6.000,370.000 5.820,370.000 5.600 C 370.000 5.380,369.640 5.200,369.200 5.200 C 368.760 5.200,368.400 5.020,368.400 4.800 C 368.400 4.580,368.040 4.400,367.600 4.400 C 367.160 4.400,366.800 4.220,366.800 4.000 C 366.800 3.780,366.440 3.600,366.000 3.600 C 365.560 3.600,365.200 3.420,365.200 3.200 C 365.200 2.980,364.660 2.800,364.000 2.800 C 363.340 2.800,362.800 2.620,362.800 2.400 C 362.800 2.180,362.260 2.000,361.600 2.000 C 360.940 2.000,360.400 1.820,360.400 1.600 C 360.400 1.380,359.806 1.200,359.080 1.200 C 358.354 1.200,357.535 0.975,357.260 0.700 C 356.791 0.231,50.464 -0.170,44.700 0.292 M131.200 190.823 C 130.685 191.175,130.695 191.217,131.274 191.117 C 131.644 191.053,131.915 191.090,131.875 191.200 C 131.645 191.839,134.334 194.888,134.848 194.570 C 135.006 194.473,135.257 194.947,135.405 195.625 C 135.587 196.452,135.859 196.786,136.233 196.643 C 136.590 196.506,137.372 197.286,138.410 198.814 C 139.301 200.127,140.214 201.200,140.439 201.200 C 140.663 201.200,140.748 201.361,140.626 201.558 C 140.504 201.755,140.683 202.023,141.023 202.154 C 141.442 202.314,141.546 202.231,141.346 201.895 C 140.683 200.782,139.323 199.021,138.071 197.652 C 137.339 196.853,136.445 195.705,136.084 195.099 C 135.723 194.494,135.106 193.897,134.713 193.773 C 134.321 193.648,134.000 193.280,134.000 192.955 C 134.000 192.463,132.304 190.386,131.918 190.406 C 131.853 190.409,131.530 190.597,131.200 190.823 M265.997 192.500 C 265.996 192.775,265.284 193.720,264.417 194.600 C 263.549 195.480,262.830 196.410,262.820 196.667 C 262.809 196.923,262.665 197.193,262.500 197.267 C 262.108 197.441,259.200 201.062,259.200 201.377 C 259.200 201.949,261.194 200.248,261.442 199.464 C 261.592 198.989,262.049 198.309,262.457 197.953 C 262.866 197.597,263.200 197.102,263.200 196.853 C 263.200 196.604,263.352 196.400,263.539 196.400 C 264.021 196.400,265.600 194.977,265.600 194.542 C 265.600 194.342,265.968 193.863,266.417 193.478 C 266.866 193.093,267.126 192.603,266.993 192.389 C 266.651 191.835,266.001 191.907,265.997 192.500 M232.100 196.625 C 231.825 196.923,231.600 197.332,231.600 197.534 C 231.600 197.736,231.330 198.126,231.000 198.400 C 230.670 198.674,230.400 199.064,230.400 199.267 C 230.400 199.626,231.672 198.453,232.719 197.128 C 233.355 196.324,232.797 195.870,232.100 196.625 M170.106 200.610 C 170.901 201.837,171.600 202.387,171.600 201.786 C 171.600 201.307,170.313 199.652,169.782 199.448 C 169.404 199.303,169.513 199.695,170.106 200.610 M229.200 200.536 C 228.528 201.074,227.472 202.800,227.815 202.800 C 227.937 202.800,228.491 202.345,229.048 201.789 C 230.110 200.727,230.233 199.709,229.200 200.536 M258.104 202.594 C 257.831 202.904,257.750 203.246,257.924 203.353 C 258.098 203.460,258.457 203.200,258.723 202.774 C 259.280 201.883,258.842 201.756,258.104 202.594 M142.400 203.829 C 142.400 204.253,143.636 205.297,143.867 205.067 C 143.992 204.941,143.817 204.560,143.476 204.219 C 142.841 203.584,142.400 203.424,142.400 203.829 M256.400 204.599 C 255.637 206.026,256.080 206.184,256.889 204.774 C 257.260 204.128,257.422 203.600,257.249 203.600 C 257.076 203.600,256.694 204.050,256.400 204.599 M225.340 205.474 C 224.713 206.313,223.975 207.238,223.700 207.529 C 223.425 207.819,223.200 208.224,223.200 208.429 C 223.200 208.633,222.930 208.800,222.600 208.800 C 222.253 208.800,222.000 209.162,222.000 209.658 C 222.000 210.333,222.309 210.101,223.461 208.558 C 224.265 207.481,225.377 206.107,225.932 205.504 C 226.487 204.901,226.838 204.305,226.711 204.178 C 226.584 204.051,225.968 204.634,225.340 205.474 M174.000 205.307 C 174.000 205.672,176.053 207.680,176.238 207.495 C 176.323 207.411,175.854 206.826,175.196 206.196 C 174.538 205.566,174.000 205.166,174.000 205.307 M253.660 207.851 C 253.143 208.402,252.823 208.956,252.950 209.083 C 253.190 209.323,254.763 207.624,254.787 207.100 C 254.806 206.669,254.707 206.735,253.660 207.851 M177.200 209.157 C 177.200 209.354,177.695 210.054,178.300 210.713 C 178.905 211.372,179.985 212.684,180.700 213.628 C 181.415 214.573,182.000 215.195,182.000 215.010 C 182.000 214.826,181.518 214.029,180.928 213.238 C 179.294 211.047,177.200 208.754,177.200 209.157 M250.864 211.389 C 250.169 212.153,249.600 212.873,249.600 212.989 C 249.600 213.104,248.880 213.963,248.000 214.897 C 247.120 215.831,246.400 216.811,246.400 217.075 C 246.400 217.339,246.074 217.790,245.676 218.077 C 245.277 218.365,244.811 218.870,244.640 219.200 C 244.291 219.870,245.420 218.634,249.844 213.500 C 252.706 210.178,253.544 208.445,250.864 211.389 M148.813 211.316 C 148.794 211.781,150.496 214.000,150.871 214.000 C 151.048 214.000,150.927 213.685,150.604 213.300 C 150.280 212.915,149.747 212.240,149.420 211.800 C 149.093 211.360,148.820 211.142,148.813 211.316 M219.419 212.850 C 218.841 213.538,218.464 214.197,218.582 214.315 C 218.815 214.548,220.799 212.389,220.800 211.900 C 220.800 211.364,220.490 211.578,219.419 212.850 M151.693 215.200 C 152.162 215.951,152.800 216.280,152.800 215.771 C 152.800 215.473,151.725 214.400,151.425 214.400 C 151.298 214.400,151.418 214.760,151.693 215.200 M182.871 216.378 C 183.476 217.496,185.208 219.397,185.185 218.918 C 185.177 218.743,184.534 217.880,183.756 217.000 C 182.930 216.066,182.562 215.807,182.871 216.378 M153.927 217.838 C 154.611 218.740,155.492 219.727,155.885 220.032 C 156.745 220.699,155.710 219.372,153.842 217.414 C 152.703 216.220,152.704 216.227,153.927 217.838 M186.246 220.615 C 187.037 221.821,187.763 221.713,187.896 220.369 L 187.992 219.400 187.555 220.400 L 187.117 221.400 186.698 220.500 C 186.467 220.005,186.121 219.600,185.930 219.600 C 185.738 219.600,185.881 220.057,186.246 220.615 M157.200 222.000 C 158.298 223.542,158.558 223.543,157.681 222.003 C 157.307 221.344,156.853 220.804,156.673 220.803 C 156.493 220.801,156.730 221.340,157.200 222.000 M159.293 224.800 C 159.762 225.551,160.400 225.880,160.400 225.371 C 160.400 225.073,159.325 224.000,159.025 224.000 C 158.898 224.000,159.018 224.360,159.293 224.800 M230.100 236.999 C 229.106 238.534,228.924 239.146,229.705 238.329 C 230.553 237.442,231.638 235.600,231.309 235.605 C 231.139 235.608,230.595 236.235,230.100 236.999 M171.200 239.077 C 171.200 239.296,171.560 239.802,172.000 240.200 C 172.440 240.598,172.800 240.834,172.800 240.723 C 172.800 240.613,172.440 240.107,172.000 239.600 C 171.560 239.093,171.200 238.857,171.200 239.077 M174.413 243.056 C 174.431 243.544,175.557 244.976,175.761 244.771 C 175.855 244.677,175.587 244.175,175.166 243.656 C 174.745 243.136,174.406 242.866,174.413 243.056 M218.200 251.746 C 217.078 253.050,216.735 253.599,217.051 253.587 C 217.441 253.573,218.958 251.620,218.739 251.413 C 218.663 251.340,218.420 251.490,218.200 251.746 M188.602 260.802 C 189.002 261.244,189.411 261.522,189.512 261.421 C 189.728 261.205,188.588 260.000,188.167 260.000 C 188.007 260.000,188.203 260.361,188.602 260.802 " stroke="none" fill="#1cb4d4" fill-rule="evenodd"></path><path id="path4" d="M2.400 362.200 C 2.400 362.530,2.580 362.800,2.800 362.800 C 3.020 362.800,3.200 362.530,3.200 362.200 C 3.200 361.870,3.020 361.600,2.800 361.600 C 2.580 361.600,2.400 361.870,2.400 362.200 M4.500 363.357 C 4.885 363.649,5.197 364.138,5.194 364.444 C 5.189 364.908,5.131 364.911,4.844 364.457 C 4.604 364.079,4.417 364.049,4.226 364.357 C 4.076 364.601,4.075 364.800,4.225 364.800 C 4.375 364.800,4.290 365.051,4.035 365.358 C 3.680 365.786,3.691 365.911,4.086 365.895 C 5.364 365.843,6.028 366.031,5.811 366.383 C 5.681 366.593,5.310 366.664,4.987 366.540 C 4.664 366.416,4.400 366.499,4.400 366.725 C 4.400 367.341,5.752 369.595,6.124 369.597 C 6.302 369.599,6.344 369.768,6.217 369.972 C 6.091 370.177,6.170 370.458,6.393 370.596 C 6.617 370.734,6.800 371.207,6.800 371.647 C 6.800 372.087,6.980 372.336,7.200 372.200 C 7.420 372.064,7.600 372.323,7.600 372.776 C 7.600 373.229,7.738 373.600,7.906 373.600 C 8.074 373.600,8.505 374.275,8.863 375.100 C 9.222 375.925,9.985 377.104,10.558 377.721 C 11.131 378.337,11.600 379.132,11.600 379.487 C 11.600 379.843,11.704 380.029,11.832 379.901 C 11.960 379.773,12.725 380.416,13.532 381.329 C 15.460 383.509,20.526 388.388,20.869 388.395 C 21.017 388.398,21.654 388.895,22.283 389.500 C 23.650 390.813,24.965 391.600,25.795 391.600 C 26.128 391.600,26.400 391.747,26.400 391.926 C 26.400 392.551,35.547 397.200,36.777 397.200 C 37.204 397.200,37.664 397.380,37.800 397.600 C 37.936 397.820,38.577 398.000,39.224 398.000 C 39.871 398.000,40.400 398.180,40.400 398.400 C 40.400 398.620,40.940 398.800,41.600 398.800 C 42.260 398.800,42.800 398.950,42.800 399.133 C 42.800 399.317,43.025 399.525,43.300 399.596 C 44.781 399.979,351.921 399.967,354.522 399.585 C 356.105 399.352,358.074 399.061,358.898 398.939 C 359.722 398.816,360.296 398.555,360.174 398.358 C 360.052 398.161,360.493 398.000,361.153 398.000 C 361.813 398.000,362.464 397.820,362.600 397.600 C 362.736 397.380,363.197 397.200,363.624 397.200 C 364.051 397.200,364.400 397.020,364.400 396.800 C 364.400 396.580,364.805 396.396,365.300 396.391 C 365.795 396.386,366.650 396.030,367.200 395.600 C 367.750 395.170,368.605 394.814,369.100 394.809 C 369.595 394.804,370.000 394.620,370.000 394.400 C 370.000 394.180,370.225 393.996,370.500 393.991 C 370.775 393.986,371.450 393.630,372.000 393.200 C 372.550 392.770,373.249 392.414,373.553 392.409 C 373.857 392.404,374.397 392.073,374.753 391.672 C 375.414 390.929,376.761 390.222,377.300 390.336 C 377.465 390.371,377.600 390.119,377.600 389.776 C 377.600 389.433,377.780 389.264,378.000 389.400 C 378.220 389.536,378.400 389.380,378.400 389.053 C 378.400 388.726,378.654 388.400,378.964 388.329 C 379.766 388.145,385.600 382.800,385.600 382.248 C 385.600 381.996,386.050 381.452,386.600 381.039 C 387.150 380.626,387.600 380.033,387.600 379.720 C 387.600 379.408,387.780 379.264,388.000 379.400 C 388.220 379.536,388.400 379.400,388.400 379.098 C 388.400 378.797,388.934 378.038,389.586 377.414 C 390.238 376.789,390.691 376.148,390.593 375.989 C 390.495 375.831,390.862 375.365,391.408 374.955 C 391.953 374.546,392.400 373.913,392.400 373.551 C 392.400 372.701,393.410 370.744,393.700 371.033 C 393.821 371.155,394.045 370.518,394.197 369.619 C 394.349 368.720,394.682 367.756,394.936 367.477 C 396.076 366.229,396.457 365.150,395.966 364.559 C 395.576 364.089,395.609 364.028,396.143 364.234 C 396.521 364.378,396.800 364.287,396.800 364.019 C 396.800 363.763,396.619 363.665,396.397 363.802 C 396.176 363.939,395.886 363.769,395.754 363.425 C 395.537 362.859,376.920 362.801,199.657 362.813 C 36.717 362.823,3.918 362.915,4.500 363.357 M395.328 364.900 C 395.043 366.723,394.800 366.800,394.800 365.067 C 394.800 364.260,394.964 363.600,395.165 363.600 C 395.366 363.600,395.439 364.185,395.328 364.900 " stroke="none" fill="#57c4bc" fill-rule="evenodd"></path></g></svg>