<?xml version="1.0" standalone="no"?>
<svg version="1.0" xmlns="http://www.w3.org/2000/svg"
 width="1em" height="1em" viewBox="0 0 512.000000 512.000000"
 fill="currentColor"
 preserveAspectRatio="xMidYMid meet">

<g transform="translate(0.000000,512.000000) scale(0.100000,-0.100000)" stroke="none">
<path d="M2330 5105 c-418 -49 -789 -204 -1111 -463 -101 -81 -269 -257 -351
-367 -483 -647 -562 -1498 -208 -2213 76 -153 169 -297 265 -411 35 -42 417
-429 849 -861 l786 -785 786 785 c432 432 814 819 849 861 320 380 503 914
482 1407 -3 74 -7 135 -9 137 -2 2 -67 -2 -143 -10 -77 -8 -148 -15 -157 -15
-16 0 -18 -15 -18 -165 0 -423 -135 -812 -394 -1130 -35 -44 -364 -379 -730
-745 l-666 -665 -689 690 c-435 437 -709 719 -745 768 -240 329 -356 680 -356
1077 0 486 180 921 525 1265 342 343 784 525 1268 525 210 0 385 -29 587 -96
104 -35 299 -132 397 -198 46 -31 85 -56 88 -56 4 0 173 221 189 247 10 18
-182 142 -339 219 -357 173 -771 245 -1155 199z"/>
<path d="M3977 4349 l-117 -111 40 -47 c23 -25 64 -77 92 -114 33 -45 55 -66
65 -63 8 3 68 42 134 87 75 51 118 86 115 95 -8 21 -111 155 -163 212 l-48 53
-118 -112z"/>
<path d="M1845 3744 c-385 -338 -700 -618 -700 -623 0 -10 196 -239 205 -240
3 -1 55 43 115 96 l110 96 3 -606 2 -607 980 0 980 0 2 607 3 606 110 -96 c61
-53 113 -96 116 -94 11 4 204 229 204 238 0 13 -1403 1239 -1417 1238 -7 0
-328 -277 -713 -615z m1046 -99 l319 -280 0 -592 0 -593 -650 0 -650 0 0 593
0 594 322 281 c178 155 327 281 332 279 4 -1 152 -129 327 -282z"/>
<path d="M4343 3812 c-79 -36 -143 -71 -143 -77 0 -7 11 -37 24 -67 13 -29 34
-86 45 -126 15 -50 27 -72 38 -72 16 0 282 69 294 76 12 7 -89 304 -110 325
-3 4 -70 -23 -148 -59z"/>
</g>
</svg>
