<svg version="1.0" xmlns="http://www.w3.org/2000/svg"
 width="1em" height="1em" fill="currentColor" viewBox="0 0 512.000000 512.000000"
 preserveAspectRatio="xMidYMid meet">
<g transform="translate(0.000000,512.000000) scale(0.100000,-0.100000)" stroke="none">
<path d="M1077 4956 c-83 -30 -146 -92 -182 -178 -13 -33 -15 -193 -15 -1396
l0 -1359 -69 -5 c-85 -6 -144 -37 -186 -96 l-30 -44 -3 -449 c-2 -312 1 -462
9 -491 14 -54 79 -119 136 -136 22 -6 63 -12 91 -12 l51 0 3 -218 c3 -203 4
-220 26 -259 28 -54 81 -107 135 -135 l42 -23 1600 -3 c1786 -3 1651 -8 1739
69 25 22 57 65 73 97 l28 57 3 1690 2 1689 -607 608 -608 608 -1100 0 c-900
-1 -1107 -3 -1138 -14z m2145 -588 l3 -483 27 -50 c34 -64 90 -118 153 -147
50 -23 54 -23 528 -26 l477 -3 0 -1607 c0 -1091 -3 -1619 -11 -1645 -13 -47
-63 -106 -106 -123 -27 -12 -304 -14 -1590 -14 l-1557 0 -44 21 c-26 13 -54
38 -70 62 -27 40 -27 43 -30 239 l-3 198 824 0 c926 0 892 -3 966 71 69 69 71
86 71 541 0 274 -4 414 -12 446 -16 65 -95 144 -160 160 -34 9 -270 12 -868
12 l-820 0 2 1353 3 1353 27 41 c15 23 44 49 70 62 l43 21 1037 0 1037 0 3
-482z m971 -576 c-65 -1 -256 -1 -424 0 l-306 3 -36 25 c-22 14 -48 46 -62 74
l-25 50 0 410 0 411 485 -485 485 -485 -117 -3z m-1515 -1916 c57 -29 57 -33
57 -477 0 -398 0 -408 -21 -436 -41 -55 -21 -54 -1020 -51 l-924 3 -27 28 -28
27 0 436 0 436 28 24 28 24 940 0 c791 0 944 -2 967 -14z"/>
<path d="M1702 3414 c-24 -16 -29 -53 -12 -85 10 -18 27 -19 528 -19 390 0
521 3 530 12 7 7 12 27 12 44 0 65 11 64 -540 64 -432 0 -498 -2 -518 -16z"/>
<path d="M1697 2972 c-19 -21 -22 -54 -7 -83 10 -19 32 -19 1010 -19 l999 0
15 22 c21 30 20 54 -4 78 -20 20 -33 20 -1008 20 -945 0 -990 -1 -1005 -18z"/>
<path d="M1697 2532 c-21 -23 -22 -66 -1 -86 14 -14 119 -16 1009 -16 l994 0
15 22 c21 30 20 54 -4 78 -20 20 -33 20 -1008 20 -945 0 -990 -1 -1005 -18z"/>
<path d="M1282 1418 l3 -223 152 -3 152 -3 7 25 c14 58 8 61 -114 64 l-112 3
0 179 0 180 -45 0 -45 0 2 -222z"/>
<path d="M1650 1414 l0 -225 43 3 42 3 3 223 2 222 -45 0 -45 0 0 -226z"/>
<path d="M1832 1418 l3 -223 135 0 c114 0 139 3 162 18 56 38 74 126 38 185
-19 30 -19 35 -5 55 8 12 15 41 15 64 0 35 -6 50 -34 81 l-34 37 -141 3 -141
4 2 -224z m248 -58 c11 -11 20 -24 20 -30 0 -5 -9 -19 -20 -30 -16 -16 -33
-20 -90 -20 l-70 0 0 50 0 50 70 0 c57 0 74 -4 90 -20z"/>
</g>
</svg>
