<svg version="1.1" id="Cliente" xmlns="http://www.w3.org/2000/svg"  
	 width="1em"
	 height="1em"
	 fill="currentColor" 
	 viewBox="0 0 678.13 681.19">
<g>
	<g>
		<path class="st0" d="M666.62,385.16c0,79.83,0.03,159.67-0.01,239.5c-0.02,34.33-14.62,48.79-49.22,48.79
			c-144.05,0.02-288.1,0.02-432.15,0c-31.77,0-45.69-14.06-45.81-46.14c-0.06-16.05,0.04-32.11-0.04-48.16
			c-0.1-19.9-0.99-20.8-20.3-20.83c-24.3-0.04-48.6,0.15-72.89-0.07c-23.3-0.22-31.02-8.17-31.05-31.69
			c-0.07-54.67-0.08-109.34,0-164.01c0.03-21.86,7.43-29.9,29.62-30.42c26.45-0.62,52.95-0.75,79.39,0.02
			c11,0.32,14.04-3.15,13.99-13.89c-0.36-83.3-0.23-166.61-0.14-249.92c0.01-7.35,0.35-14.76,1.31-22.04
			c2.85-21.49,17.81-35.16,39.53-35.41c33.84-0.38,67.68-0.14,101.53-0.14c82.87-0.01,165.75,0.32,248.61-0.29
			c14.97-0.11,25.96,3.65,36.54,14.76c29.61,31.1,60.28,61.21,90.98,91.24c7.47,7.31,10.31,14.99,10.27,25.28
			C666.49,222.89,666.62,304.03,666.62,385.16z M637.87,388.38c0-73.34-0.19-146.68,0.2-220.02c0.06-11.69-3.29-16.31-15.55-15.8
			c-20.79,0.86-41.65,0.32-62.48,0.21c-25.09-0.14-35.62-10.13-36.55-35.29c-0.53-14.3-0.18-28.64-0.19-42.96
			c-0.01-36.3,0-36.29-36.27-36.3c-91.57-0.01-183.14-0.03-274.71-0.02c-32.88,0-45.49,12.63-45.51,45.76
			c-0.05,77.25,0.21,154.5-0.28,231.74c-0.08,12.35,1.94,16.73,16.1,16.63c110.22-0.78,220.46-0.54,330.68-0.36
			c26.6,0.04,33.54,7.56,33.57,34.57c0.04,51.64,0.01,103.29,0.01,154.93c0,30.3-6.41,36.82-36.54,36.83
			c-107.19,0.02-214.38,0.01-321.57,0.01c-3.91,0-7.81,0.13-11.72,0.07c-7.03-0.11-10.3,3.25-10.22,10.31
			c0.12,10.41-0.03,20.83-0.02,31.25c0.03,33.67,12.55,46.1,46.52,46.11c126.72,0.03,253.44,0.03,380.16,0.02
			c31.23,0,44.32-12.93,44.36-44.16C637.94,530.72,637.88,459.55,637.87,388.38z M228.97,445.68c0,18.65,0.19,37.31-0.08,55.96
			c-0.13,8.83,3.55,12.64,12.39,12.47c16.91-0.31,33.86,0.31,50.75-0.41c22.55-0.97,40.56-15.17,47.28-36.53
			c5.86-18.65,5.94-37.83,1.87-56.61c-6.41-29.59-25.28-44.04-55.57-44.31c-14.32-0.12-28.65,0.35-42.94-0.15
			c-10.02-0.35-14.11,3.44-13.86,13.63C229.28,408.37,228.94,427.03,228.97,445.68z M96.3,443.8c0,19.09,0.26,38.19-0.11,57.28
			c-0.18,9.47,3.6,13.07,13.09,13.14c10,0.07,12.93-4.57,12.51-13.59c-0.36-7.79,0.41-15.65-0.17-23.42
			c-0.86-11.51,3.15-16.67,15.46-16.13c10.31,0.46,20.8-0.76,31.08-2.22c20.97-2.97,35.06-21.17,33.64-42.57
			c-1.59-24.12-15.37-38.96-37.93-39.74c-18.2-0.63-36.45,0.02-54.66-0.45c-9.51-0.24-13.25,3.53-13.04,13.03
			C96.58,407.34,96.29,425.58,96.3,443.8z M372.09,445.67c0.02,0,0.04,0,0.06,0c0,19.08,0.13,38.16-0.06,57.24
			c-0.1,9.71,5.65,11.21,13.58,11.21c8.01,0,12.1-2.91,11.92-11.43c-0.25-12.57,0.16-25.15,0.02-37.72
			c-0.08-7.68,3.5-11.1,11.02-11.04c9.97,0.07,19.97,0.41,29.91-0.2c7.34-0.45,18.13,3.89,18.47-9.71
			c0.34-13.64-10.32-10.02-17.83-10.37c-9.95-0.46-19.94-0.28-29.92-0.13c-8.12,0.13-12.11-3.41-11.67-11.72
			c0.2-3.89,0.28-7.83-0.05-11.7c-0.89-10.35,4.17-13.83,13.94-13.56c13.87,0.39,27.75-0.04,41.63,0.1
			c7.46,0.07,12.71-1.53,12.5-10.69c-0.19-8.56-5.38-9.74-12.13-9.72c-22.98,0.06-45.97,0.29-68.95-0.09
			c-9.97-0.16-12.69,4.63-12.55,13.6C372.3,408.37,372.09,427.02,372.09,445.67z M552.53,55.76c0,15.35-0.87,31.29,0.28,47.08
			c0.88,12.1,9.51,20.33,21.1,21.48c15.61,1.55,31.49,0.38,49.82,0.38C598.9,100.66,576.05,78.54,552.53,55.76z"/>
		<path class="st0" d="M318.22,446.36c-0.77,6.44-1.1,12.97-2.38,19.3c-3.83,18.92-13.07,26.76-32.09,27.85
			c-29.42,1.69-29.42,1.69-29.42-27.7c0-18.64,0.3-37.3-0.1-55.93c-0.2-9.37,3.38-12.99,12.85-13.43
			C304.74,394.73,317.68,407.22,318.22,446.36z"/>
		<path class="st0" d="M141.34,439.69c-19.64-0.24-19.66-0.24-19.63-20.3c0.01-4.77,0.07-9.54,0.26-14.3
			c0.15-3.76,1.61-7.26,5.65-7.64c12.5-1.18,25.25-2.84,37.02,3.11c7.77,3.93,10.47,11.31,9.8,19.73
			c-0.74,9.38-6.49,15.16-15.09,17.44C153.58,439.26,147.36,439.1,141.34,439.69z"/>
	</g>
</g>
</svg>
