<svg version="1.0" xmlns="http://www.w3.org/2000/svg"
 width="1em" height="1em" fill="currentColor" viewBox="0 0 512.000000 512.000000"
 preserveAspectRatio="xMidYMid meet">
<g transform="translate(0.000000,512.000000) scale(0.100000,-0.100000)"
 stroke="none">
<path d="M705 5104 c-343 -75 -622 -359 -691 -703 -20 -104 -15 -323 11 -416
22 -79 83 -208 133 -282 112 -165 309 -303 512 -360 93 -25 367 -25 460 0 203
57 400 195 512 360 51 76 111 203 135 287 25 93 25 367 0 460 -57 203 -195
400 -360 512 -74 50 -202 111 -282 133 -86 24 -337 30 -430 9z m355 -209 c36
-9 103 -34 150 -57 69 -34 102 -59 175 -133 74 -73 99 -106 133 -175 53 -108
72 -190 72 -310 0 -120 -19 -202 -72 -310 -34 -69 -59 -102 -133 -175 -73 -74
-106 -99 -175 -133 -108 -53 -190 -72 -310 -72 -120 0 -202 19 -310 72 -69 34
-102 59 -175 133 -74 73 -99 106 -133 175 -53 108 -72 190 -72 310 0 120 19
202 72 310 34 69 59 102 133 175 143 144 282 203 480 204 57 0 128 -6 165 -14z"/>
<path d="M613 4583 c-29 -6 -70 -48 -75 -78 -10 -52 5 -80 105 -182 l100 -103
-100 -103 c-100 -102 -115 -130 -105 -182 6 -32 45 -71 77 -77 52 -10 80 5
182 105 l103 100 103 -100 c102 -100 130 -115 182 -105 32 6 71 45 77 77 10
52 -5 80 -105 182 l-100 103 100 103 c100 102 115 130 105 182 -6 32 -45 71
-77 77 -52 10 -80 -5 -182 -105 l-103 -100 -104 101 c-58 56 -111 102 -120
102 -8 0 -20 2 -28 4 -7 2 -23 1 -35 -1z"/>
<path d="M4025 5104 c-343 -75 -622 -359 -691 -703 -20 -104 -15 -323 11 -416
22 -79 83 -208 133 -282 112 -165 309 -303 512 -360 93 -25 367 -25 460 0 203
57 400 195 512 360 51 76 111 203 135 287 25 93 25 367 0 460 -57 203 -195
400 -360 512 -74 50 -202 111 -282 133 -86 24 -337 30 -430 9z m355 -209 c36
-9 103 -34 150 -57 69 -34 102 -59 175 -133 74 -73 99 -106 133 -175 53 -108
72 -190 72 -310 0 -120 -19 -202 -72 -310 -34 -69 -59 -102 -133 -175 -73 -74
-106 -99 -175 -133 -108 -53 -190 -72 -310 -72 -120 0 -202 19 -310 72 -69 34
-102 59 -175 133 -74 73 -99 106 -133 175 -53 108 -72 190 -72 310 0 120 19
202 72 310 34 69 59 102 133 175 143 144 282 203 480 204 57 0 128 -6 165 -14z"/>
<path d="M4565 4575 c-16 -9 -131 -117 -255 -241 l-225 -224 -90 91 c-50 50
-102 97 -117 105 -56 29 -118 11 -143 -43 -31 -64 -19 -84 148 -250 83 -83
162 -154 175 -158 58 -17 78 -1 359 278 150 149 280 286 289 305 43 92 -52
184 -141 137z"/>
<path d="M2262 4269 c-147 -24 -257 -137 -282 -290 -11 -69 -14 -526 -4 -578
11 -51 49 -81 104 -81 42 0 52 4 74 31 l26 31 0 271 c0 154 5 288 10 309 6 20
26 50 46 67 29 26 43 31 84 31 43 0 56 -5 86 -32 22 -21 38 -48 44 -73 6 -23
10 -389 10 -843 l0 -804 29 -29 c41 -41 101 -41 142 0 l29 29 0 324 c0 332 5
383 38 427 49 66 157 63 209 -6 l28 -36 5 -360 5 -359 28 -24 c41 -35 97 -33
139 5 l33 29 5 284 c6 314 5 310 73 348 69 39 150 7 181 -70 13 -34 16 -85 16
-301 l0 -261 29 -29 c41 -41 98 -41 143 0 l33 29 5 194 c6 215 10 232 75 262
46 22 86 20 126 -7 70 -46 69 -41 69 -532 0 -720 -8 -776 -196 -1378 l-27 -87
-194 0 c-192 0 -194 0 -218 -24 -45 -45 -45 -107 0 -152 l24 -24 241 0 240 0
0 -180 0 -180 -895 0 -895 0 0 180 0 180 289 0 288 0 27 26 c37 38 37 110 0
148 l-27 26 -211 1 -211 0 -135 185 c-261 359 -306 433 -359 590 -34 101 -211
849 -211 891 0 108 125 179 216 122 38 -23 57 -53 229 -372 64 -120 127 -227
138 -238 34 -31 102 -26 138 10 l29 29 0 345 0 345 -26 31 c-22 27 -32 31 -72
31 -84 -1 -105 -32 -112 -168 l-5 -107 -45 84 c-58 109 -104 160 -180 200
-108 58 -255 52 -360 -14 -55 -35 -117 -110 -140 -171 -37 -100 -30 -153 75
-592 110 -456 129 -520 195 -658 53 -112 82 -158 247 -384 l113 -155 -29 -8
c-16 -4 -39 -19 -50 -33 -20 -26 -21 -39 -21 -346 l0 -320 29 -29 29 -29 1044
0 1044 0 23 21 c12 11 26 32 32 46 5 13 9 155 9 314 0 230 -3 297 -14 324 -8
19 -19 35 -23 35 -4 0 -16 7 -25 14 -16 12 -15 21 23 142 156 498 173 638 167
1379 l-3 450 -28 60 c-77 165 -257 244 -423 187 l-51 -18 -26 47 c-30 55 -94
110 -163 141 -65 29 -188 31 -254 5 l-45 -19 -15 24 c-85 131 -243 194 -387
155 l-52 -14 -3 366 -3 366 -26 55 c-31 65 -87 123 -150 155 -40 21 -64 27
-144 39 -11 2 -44 -1 -73 -5z"/>
<path d="M2010 3103 c-43 -41 -45 -105 -5 -146 68 -67 175 -24 175 70 0 93
-102 138 -170 76z"/>
<path d="M2826 734 c-21 -21 -26 -36 -26 -74 0 -66 34 -100 100 -100 66 0 100
34 100 100 0 38 -5 53 -26 74 -38 37 -110 37 -148 0z"/>
</g>
</svg>
