<svg version="1.1" id="Cliente" xmlns="http://www.w3.org/2000/svg"  
	 viewBox="0 0 678.13 681.19"
	 width="1em"
	 height="1em"
	 fill="currentColor"
	 >
<g>
	<path class="st0" d="M511.36,647.49h-50.05V456.05c0-62.76-51.06-113.82-113.83-113.82c-62.76,0-113.82,51.06-113.82,113.82v191.44
		h-50.05V456.05c0-90.36,73.51-163.88,163.87-163.88c90.36,0,163.88,73.52,163.88,163.88V647.49z"/>
	<path class="st0" d="M347.49,260.97c-62.66,0-113.64-50.98-113.64-113.64c0-62.66,50.98-113.63,113.64-113.63
		c62.66,0,113.64,50.98,113.64,113.63C461.13,209.99,410.15,260.97,347.49,260.97 M347.49,83.75c-35.06,0-63.58,28.52-63.58,63.58
		c0,35.06,28.52,63.59,63.58,63.59c35.06,0,63.58-28.53,63.58-63.59C411.07,112.27,382.55,83.75,347.49,83.75"/>
</g>
</svg>
