<svg version="1.1" id="AccountState" xmlns="http://www.w3.org/2000/svg"
 width="1em"
 height="1em"
 fill="currentColor"
 viewBox="0 0 512.000000 512.000000">

<g>
<path d="M1296 5110 c-38 -12 -75 -47 -92 -87 -12 -27 -14 -358 -14 -2015 0
-1868 1 -1985 18 -2018 9 -19 32 -45 51 -57 l34 -23 510 0 509 0 -6 26 c-19
75 -36 233 -36 339 0 399 157 783 440 1079 105 109 189 180 297 249 287 184
634 269 967 238 210 -20 362 -62 554 -152 l102 -48 -2 1189 c-3 1183 -3 1189
-24 1216 -11 15 -33 37 -48 48 -27 21 -28 21 -1629 23 -884 1 -1615 -2 -1631
-7z m2660 -616 c94 -70 96 -190 5 -251 l-34 -23 -1014 0 c-1104 0 -1046 -3
-1092 56 -60 77 -19 205 75 234 16 5 480 8 1031 7 995 -2 1002 -2 1029 -23z
m0 -600 c94 -70 96 -190 5 -251 l-34 -23 -1014 0 c-1104 0 -1046 -3 -1092 56
-60 77 -19 205 75 234 16 5 480 8 1031 7 995 -2 1002 -2 1029 -23z m0 -600
c94 -70 96 -190 5 -251 l-34 -23 -1014 0 c-1104 0 -1046 -3 -1092 56 -60 77
-19 205 75 234 16 5 480 8 1031 7 995 -2 1002 -2 1029 -23z m-1495 -585 c98
-33 133 -145 74 -236 -32 -49 -62 -53 -360 -53 -299 0 -312 2 -354 56 -60 77
-19 205 75 234 45 13 525 12 565 -1z"/>
<path d="M370 4619 c-78 -13 -172 -62 -233 -122 -94 -94 -137 -206 -137 -359
l0 -88 450 0 450 0 0 88 c0 153 -43 265 -137 359 -63 62 -154 108 -243 122
-73 12 -74 12 -150 0z"/>
<path d="M0 2830 l0 -920 450 0 450 0 0 920 0 920 -450 0 -450 0 0 -920z"/>
<path d="M3706 2540 c-486 -56 -900 -387 -1064 -850 -81 -231 -91 -458 -32
-715 116 -501 496 -861 1004 -952 122 -22 342 -21 466 1 446 80 804 378 954
796 173 481 72 975 -273 1333 -235 244 -528 376 -866 391 -60 2 -145 1 -189
-4z m230 -421 c39 -37 54 -72 54 -132 l0 -54 74 -37 c118 -58 193 -154 216
-276 23 -122 -38 -210 -147 -210 -67 0 -143 67 -143 127 0 71 -73 118 -171
111 -75 -5 -113 -37 -113 -94 0 -51 32 -74 174 -125 157 -57 243 -102 301
-156 192 -180 129 -518 -115 -624 l-56 -24 0 -50 c-1 -73 -30 -129 -79 -154
-49 -26 -95 -27 -141 -3 -55 27 -80 74 -80 146 l0 62 -62 29 c-88 40 -177 131
-207 210 -31 81 -33 174 -5 211 38 51 71 69 129 69 83 0 130 -46 152 -150 7
-34 15 -43 53 -62 52 -27 136 -31 180 -8 37 19 56 72 38 110 -15 32 -52 52
-210 110 -145 54 -197 82 -261 144 -62 58 -94 122 -106 206 -25 175 63 340
218 411 l59 27 5 64 c5 71 23 105 70 134 46 29 136 23 173 -12z"/>
<path d="M53 1598 c142 -346 272 -647 285 -661 56 -63 168 -63 224 0 13 14
143 315 285 661 4 9 -79 12 -397 12 -318 0 -401 -3 -397 -12z"/>
</g>
</svg>
