<svg version="1.0" xmlns="http://www.w3.org/2000/svg"
    width="1em"
	height="1em"
	fill="currentColor" viewBox="0 0 512.000000 512.000000"
 preserveAspectRatio="xMidYMid meet">

<g transform="translate(0.000000,512.000000) scale(0.100000,-0.100000)"
 stroke="none">
<path d="M501 5105 c-110 -24 -226 -89 -311 -175 -250 -250 -252 -649 -5 -895
122 -121 256 -183 419 -192 292 -16 560 170 649 452 31 99 31 271 0 370 -101
318 -428 510 -752 440z m285 -226 c111 -42 190 -115 239 -222 118 -257 -42
-552 -324 -598 -225 -36 -444 127 -482 360 -28 176 73 366 236 442 110 52 223
58 331 18z"/>
<path d="M1922 5101 c-29 -10 -70 -32 -90 -48 -47 -37 -99 -113 -112 -164 -7
-25 -10 -178 -8 -432 3 -387 3 -393 26 -435 35 -66 88 -119 150 -149 l57 -28
1470 0 1470 0 63 34 c70 38 100 69 140 145 l27 51 0 405 0 405 -27 51 c-40 76
-70 107 -140 145 l-63 34 -1455 2 c-1390 2 -1457 2 -1508 -16z m2923 -207 c63
-29 65 -44 65 -414 0 -282 -2 -337 -16 -365 -33 -69 69 -65 -1478 -65 -1529 0
-1448 -3 -1480 59 -24 45 -24 697 0 742 31 61 -50 58 1477 59 1254 0 1402 -2
1432 -16z"/>
<path d="M224 3399 c-49 -14 -125 -69 -161 -117 -63 -83 -64 -96 -61 -639 l3
-488 34 -63 c38 -70 69 -100 145 -140 l51 -27 935 0 935 0 53 24 c68 31 144
113 169 183 16 49 18 94 18 543 l0 490 -27 57 c-35 75 -104 141 -174 167 -54
21 -69 21 -972 20 -517 0 -931 -5 -948 -10z m1856 -216 c16 -9 33 -27 39 -40
7 -16 11 -174 11 -481 0 -407 -2 -460 -16 -481 -37 -52 -18 -51 -945 -51 -955
0 -911 -3 -943 65 -14 28 -16 93 -16 468 0 297 4 444 11 466 7 18 26 41 43 52
30 18 64 19 909 19 802 0 881 -1 907 -17z"/>
<path d="M2817 3390 c-38 -30 -52 -80 -33 -123 30 -72 -48 -68 1175 -65 l1099
3 26 24 c51 48 40 142 -20 170 -18 8 -335 11 -1123 11 -1086 0 -1099 0 -1124
-20z"/>
<path d="M2817 2750 c-38 -30 -52 -80 -33 -123 30 -72 -48 -68 1175 -65 l1099
3 26 24 c51 48 40 142 -20 170 -18 8 -335 11 -1123 11 -1086 0 -1099 0 -1124
-20z"/>
<path d="M2817 2110 c-38 -30 -52 -80 -33 -123 30 -72 -48 -68 1175 -65 l1099
3 26 24 c51 48 40 142 -20 170 -18 8 -335 11 -1123 11 -1086 0 -1099 0 -1124
-20z"/>
<path d="M224 1479 c-49 -14 -125 -69 -161 -117 -63 -83 -64 -96 -61 -639 l3
-488 34 -63 c38 -70 69 -100 145 -140 l51 -27 935 0 935 0 53 24 c68 31 144
113 169 183 16 49 18 94 18 543 l0 490 -27 57 c-35 75 -104 141 -174 167 -54
21 -69 21 -972 20 -517 0 -931 -5 -948 -10z m1856 -216 c16 -9 33 -27 39 -40
7 -16 11 -174 11 -481 0 -407 -2 -460 -16 -481 -37 -52 -18 -51 -945 -51 -955
0 -911 -3 -943 65 -14 28 -16 93 -16 468 0 297 4 444 11 466 7 18 26 41 43 52
30 18 64 19 909 19 802 0 881 -1 907 -17z"/>
<path d="M2817 1470 c-38 -30 -52 -80 -33 -123 30 -72 -48 -68 1175 -65 l1099
3 26 24 c51 48 40 142 -20 170 -18 8 -335 11 -1123 11 -1086 0 -1099 0 -1124
-20z"/>
<path d="M2817 830 c-38 -30 -52 -80 -33 -123 30 -72 -48 -68 1175 -65 l1099
3 26 24 c51 48 40 142 -20 170 -18 8 -335 11 -1123 11 -1086 0 -1099 0 -1124
-20z"/>
<path d="M2817 190 c-38 -30 -52 -80 -33 -123 30 -72 -48 -68 1175 -65 l1099
3 26 24 c51 48 40 142 -20 170 -18 8 -335 11 -1123 11 -1086 0 -1099 0 -1124
-20z"/>
</g>
</svg>
