<svg version="1.0" xmlns="http://www.w3.org/2000/svg"
 width="1em" height="1em" fill="currentColor" viewBox="0 0 512.000000 512.000000"
 preserveAspectRatio="xMidYMid meet">

<g transform="translate(0.000000,512.000000) scale(0.100000,-0.100000)"
 stroke="none">
<path d="M406 5104 c-134 -32 -279 -146 -344 -270 -66 -126 -62 24 -62 -2274
0 -2298 -4 -2148 62 -2274 48 -90 147 -185 238 -229 41 -19 102 -41 135 -47
43 -8 525 -10 1735 -8 l1675 3 59 23 c89 33 145 69 208 133 73 75 134 196 148
294 5 40 10 350 10 718 0 537 -2 653 -14 682 -15 35 -59 65 -96 65 -31 0 -77
-27 -92 -53 -10 -17 -14 -179 -18 -722 l-5 -700 -24 -49 c-33 -66 -91 -122
-160 -155 l-56 -26 -1670 0 -1670 0 -67 33 c-76 37 -120 82 -157 162 l-26 55
0 2095 0 2095 26 55 c37 80 81 125 157 162 l67 33 808 5 809 5 24 28 c41 48
29 128 -26 160 -26 16 -98 17 -822 16 -649 -1 -804 -3 -852 -15z"/>
<path d="M3561 5110 c-167 -24 -311 -69 -454 -142 -378 -194 -642 -539 -733
-958 -22 -100 -30 -355 -15 -461 88 -620 570 -1102 1190 -1190 106 -15 361 -7
461 15 265 58 492 179 685 367 207 201 334 431 397 717 32 145 32 407 0 551
-64 285 -182 502 -381 702 -260 260 -571 394 -936 404 -82 2 -179 0 -214 -5z
m294 -210 c270 -31 515 -149 706 -339 467 -468 459 -1216 -19 -1673 -258 -246
-602 -362 -948 -318 -743 93 -1208 835 -969 1546 56 166 142 302 279 440 158
159 320 253 528 309 156 41 276 51 423 35z"/>
<path d="M4225 4256 c-18 -9 -161 -165 -365 -399 -184 -212 -340 -386 -345
-386 -6 -1 -91 80 -190 179 -197 197 -217 210 -280 175 -38 -20 -55 -52 -55
-102 0 -35 14 -51 228 -266 125 -126 239 -235 254 -243 38 -20 70 -17 107 9
27 19 736 822 776 879 20 29 19 87 -1 117 -15 21 -70 52 -91 51 -4 -1 -21 -7
-38 -14z"/>
<path d="M705 1911 c-11 -5 -29 -19 -40 -31 -20 -22 -20 -36 -20 -601 l0 -579
28 -27 27 -28 278 0 277 0 57 28 c62 30 115 83 150 149 23 43 23 44 23 458 0
414 0 415 -23 458 -35 66 -88 119 -150 149 l-57 28 -265 2 c-146 1 -274 -1
-285 -6z m510 -215 c64 -27 65 -36 65 -418 0 -322 -1 -345 -20 -375 -28 -46
-69 -55 -250 -51 l-155 3 -3 415 c-1 228 0 421 3 427 7 19 314 18 360 -1z"/>
<path d="M1922 1902 c-29 -11 -70 -33 -90 -49 -47 -37 -99 -113 -112 -164 -7
-25 -10 -178 -8 -432 3 -387 3 -393 26 -435 35 -66 88 -119 150 -149 56 -28
59 -28 247 -28 187 0 191 0 241 27 76 40 107 70 145 140 l34 63 0 405 0 405
-27 51 c-40 76 -70 107 -140 145 l-63 34 -175 3 c-150 2 -182 0 -228 -16z
m363 -208 c63 -29 65 -44 65 -414 0 -370 -2 -385 -65 -414 -44 -21 -250 -22
-300 -2 -64 27 -65 36 -65 416 0 378 2 389 63 415 47 21 258 20 302 -1z"/>
<path d="M3005 1906 c-65 -20 -98 -42 -142 -89 -90 -98 -95 -130 -91 -572 3
-308 6 -356 22 -398 25 -66 103 -149 168 -178 51 -23 64 -24 315 -27 295 -4
312 0 339 65 19 43 5 93 -33 123 -24 19 -40 20 -260 20 -251 0 -285 5 -317 51
-14 21 -16 66 -16 379 0 313 2 358 16 379 32 46 66 51 317 51 220 0 236 1 260
20 38 30 52 80 33 123 -26 63 -44 67 -323 66 -171 0 -260 -4 -288 -13z"/>
</g>
</svg>
