<?xml version="1.0" standalone="no"?>
<svg version="1.0" xmlns="http://www.w3.org/2000/svg"
width="1em"
height="1em"
fill="currentColor" viewBox="0 0 512.000000 512.000000"
 preserveAspectRatio="xMidYMid meet">

<g transform="translate(0.000000,512.000000) scale(0.100000,-0.100000)"
stroke="none">
<path d="M1370 5051 c-69 -21 -131 -73 -166 -141 -16 -29 -19 -63 -22 -202
l-4 -166 -51 39 c-254 193 -616 49 -670 -265 -8 -49 -8 -83 0 -132 22 -126 44
-157 305 -420 l239 -241 -58 -28 c-162 -80 -261 -265 -233 -440 18 -114 56
-173 217 -336 l144 -147 -38 -7 c-59 -11 -137 -52 -190 -99 -104 -94 -155
-236 -134 -370 18 -109 53 -167 174 -292 l107 -112 -37 -7 c-59 -11 -137 -52
-190 -99 -104 -94 -155 -236 -134 -370 21 -129 42 -157 307 -426 l242 -245 4
-150 c3 -130 6 -155 25 -190 25 -47 74 -95 123 -121 33 -18 82 -19 1040 -22
743 -2 1012 1 1033 9 15 7 33 21 40 33 9 15 13 168 17 576 5 541 6 556 28 614
53 142 98 191 361 388 124 93 230 177 236 186 6 10 12 207 15 507 6 469 7 493
28 555 53 160 162 263 323 305 30 8 62 15 72 15 16 0 17 -81 17 -1555 0 -1183
3 -1560 12 -1580 13 -29 55 -55 88 -55 33 0 75 26 88 55 9 20 12 411 12 1646
0 1779 4 1662 -60 1689 -22 9 -56 11 -114 7 -159 -13 -299 -63 -413 -148 l-53
-39 -2 802 c-3 761 -4 805 -22 838 -26 49 -74 98 -121 123 l-40 22 -1260 2
c-693 1 -1271 -2 -1285 -6z m2510 -211 c18 -18 20 -33 20 -180 l0 -160 -1260
0 -1260 0 0 160 c0 147 2 162 20 180 20 20 33 20 1240 20 1207 0 1220 0 1240
-20z m-2923 -390 c23 -10 83 -58 133 -106 l90 -87 0 -316 0 -316 -236 235
c-129 129 -246 253 -260 276 -51 86 -41 186 27 259 66 71 163 93 246 55z
m2943 -1315 l0 -1165 -198 -148 c-109 -82 -223 -177 -254 -212 -107 -117 -175
-284 -185 -453 l-6 -97 -703 0 -704 0 -109 113 -109 112 43 11 c76 20 138 56
196 113 129 130 159 308 79 478 -24 53 -57 93 -176 213 l-146 148 39 7 c21 3
58 16 83 28 l45 22 96 -90 c146 -137 317 -229 514 -273 90 -20 315 -22 410 -3
430 85 761 416 846 846 19 96 17 319 -4 413 -47 206 -135 368 -282 518 -148
151 -292 236 -491 290 -89 25 -116 27 -264 27 -146 0 -176 -3 -262 -26 -186
-49 -335 -134 -475 -270 -127 -124 -237 -299 -275 -440 -7 -26 -15 -46 -19
-45 -4 2 -52 47 -108 100 l-101 98 0 425 0 425 1260 0 1260 0 0 -1165z m-1104
686 c265 -55 487 -233 603 -483 60 -130 76 -202 76 -358 0 -156 -16 -228 -75
-357 -104 -225 -276 -378 -513 -459 -306 -104 -670 -12 -890 225 l-56 61 19
46 c73 168 33 338 -114 492 -58 60 -76 86 -76 107 0 51 31 158 71 243 170 368
560 565 955 483z m-1570 -512 c26 -12 129 -109 291 -272 240 -242 252 -255
268 -310 14 -49 15 -66 5 -107 -21 -86 -84 -149 -170 -170 -41 -10 -59 -9
-107 5 -56 16 -67 26 -320 278 -250 251 -262 264 -278 319 -19 67 -13 114 22
176 57 100 177 134 289 81z m0 -960 c26 -12 129 -109 291 -272 240 -242 252
-255 268 -310 14 -49 15 -66 5 -107 -21 -86 -84 -149 -170 -170 -41 -10 -59
-9 -107 5 -56 16 -67 26 -320 278 -250 251 -262 264 -278 319 -19 67 -13 114
22 176 57 100 177 134 289 81z m-80 -880 c26 -12 129 -109 291 -272 240 -242
252 -255 268 -310 14 -49 15 -66 5 -107 -21 -86 -84 -149 -170 -170 -41 -10
-59 -9 -107 5 -56 16 -67 26 -320 278 -250 251 -262 264 -278 319 -19 67 -13
114 22 176 57 100 177 134 289 81z m2114 -909 l0 -300 -920 0 c-907 0 -920 0
-940 20 -16 16 -20 33 -20 81 0 53 2 60 18 56 84 -24 192 -12 281 30 72 34
160 122 194 194 28 59 51 176 41 203 -6 15 56 16 670 16 l676 0 0 -300z"/>
<path d="M2571 3706 c-33 -18 -50 -53 -51 -102 0 -41 -1 -42 -42 -48 -105 -16
-210 -97 -257 -196 -22 -46 -26 -69 -26 -140 0 -73 4 -93 28 -142 35 -72 93
-130 165 -165 53 -26 69 -28 209 -33 133 -4 155 -8 180 -26 88 -65 79 -197
-18 -246 -28 -15 -61 -18 -181 -18 -135 0 -150 2 -168 20 -12 12 -20 33 -20
54 0 62 -67 109 -127 89 -34 -12 -73 -66 -73 -103 0 -52 31 -131 67 -171 52
-57 104 -81 191 -87 l72 -5 0 -38 c0 -94 72 -144 149 -105 33 18 51 54 51 106
0 37 2 39 38 46 126 24 228 117 266 244 21 71 20 125 -4 203 -26 84 -96 164
-178 203 -52 25 -71 28 -207 33 -166 7 -189 14 -225 74 -39 63 -15 146 52 187
29 18 51 20 185 20 170 0 176 -2 187 -68 13 -85 109 -121 167 -63 25 25 29 37
29 83 0 138 -117 248 -262 248 l-48 0 0 40 c0 52 -18 88 -51 106 -34 17 -67
17 -98 0z"/>
<path d="M2324 626 c-46 -46 -46 -86 0 -132 l34 -34 281 0 c306 0 326 3 349
55 23 51 7 107 -39 131 -22 11 -85 14 -310 14 l-281 0 -34 -34z"/>
</g>
</svg>
