<svg version="1.0" xmlns="http://www.w3.org/2000/svg"
 width="1em" height="1em" fill="currentColor" viewBox="0 0 512.000000 512.000000"
 preserveAspectRatio="xMidYMid meet">

<g transform="translate(0.000000,512.000000) scale(0.100000,-0.100000)"
 stroke="none">
<path d="M1355 5105 c-51 -18 -120 -91 -134 -141 -15 -55 -15 -2783 0 -2839
14 -51 93 -130 146 -144 25 -7 327 -11 916 -11 l877 0 0 -885 0 -886 -25 -24
-24 -25 -1301 0 -1301 0 -24 25 -25 24 0 1899 c0 1895 0 1899 20 1925 l21 26
250 3 c250 3 251 3 270 27 26 32 24 73 -4 99 -23 21 -30 22 -279 22 l-256 0
-53 -28 c-39 -20 -62 -41 -84 -77 l-30 -48 -3 -1925 c-1 -1379 1 -1936 9
-1966 14 -52 92 -130 146 -145 58 -17 2632 -15 2687 1 54 16 128 90 144 144 6
23 12 64 12 93 l0 51 426 0 c307 0 438 3 468 12 54 16 128 90 144 144 6 23 12
87 12 143 0 95 -2 104 -25 126 -31 32 -69 32 -100 0 -23 -22 -25 -31 -25 -125
0 -94 -2 -103 -25 -125 l-24 -25 -426 0 -425 0 0 225 0 225 651 0 c484 0 662
3 693 12 54 16 128 90 144 144 15 53 18 3379 2 3433 -16 58 -59 109 -113 136
-51 25 -52 25 -318 25 l-268 0 -20 -26 c-26 -33 -27 -65 -2 -95 19 -24 20 -24
280 -27 l260 -3 21 -26 c20 -26 20 -31 20 -1700 l0 -1674 -25 -24 -24 -25
-651 0 -650 0 0 235 0 235 500 0 501 0 24 25 c32 31 32 69 0 100 l-24 25 -501
0 -500 0 0 150 0 150 500 0 501 0 24 25 c32 31 32 69 0 100 -24 25 -25 25
-231 25 l-206 0 6 23 c3 12 6 79 6 150 l0 127 200 0 c200 0 201 0 225 25 32
31 32 69 0 100 -24 25 -25 25 -225 25 l-200 0 0 150 0 150 200 0 c200 0 201 0
225 25 32 31 32 69 0 100 -24 25 -25 25 -225 25 l-200 0 0 150 0 150 200 0
c200 0 201 0 225 25 14 13 25 36 25 50 0 14 -11 37 -25 50 -24 25 -25 25 -225
25 l-200 0 0 150 0 150 200 0 c200 0 201 0 225 25 32 31 32 69 0 100 l-24 25
-251 0 -251 0 -24 -25 -25 -24 0 -851 0 -851 -25 -24 -24 -25 -1151 0 -1151 0
-24 25 -25 24 0 1376 0 1376 25 24 24 25 1151 0 1151 0 24 -25 25 -24 0 -401
0 -401 25 -24 c13 -14 36 -25 50 -25 14 0 37 11 50 25 l25 24 0 402 c0 289 -3
413 -12 443 -17 55 -91 131 -143 145 -28 8 -390 11 -1200 11 -974 -1 -1166 -3
-1200 -15z"/>
<path d="M2408 4784 c-125 -30 -266 -123 -345 -228 -57 -76 -75 -112 -104
-206 -23 -71 -24 -90 -24 -335 0 -259 0 -260 28 -340 16 -44 44 -105 62 -135
34 -55 120 -149 161 -177 19 -12 21 -19 13 -45 -22 -77 -64 -106 -267 -182
-164 -61 -220 -93 -288 -160 -103 -104 -134 -212 -134 -479 0 -176 0 -178 25
-202 l24 -25 1001 0 1001 0 24 25 c25 24 25 26 25 202 0 267 -31 375 -134 479
-68 67 -124 99 -288 160 -203 76 -245 105 -267 182 -8 26 -6 33 13 45 41 28
127 122 161 177 18 30 46 91 62 135 l28 80 0 265 c0 262 -1 266 -28 346 -69
205 -246 371 -448 419 -79 18 -224 18 -301 -1z m283 -150 c166 -49 298 -191
334 -361 18 -82 20 -401 4 -489 -33 -181 -174 -332 -354 -379 -164 -42 -344
11 -461 137 -66 72 -101 138 -120 227 -19 91 -19 412 1 504 35 167 161 306
325 358 70 23 199 24 271 3z m-266 -1379 c39 -8 99 -15 135 -15 36 0 96 7 135
15 38 8 73 15 76 15 3 0 13 -18 23 -41 44 -98 112 -146 329 -228 215 -82 258
-114 309 -228 18 -40 22 -72 26 -200 l4 -153 -902 0 -902 0 4 153 c4 128 8
160 26 200 51 114 94 146 309 228 217 82 285 130 329 228 10 23 20 41 23 41 3
0 38 -7 76 -15z"/>
</g>
</svg>
