<svg version="1.0" xmlns="http://www.w3.org/2000/svg"
width="1em"
height="1em"
fill="currentColor"
viewBox="0 0 512.000000 512.000000"
 preserveAspectRatio="xMidYMid meet">

<g transform="translate(0.000000,512.000000) scale(0.100000,-0.100000)" stroke="none">
<path d="M3055 5026 c-37 -17 -70 -52 -84 -89 -16 -42 -14 -241 3 -280 17 -43
68 -85 111 -93 l35 -6 0 -279 0 -279 -174 0 c-185 0 -214 -5 -258 -47 l-27
-26 -603 67 c-634 70 -914 91 -1089 84 -92 -4 -114 -8 -171 -35 -92 -43 -151
-100 -196 -191 -35 -72 -37 -81 -37 -172 0 -91 2 -100 37 -172 45 -91 104
-148 196 -191 57 -27 79 -31 171 -35 175 -7 454 14 1088 84 l601 66 42 -33 42
-34 189 -3 189 -3 0 -278 0 -279 -35 -6 c-47 -9 -102 -59 -116 -105 -6 -21 -9
-86 -7 -153 2 -99 6 -121 24 -144 42 -57 69 -69 164 -72 l89 -4 -73 -49 c-84
-56 -195 -157 -246 -223 l-35 -45 -1185 -1 -1185 0 -220 -352 c-121 -194 -220
-359 -220 -368 0 -9 99 -174 220 -368 l220 -352 1185 -1 1185 0 49 -60 c154
-190 399 -335 668 -395 107 -25 366 -25 478 0 236 51 435 160 606 330 170 171
275 363 331 608 24 105 24 364 -1 478 -65 305 -251 582 -502 749 l-73 49 89 4
c95 3 122 15 164 72 18 23 22 45 24 144 2 67 -1 132 -7 153 -14 46 -69 96
-116 105 l-35 6 0 279 0 279 56 0 c87 0 133 18 189 75 64 63 75 100 75 245 0
145 -11 182 -75 245 -56 57 -102 75 -189 75 l-56 0 0 279 0 279 35 6 c47 9
102 59 116 105 6 21 9 86 7 153 -3 126 -11 147 -72 192 -27 21 -37 21 -794 23
-624 2 -773 0 -797 -11z m1505 -226 l0 -80 -720 0 -720 0 0 80 0 80 720 0 720
0 0 -80z m-160 -1120 l0 -880 -560 0 -560 0 0 880 0 880 560 0 560 0 0 -880z
m-3110 230 c91 -6 428 -40 750 -75 322 -36 588 -65 593 -65 4 0 7 -40 7 -90 0
-49 -3 -90 -7 -90 -5 0 -271 -29 -593 -65 -749 -82 -1056 -102 -1154 -73 -55
16 -138 99 -154 154 -28 94 -8 169 63 239 27 28 66 56 85 62 46 14 205 15 410
3z m1830 -230 l0 -160 -160 0 -160 0 0 160 0 160 160 0 160 0 0 -160z m1575
135 c24 -23 25 -31 25 -135 0 -104 -1 -112 -25 -135 -20 -21 -34 -25 -80 -25
l-55 0 0 160 0 160 55 0 c46 0 60 -4 80 -25z m-135 -1255 l0 -80 -720 0 -720
0 0 80 0 80 720 0 720 0 0 -80z m-574 -251 c144 -20 324 -90 443 -172 65 -45
195 -171 248 -241 91 -122 162 -293 188 -451 55 -338 -56 -668 -307 -911 -89
-86 -149 -130 -248 -179 -305 -153 -637 -152 -945 2 -104 53 -183 113 -276
210 -89 93 -124 142 -177 249 -149 296 -149 632 0 928 55 111 89 158 182 254
94 97 171 155 282 210 190 96 400 130 610 101z m-1241 -541 c-72 -158 -99
-292 -99 -488 0 -196 27 -330 99 -487 l34 -73 -1087 0 -1087 0 -170 272 c-94
150 -170 279 -170 288 0 9 76 138 170 288 l170 272 1087 0 1087 0 -34 -72z"/>
<path d="M3782 1337 c-303 -303 -552 -557 -552 -562 0 -13 92 -105 105 -105 6
0 260 250 565 555 l555 555 -55 55 c-30 30 -57 55 -60 55 -3 0 -254 -249 -558
-553z"/>
<path d="M3440 1827 c-49 -16 -133 -102 -148 -153 -28 -94 -8 -169 63 -239
101 -102 229 -102 330 0 98 97 101 222 8 325 -65 72 -158 97 -253 67z m135
-172 c50 -49 15 -135 -55 -135 -41 0 -80 39 -80 80 0 41 39 80 80 80 19 0 40
-9 55 -25z"/>
<path d="M4080 1187 c-49 -16 -133 -102 -148 -153 -28 -94 -8 -169 63 -239
101 -102 229 -102 330 0 98 97 101 222 8 325 -65 72 -158 97 -253 67z m135
-172 c50 -49 15 -135 -55 -135 -41 0 -80 39 -80 80 0 41 39 80 80 80 19 0 40
-9 55 -25z"/>
<path d="M720 1600 l0 -80 80 0 80 0 0 -320 0 -320 80 0 80 0 0 320 0 320 80
0 80 0 0 80 0 80 -240 0 -240 0 0 -80z"/>
<path d="M1520 1667 c-49 -16 -133 -102 -148 -153 -8 -28 -12 -134 -12 -338
l0 -296 80 0 80 0 0 80 0 80 80 0 80 0 0 -80 0 -80 80 0 80 0 0 296 c0 200 -4
310 -12 336 -17 59 -88 133 -145 152 -53 18 -112 19 -163 3z m135 -172 c24
-23 25 -29 25 -160 l0 -135 -80 0 -80 0 0 135 c0 131 1 137 25 160 15 16 36
25 55 25 19 0 40 -9 55 -25z"/>
<path d="M2000 1588 l0 -92 71 -108 72 -108 -72 -108 -71 -108 0 -92 0 -92 80
0 80 0 0 67 c0 60 4 72 38 125 20 32 39 58 42 58 3 0 22 -26 43 -58 33 -53 37
-65 37 -125 l0 -67 80 0 80 0 0 92 0 92 -71 108 -72 108 72 108 71 108 0 92 0
92 -80 0 -80 0 0 -67 c0 -60 -4 -72 -37 -125 -21 -32 -40 -58 -43 -58 -3 0
-22 26 -42 58 -34 53 -38 65 -38 125 l0 67 -80 0 -80 0 0 -92z"/>
<path d="M880 2947 c-49 -16 -133 -102 -148 -153 -28 -94 -8 -169 63 -239 101
-102 229 -102 330 0 98 97 101 222 8 325 -65 72 -158 97 -253 67z m135 -172
c50 -49 15 -135 -55 -135 -41 0 -80 39 -80 80 0 41 39 80 80 80 19 0 40 -9 55
-25z"/>
<path d="M1520 2947 c-49 -16 -133 -102 -148 -153 -28 -94 -8 -169 63 -239
101 -102 229 -102 330 0 98 97 101 222 8 325 -65 72 -158 97 -253 67z m135
-172 c50 -49 15 -135 -55 -135 -41 0 -80 39 -80 80 0 41 39 80 80 80 19 0 40
-9 55 -25z"/>
<path d="M2160 2947 c-49 -16 -133 -102 -148 -153 -28 -94 -8 -169 63 -239
101 -102 229 -102 330 0 98 97 101 222 8 325 -65 72 -158 97 -253 67z m135
-172 c50 -49 15 -135 -55 -135 -41 0 -80 39 -80 80 0 41 39 80 80 80 19 0 40
-9 55 -25z"/>
</g>
</svg>
