<svg version="1.1" id="PayPhone" xmlns="http://www.w3.org/2000/svg"
 width="1em"
 height="1em"
 fill="currentColor"  
 viewBox="0 0 512.000000 512.000000">

<g>
<path d="M663 5099 c-327 -54 -599 -330 -652 -660 -15 -89 -15 -3669 0 -3758
54 -335 325 -606 660 -660 41 -7 431 -11 1097 -11 1135 0 1104 -2 1261 61 170
68 323 208 405 371 56 112 82 209 91 345 l7 100 79 7 c227 19 555 124 658 211
96 82 91 227 -12 309 -31 25 -49 31 -100 34 -55 3 -71 0 -142 -33 -194 -90
-355 -126 -555 -126 -219 0 -397 42 -583 138 -347 179 -596 520 -668 913 -16
85 -16 316 -1 406 91 543 505 957 1048 1050 131 22 362 15 484 -16 220 -55
381 -138 550 -283 269 -231 429 -585 430 -947 0 -144 -22 -271 -75 -426 -61
-177 -59 -232 8 -303 41 -43 84 -61 144 -61 61 0 124 31 156 78 51 75 121 296
148 467 18 114 16 398 -4 515 -118 693 -661 1243 -1347 1364 -47 8 -115 18
-151 21 l-66 6 -7 110 c-9 144 -35 242 -92 357 -82 163 -235 303 -405 371
-158 63 -124 61 -1271 60 -574 -1 -1067 -5 -1095 -10z m2229 -426 c161 -76
238 -214 238 -425 l0 -67 -42 -11 c-431 -108 -779 -348 -1014 -701 -204 -306
-301 -676 -273 -1045 39 -517 306 -970 743 -1264 143 -96 360 -189 534 -230
l52 -12 0 -56 c0 -201 -81 -341 -238 -415 l-67 -32 -1039 -3 c-934 -2 -1045
-1 -1095 14 -135 39 -236 139 -275 273 -14 49 -16 237 -16 1861 0 1624 2 1812
16 1861 38 130 134 228 264 270 51 17 122 18 1100 16 l1045 -2 67 -32z"/>
<path d="M1504 4393 c-32 -6 -105 -72 -120 -110 -34 -80 -7 -187 59 -237 52
-40 115 -48 355 -44 208 3 219 4 259 27 141 81 134 286 -12 352 -35 16 -67 18
-280 17 -132 0 -250 -3 -261 -5z"/>
<path d="M1691 1100 c-115 -49 -160 -182 -95 -287 42 -67 99 -96 181 -91 69 4
97 20 147 82 28 35 31 44 31 111 0 67 -3 76 -31 111 -51 63 -77 78 -147 81
-34 2 -73 -2 -86 -7z"/>
<path d="M3375 3516 c-71 -31 -115 -102 -115 -185 l0 -49 -57 -28 c-71 -34
-171 -132 -202 -197 -92 -192 -54 -416 95 -557 97 -92 210 -130 386 -130 93 0
112 -9 124 -56 10 -38 -2 -103 -22 -125 -16 -18 -33 -19 -251 -19 -188 0 -241
-3 -271 -15 -149 -63 -165 -265 -28 -349 41 -26 60 -30 137 -34 l89 -4 0 -31
c0 -51 38 -116 87 -147 55 -35 101 -44 155 -30 86 23 138 86 152 182 6 42 10
48 42 58 109 36 205 124 262 239 l37 75 0 155 0 156 -36 76 c-56 117 -158 207
-277 245 -26 8 -103 18 -171 21 -140 7 -161 17 -161 77 0 56 14 60 205 66 161
5 174 7 207 29 56 39 82 85 86 156 6 90 -27 149 -105 189 -18 9 -43 16 -57 16
-22 0 -26 5 -32 48 -12 82 -44 131 -106 163 -44 22 -128 25 -173 5z"/>
</g>
</svg>
