<svg version="1.0" xmlns="http://www.w3.org/2000/svg"
 width="1em" height="1em" fill="currentColor" viewBox="0 0 512.000000 512.000000"
 preserveAspectRatio="xMidYMid meet">

<g transform="translate(0.000000,512.000000) scale(0.100000,-0.100000)"
 stroke="none">
<path d="M300 5104 c-141 -38 -247 -146 -284 -289 -24 -88 -24 -1441 -1 -1530
39 -148 165 -264 320 -295 36 -7 125 -10 223 -8 158 3 164 4 183 27 25 30 24
62 -2 95 l-20 26 -168 0 c-196 0 -251 12 -312 67 -22 20 -50 55 -62 77 l-22
41 0 735 c0 734 0 735 22 775 25 47 74 95 123 121 34 18 95 19 1680 19 l1645
0 41 -22 c53 -28 107 -89 128 -144 15 -40 16 -111 14 -764 -3 -718 -3 -720
-25 -761 -12 -22 -40 -57 -62 -77 -65 -58 -111 -67 -368 -67 l-223 0 0 89 0
89 158 3 c146 4 161 6 207 30 57 29 110 92 125 149 7 26 10 223 8 582 -3 508
-4 545 -22 578 -26 49 -64 88 -111 113 l-40 22 -1475 0 -1475 0 -40 -22 c-47
-25 -85 -64 -111 -113 -18 -33 -19 -68 -19 -600 l0 -565 28 -48 c35 -60 93
-102 158 -116 33 -7 340 -11 924 -11 l875 0 0 -90 0 -90 -660 0 c-647 0 -660
0 -680 -20 -30 -30 -27 -83 6 -109 26 -21 34 -21 680 -21 l654 0 0 -125 c0
-120 1 -127 25 -150 29 -30 64 -32 96 -6 l24 19 5 454 c6 501 4 487 73 558 98
101 258 105 356 10 82 -80 75 -8 81 -903 l5 -799 24 -19 c31 -26 73 -24 99 3
20 22 21 35 24 273 l3 250 29 53 c49 87 124 132 223 132 99 0 180 -51 231
-144 14 -26 18 -69 22 -249 l5 -219 28 -24 c34 -29 56 -30 89 -4 24 18 26 25
30 150 4 119 7 135 34 187 47 93 155 152 252 139 62 -8 140 -54 174 -100 49
-68 58 -120 58 -328 0 -175 1 -189 20 -208 30 -30 83 -27 109 6 12 15 21 40
21 57 0 54 23 108 67 157 52 58 114 85 194 84 106 -1 212 -87 238 -191 18 -68
14 -867 -4 -979 -75 -465 -438 -826 -905 -900 -142 -23 -1123 -15 -1223 9
-428 105 -743 424 -834 847 -16 75 -18 136 -18 515 0 425 0 431 22 471 54 100
128 143 246 144 l77 0 0 -305 0 -306 25 -24 c31 -32 69 -32 100 0 l25 24 0
446 0 446 -25 24 c-31 32 -69 32 -100 0 -21 -21 -25 -33 -25 -88 l0 -65 -97
-4 c-84 -3 -108 -8 -165 -35 -121 -57 -204 -165 -229 -298 -7 -40 -9 -196 -6
-475 4 -371 6 -424 25 -505 55 -245 167 -451 337 -620 200 -199 448 -320 727
-355 64 -8 257 -10 623 -7 449 3 541 7 600 21 255 60 446 165 620 340 147 149
242 302 303 492 56 170 57 189 57 719 0 487 0 490 -23 547 -45 110 -133 198
-240 239 -108 41 -254 26 -352 -36 l-37 -23 -12 66 c-32 173 -145 295 -310
338 -108 27 -233 2 -327 -66 l-42 -30 -22 45 c-35 73 -113 150 -188 187 -62
31 -73 33 -172 33 -110 0 -105 2 -252 -73 -5 -2 -8 37 -8 87 l0 91 225 0 c244
0 300 7 386 51 73 36 160 131 191 206 l23 58 3 730 c3 660 1 736 -14 793 -32
122 -125 226 -247 276 l-52 21 -1645 2 c-1425 2 -1652 0 -1700 -13z m3152
-492 l23 -23 3 -522 c2 -388 -1 -529 -9 -551 -19 -45 -60 -56 -208 -56 l-129
0 -4 98 c-3 83 -8 107 -35 164 -87 184 -290 277 -479 220 -182 -55 -294 -211
-294 -408 l0 -74 -874 0 c-613 0 -882 3 -905 11 -62 22 -61 16 -61 581 0 548
0 550 50 575 20 10 322 12 1462 10 l1437 -2 23 -23z"/>
<path d="M2235 4489 c-16 -4 -99 -69 -184 -143 -131 -114 -157 -133 -171 -123
-8 7 -41 31 -72 55 -114 87 -172 80 -281 -34 -40 -42 -82 -92 -94 -112 -28
-45 -30 -105 -5 -150 15 -29 370 -339 415 -364 30 -16 84 -12 116 9 59 37 547
477 568 512 28 44 30 104 6 148 -10 18 -50 68 -89 111 -87 95 -131 114 -209
91z m165 -271 c0 -4 -113 -107 -251 -229 -184 -163 -255 -220 -265 -213 -38
25 -323 270 -323 277 -1 12 110 127 122 127 5 0 40 -24 76 -53 80 -65 101 -77
138 -77 40 0 70 21 238 169 l149 132 58 -63 c31 -35 57 -66 58 -70z"/>
</g>
</svg>
