<?xml version="1.0" standalone="no"?>
<svg version="1.0" xmlns="http://www.w3.org/2000/svg"
width="1em"
height="1em"
fill="currentColor"  viewBox="0 0 130.000000 130.000000"
 preserveAspectRatio="xMidYMid meet">

<g transform="translate(0.000000,130.000000) scale(0.100000,-0.100000)"
stroke="none">
<path d="M527 1235 c-225 -45 -411 -231 -463 -462 -47 -214 34 -444 208 -589
l43 -37 3 82 c3 77 1 84 -26 119 -95 125 -127 252 -98 390 51 245 278 406 524
371 78 -11 172 -52 224 -98 36 -31 38 -32 125 -29 l88 3 -81 81 c-94 95 -187
146 -309 169 -92 18 -147 18 -238 0z"/>
<path d="M452 783 l3 -68 327 -3 328 -2 6 -25 c9 -35 -4 -126 -26 -189 -49
-144 -180 -267 -317 -297 l-53 -12 0 -68 0 -69 33 7 c223 41 395 194 473 423
24 69 26 263 3 325 l-14 40 -383 3 -383 2 3 -67z"/>
<path d="M450 330 l0 -249 38 -10 c20 -5 49 -12 65 -15 l27 -6 0 200 0 200
170 0 c191 0 182 -4 214 88 l15 42 -264 0 -265 0 0 -250z"/>
</g>
</svg>
