<svg id="svg" version="1.1" xmlns="http://www.w3.org/2000/svg" xmlns:xlink="http://www.w3.org/1999/xlink" width="1em" height="1em" viewBox="0, 0, 400,400"><g id="svgg"><path id="path0" d="M45.791 209.400 C 45.792 248.340,45.841 270.425,45.900 258.479 C 45.970 244.253,46.144 236.842,46.403 237.002 C 46.629 237.142,46.814 239.436,46.832 242.324 C 46.849 245.116,46.954 247.175,47.065 246.900 C 47.220 246.515,50.151 246.400,59.815 246.400 L 72.364 246.400 72.576 247.700 C 72.693 248.415,72.854 249.540,72.934 250.200 C 73.029 250.976,73.134 250.623,73.233 249.200 C 73.318 247.990,73.483 254.470,73.600 263.600 C 73.744 274.777,73.844 266.284,73.906 237.600 C 74.018 186.131,73.719 163.200,72.935 163.200 C 72.568 163.200,72.400 163.764,72.400 165.000 L 72.400 166.800 59.849 166.800 L 47.299 166.800 46.912 162.100 L 46.524 157.400 46.368 167.200 C 46.240 175.237,46.174 173.547,46.000 157.800 C 45.884 147.240,45.789 170.460,45.791 209.400 M225.829 157.953 C 225.734 158.107,226.032 158.262,226.492 158.297 C 226.952 158.332,227.476 158.594,227.658 158.880 C 227.889 159.245,227.990 159.258,227.994 158.924 C 228.004 158.129,226.216 157.327,225.829 157.953 M354.000 158.976 C 354.000 159.622,354.567 160.100,354.917 159.750 C 355.229 159.438,354.799 158.400,354.357 158.400 C 354.161 158.400,354.000 158.659,354.000 158.976 M94.845 162.337 C 94.238 163.189,94.149 163.589,94.491 163.931 C 94.741 164.181,94.814 164.519,94.652 164.682 C 94.489 164.844,94.189 164.712,93.984 164.388 C 93.705 163.947,93.611 164.093,93.606 164.972 L 93.600 166.144 94.733 164.875 C 95.368 164.163,95.835 163.208,95.794 162.703 C 95.754 162.206,95.919 161.668,96.161 161.506 C 96.471 161.299,96.461 161.210,96.127 161.206 C 95.867 161.203,95.290 161.712,94.845 162.337 M317.500 161.757 C 317.115 162.049,316.800 162.487,316.800 162.730 C 316.800 162.973,316.440 163.365,316.000 163.600 C 315.560 163.835,315.200 164.307,315.200 164.647 C 315.200 164.988,314.981 165.194,314.714 165.105 C 314.171 164.924,312.166 167.100,312.536 167.469 C 312.765 167.698,318.800 161.878,318.800 161.427 C 318.800 161.052,318.243 161.193,317.500 161.757 M318.800 162.503 C 318.800 162.989,323.754 167.600,324.275 167.600 C 324.564 167.600,324.803 168.005,324.806 168.500 C 324.811 169.228,324.886 169.285,325.200 168.800 C 325.511 168.319,325.589 168.387,325.594 169.143 C 325.598 169.800,325.775 170.018,326.180 169.863 C 326.531 169.728,326.857 169.950,327.009 170.427 C 327.339 171.469,320.922 177.990,319.660 177.895 C 319.206 177.860,318.903 177.763,318.988 177.679 C 319.217 177.450,314.079 172.400,313.617 172.400 C 313.398 172.400,312.917 171.939,312.548 171.376 C 312.049 170.615,311.794 170.485,311.556 170.871 C 311.347 171.210,311.254 171.045,311.288 170.395 C 311.318 169.848,311.456 169.220,311.596 169.000 C 312.034 168.310,311.825 167.077,311.236 166.880 C 310.831 166.744,310.747 166.903,310.937 167.445 C 311.186 168.153,311.168 168.157,310.657 167.500 C 310.148 166.847,308.437 166.800,284.906 166.800 L 259.700 166.800 259.450 168.050 C 259.313 168.738,259.200 172.168,259.200 175.674 C 259.200 179.821,259.060 181.961,258.800 181.800 C 258.580 181.664,258.400 181.863,258.400 182.243 C 258.400 182.623,258.303 182.836,258.185 182.718 C 257.890 182.424,253.669 186.524,253.879 186.900 C 253.972 187.065,253.883 187.200,253.683 187.200 C 253.363 187.200,239.766 200.599,232.929 207.651 C 231.569 209.053,229.724 210.877,228.829 211.705 C 227.933 212.533,227.200 213.281,227.200 213.367 C 227.200 213.454,225.917 214.757,224.349 216.262 C 215.557 224.705,213.164 227.372,213.348 228.528 C 213.377 228.709,213.102 229.023,212.737 229.227 C 212.304 229.470,212.153 229.897,212.300 230.462 C 212.455 231.053,212.380 231.235,212.063 231.039 C 211.786 230.868,211.600 231.009,211.600 231.390 C 211.600 231.741,211.323 232.451,210.984 232.968 C 210.646 233.484,210.395 234.063,210.428 234.253 C 210.534 234.879,209.914 236.400,209.553 236.400 C 209.359 236.400,209.200 237.054,209.200 237.853 C 209.200 238.823,208.926 239.544,208.375 240.021 C 207.922 240.415,207.583 240.976,207.623 241.268 C 207.844 242.896,207.543 243.964,206.797 244.201 C 206.208 244.388,206.041 244.714,206.171 245.428 C 206.290 246.087,206.163 246.400,205.774 246.400 C 205.458 246.400,205.200 246.743,205.200 247.163 C 205.200 247.728,205.407 247.871,206.000 247.716 C 206.440 247.601,206.800 247.337,206.800 247.130 C 206.800 246.922,207.011 246.883,207.268 247.042 C 207.566 247.226,207.657 247.126,207.519 246.766 C 207.334 246.285,209.331 246.200,220.800 246.200 C 231.434 246.200,234.257 246.306,234.106 246.700 C 233.988 247.007,234.256 247.200,234.801 247.200 C 235.556 247.200,235.648 247.046,235.424 246.155 C 235.198 245.251,235.462 244.839,237.380 243.115 C 238.600 242.017,239.480 240.930,239.337 240.698 C 239.194 240.466,239.264 240.392,239.493 240.534 C 240.011 240.854,240.902 239.847,240.497 239.399 C 240.333 239.219,240.396 239.184,240.637 239.320 C 240.877 239.457,241.687 238.901,242.437 238.085 C 243.716 236.693,243.725 236.663,242.591 237.601 C 241.926 238.150,242.540 237.475,243.954 236.100 C 245.369 234.725,246.677 233.600,246.863 233.600 C 247.048 233.600,247.155 233.375,247.100 233.100 C 247.045 232.825,247.204 232.638,247.452 232.684 C 247.701 232.730,248.241 232.373,248.652 231.891 C 249.390 231.026,249.389 231.022,248.600 231.607 C 247.859 232.156,247.841 232.148,248.349 231.500 C 248.651 231.115,249.224 230.800,249.622 230.800 C 250.020 230.800,250.466 230.422,250.613 229.959 C 250.760 229.497,251.624 228.372,252.534 227.459 C 253.444 226.547,253.933 226.160,253.620 226.600 C 253.308 227.040,253.666 226.770,254.415 226.000 C 255.164 225.230,255.732 224.452,255.678 224.270 C 255.624 224.089,255.738 224.038,255.932 224.158 C 256.404 224.450,258.090 222.623,257.704 222.237 C 257.537 222.070,257.583 221.993,257.808 222.067 C 258.257 222.213,260.400 220.661,260.400 220.189 C 260.400 219.795,262.026 218.400,262.485 218.400 C 262.684 218.400,262.736 218.220,262.600 218.000 C 262.464 217.780,262.644 217.600,263.000 217.600 C 263.356 217.600,263.588 217.465,263.515 217.300 C 263.347 216.917,267.115 213.248,267.392 213.526 C 267.507 213.640,267.600 213.423,267.600 213.043 C 267.600 212.663,267.780 212.464,268.000 212.600 C 268.220 212.736,268.400 212.684,268.400 212.485 C 268.400 212.017,269.787 210.415,270.247 210.352 C 270.441 210.325,272.220 208.562,274.200 206.434 C 276.180 204.306,278.282 202.220,278.872 201.798 C 279.461 201.377,279.855 200.890,279.748 200.716 C 279.641 200.542,279.833 200.400,280.176 200.400 C 280.519 200.400,280.800 200.245,280.800 200.056 C 280.800 199.509,283.481 196.814,283.754 197.087 C 283.889 197.223,284.000 197.023,284.000 196.643 C 284.000 196.263,284.180 196.064,284.400 196.200 C 284.620 196.336,284.800 196.263,284.800 196.038 C 284.800 195.619,290.561 189.907,291.223 189.669 C 291.424 189.596,293.495 191.463,295.826 193.817 L 300.064 198.096 298.732 199.508 C 297.999 200.285,290.335 207.992,281.700 216.635 C 273.065 225.278,266.000 232.459,266.000 232.592 C 266.000 232.725,265.614 233.231,265.141 233.717 C 264.669 234.203,264.420 234.330,264.588 234.000 C 264.851 233.485,264.197 234.170,262.392 236.300 C 262.159 236.575,262.111 236.804,262.284 236.809 C 262.458 236.814,262.018 237.105,261.306 237.456 C 260.594 237.807,260.100 238.239,260.209 238.415 C 260.522 238.921,258.226 240.893,257.809 240.476 C 257.658 240.324,257.593 240.455,257.667 240.767 C 257.740 241.079,257.440 241.529,257.000 241.767 C 256.560 242.005,256.200 242.560,256.200 243.000 C 256.200 243.469,255.972 243.752,255.650 243.683 C 254.961 243.537,253.600 244.734,253.600 245.486 C 253.600 245.813,253.404 245.926,253.132 245.758 C 252.815 245.562,252.749 245.689,252.926 246.150 C 253.089 246.576,253.002 246.808,252.694 246.769 C 251.712 246.642,251.157 246.807,251.375 247.160 C 251.693 247.675,254.121 247.436,254.309 246.872 C 254.581 246.057,288.800 246.208,288.800 247.024 C 288.800 247.393,288.612 247.531,288.338 247.362 C 288.045 247.181,287.985 247.253,288.174 247.558 C 288.400 247.924,288.605 247.928,289.031 247.574 C 289.339 247.318,289.481 246.932,289.347 246.715 C 289.213 246.498,289.488 246.526,289.957 246.777 C 290.427 247.029,290.764 247.092,290.706 246.917 C 290.648 246.743,290.694 246.600,290.810 246.600 C 291.240 246.600,292.309 245.389,292.134 245.100 C 292.035 244.935,292.244 244.800,292.600 244.800 C 292.956 244.800,293.136 244.620,293.000 244.400 C 292.860 244.173,293.196 244.000,293.776 244.000 C 294.339 244.000,294.800 243.809,294.800 243.576 C 294.800 243.343,294.575 243.281,294.300 243.437 C 294.025 243.594,294.658 242.885,295.707 241.861 C 296.756 240.837,297.760 240.000,297.937 240.000 C 298.115 240.000,298.697 239.505,299.230 238.900 L 300.200 237.800 299.000 238.800 L 297.800 239.800 298.758 238.712 C 299.285 238.114,299.843 237.703,299.998 237.798 C 300.254 237.957,301.061 237.284,302.254 235.919 C 302.503 235.634,303.251 234.966,303.916 234.435 C 304.581 233.905,305.046 233.264,304.949 233.012 C 304.730 232.441,307.357 230.000,308.189 230.000 C 308.525 230.000,308.800 229.722,308.800 229.382 C 308.800 228.683,310.541 226.800,311.187 226.800 C 311.697 226.800,356.000 182.525,356.000 182.015 C 356.000 181.818,356.249 181.408,356.554 181.103 C 357.474 180.183,358.800 177.298,358.800 176.216 C 358.800 175.657,358.990 175.200,359.221 175.200 C 359.790 175.200,359.622 169.492,359.042 169.106 C 358.735 168.902,358.752 168.810,359.100 168.806 C 359.781 168.798,359.733 167.276,359.029 166.571 C 358.301 165.843,357.320 165.780,357.917 166.500 C 358.247 166.899,354.852 167.000,341.165 167.000 C 331.724 167.000,324.000 166.846,324.000 166.657 C 324.000 166.469,324.315 166.435,324.700 166.582 C 325.088 166.730,324.786 166.215,324.022 165.425 C 323.263 164.641,322.557 164.000,322.452 164.000 C 322.347 164.000,322.671 164.437,323.172 164.970 C 323.674 165.504,323.959 166.143,323.806 166.390 C 323.438 166.986,322.445 166.170,321.947 164.861 C 321.744 164.326,321.460 164.007,321.317 164.150 C 321.173 164.294,320.548 163.925,319.928 163.331 C 319.307 162.737,318.800 162.364,318.800 162.503 M357.772 164.528 C 357.452 165.363,357.852 165.908,358.390 165.370 C 358.617 165.143,358.623 164.761,358.405 164.408 C 358.098 163.911,358.002 163.930,357.772 164.528 M232.800 166.367 C 232.800 166.676,213.094 166.800,163.880 166.800 C 109.298 166.800,94.848 166.904,94.421 167.300 C 93.990 167.700,93.939 167.700,94.165 167.300 C 94.334 167.000,94.215 166.800,93.866 166.800 C 92.895 166.800,92.285 172.292,93.140 173.332 C 93.352 173.590,93.618 174.395,93.731 175.122 C 94.084 177.383,98.465 182.400,100.087 182.400 C 100.479 182.400,100.800 182.580,100.800 182.800 C 100.800 183.020,101.239 183.200,101.776 183.200 C 102.313 183.200,102.864 183.380,103.000 183.600 C 103.163 183.864,123.737 184.000,163.424 184.000 C 203.275 184.000,223.600 183.865,223.600 183.600 C 223.600 183.380,224.039 183.200,224.576 183.200 C 225.113 183.200,225.664 183.020,225.800 182.800 C 225.936 182.580,226.397 182.400,226.824 182.400 C 227.254 182.400,227.600 182.127,227.600 181.787 C 227.600 181.451,227.915 181.054,228.299 180.907 C 229.197 180.562,230.562 179.197,230.907 178.299 C 231.054 177.915,231.451 177.600,231.787 177.600 C 232.127 177.600,232.400 177.254,232.400 176.824 C 232.400 176.397,232.580 175.936,232.800 175.800 C 233.020 175.664,233.200 175.034,233.200 174.400 C 233.200 173.766,233.399 173.124,233.643 172.974 C 233.952 172.782,233.922 172.585,233.543 172.320 C 233.121 172.024,233.111 171.894,233.500 171.736 C 233.775 171.625,234.000 171.203,234.000 170.800 C 234.000 170.397,233.775 169.976,233.500 169.865 C 233.100 169.704,233.100 169.657,233.500 169.632 C 233.775 169.614,234.000 169.319,234.000 168.976 C 234.000 168.633,233.840 168.451,233.645 168.572 C 233.450 168.692,233.195 168.423,233.077 167.973 C 232.895 167.279,232.955 167.231,233.470 167.658 C 233.987 168.087,234.056 168.021,233.938 167.212 C 233.802 166.273,232.800 165.530,232.800 166.367 M102.200 213.200 C 102.064 213.420,101.603 213.600,101.176 213.600 C 100.749 213.600,100.400 213.780,100.400 214.000 C 100.400 214.220,100.096 214.400,99.723 214.400 C 98.971 214.400,94.800 218.648,94.800 219.415 C 94.800 219.683,94.567 220.095,94.283 220.331 C 93.999 220.567,93.721 221.444,93.666 222.280 C 93.610 223.116,93.393 223.860,93.182 223.933 C 92.668 224.113,92.685 230.000,93.200 230.000 C 93.420 230.000,93.600 230.442,93.600 230.981 C 93.600 232.324,94.413 234.000,95.064 234.000 C 95.359 234.000,95.600 234.371,95.600 234.824 C 95.600 235.351,95.769 235.543,96.068 235.358 C 96.385 235.162,96.451 235.289,96.274 235.750 C 96.083 236.249,96.199 236.401,96.706 236.316 C 97.177 236.237,97.362 236.426,97.282 236.900 C 97.195 237.420,97.437 237.600,98.225 237.600 C 99.038 237.600,99.228 237.751,99.037 238.248 C 98.846 238.747,98.974 238.848,99.594 238.686 C 100.141 238.543,100.400 238.670,100.400 239.084 C 100.400 239.498,100.659 239.626,101.207 239.482 C 101.651 239.366,102.255 239.512,102.550 239.807 C 102.844 240.101,103.556 240.290,104.131 240.227 C 104.707 240.164,105.096 240.245,104.995 240.408 C 104.895 240.570,105.373 240.815,106.056 240.951 C 108.027 241.345,173.200 241.244,173.200 240.847 C 173.200 240.652,173.695 240.482,174.300 240.468 C 174.905 240.453,175.850 240.365,176.400 240.272 C 176.950 240.179,177.546 240.079,177.724 240.051 C 177.902 240.023,177.920 239.794,177.764 239.542 C 177.566 239.221,177.786 239.160,178.495 239.338 C 179.317 239.544,179.555 239.423,179.754 238.696 C 179.960 237.944,180.065 237.897,180.406 238.400 C 180.747 238.904,181.002 238.792,182.000 237.700 C 182.654 236.985,183.371 236.400,183.594 236.400 C 183.817 236.400,183.955 236.175,183.900 235.900 C 183.845 235.625,184.070 235.460,184.400 235.533 C 184.730 235.607,184.865 235.531,184.699 235.366 C 184.534 235.200,184.697 234.735,185.061 234.332 C 185.426 233.930,185.593 233.600,185.433 233.600 C 185.274 233.600,185.426 233.317,185.771 232.971 C 186.117 232.626,186.400 231.996,186.400 231.571 C 186.400 231.147,186.565 230.800,186.767 230.800 C 187.546 230.800,187.247 223.258,186.398 221.501 C 185.959 220.593,185.600 219.706,185.600 219.529 C 185.600 218.756,182.129 215.200,181.374 215.200 C 181.095 215.200,180.807 215.021,180.733 214.802 C 180.660 214.583,179.613 214.043,178.406 213.602 C 175.914 212.691,102.753 212.306,102.200 213.200 M233.699 248.061 C 233.381 248.379,233.361 248.753,233.633 249.261 C 233.915 249.789,233.891 250.000,233.547 250.000 C 233.283 250.000,233.173 250.106,233.303 250.237 C 233.433 250.367,233.868 250.282,234.270 250.049 C 234.746 249.772,234.809 249.620,234.451 249.612 C 234.002 249.602,233.995 249.488,234.414 248.983 C 235.053 248.214,234.394 247.366,233.699 248.061 M250.203 247.995 C 250.056 248.233,250.246 248.283,250.679 248.121 C 251.311 247.884,251.333 247.933,250.855 248.521 C 250.555 248.889,250.170 249.105,250.000 249.000 C 249.830 248.895,249.486 249.056,249.235 249.358 C 248.302 250.482,249.827 250.323,250.884 249.186 C 251.730 248.277,251.816 248.015,251.333 247.830 C 250.542 247.526,250.488 247.534,250.203 247.995 M288.834 248.953 L 287.869 250.200 289.013 249.112 C 289.643 248.514,290.077 247.953,289.979 247.865 C 289.880 247.777,289.365 248.267,288.834 248.953 M287.345 250.311 C 287.492 250.549,287.430 250.858,287.207 250.996 C 286.983 251.134,286.825 251.732,286.854 252.324 L 286.909 253.400 287.093 252.400 C 287.194 251.850,287.448 251.191,287.658 250.936 C 287.906 250.633,287.871 250.367,287.558 250.174 C 287.263 249.992,287.181 250.045,287.345 250.311 M201.443 256.633 C 201.121 257.472,201.135 257.600,201.553 257.600 C 201.748 257.600,202.001 257.240,202.116 256.800 C 202.363 255.855,201.795 255.714,201.443 256.633 " stroke="none" fill="#3da6df" fill-rule="evenodd"></path><path id="path1" d="M46.302 67.200 C 45.875 73.782,45.924 120.800,46.357 120.800 C 46.901 120.800,47.200 119.723,47.200 117.767 L 47.200 116.000 166.100 115.995 C 231.495 115.992,285.396 115.883,285.880 115.753 C 286.709 115.531,286.768 115.664,286.903 118.059 C 286.981 119.456,287.078 109.800,287.117 96.600 C 287.163 80.986,287.052 72.810,286.800 73.200 C 286.587 73.530,286.379 73.620,286.339 73.400 C 286.299 73.180,286.146 74.080,286.000 75.400 L 285.734 77.800 285.667 75.500 L 285.600 73.200 272.612 73.200 L 259.623 73.200 259.499 67.900 C 259.431 64.985,259.335 69.395,259.287 77.700 L 259.200 92.800 166.663 92.800 L 74.126 92.800 73.863 86.136 C 73.718 82.471,73.600 78.172,73.600 76.583 C 73.600 72.938,74.744 73.212,59.500 73.205 L 47.200 73.200 47.113 75.700 C 47.065 77.075,46.930 74.690,46.813 70.400 L 46.600 62.600 46.302 67.200 M73.060 119.697 C 73.161 119.860,115.128 119.952,166.322 119.901 C 217.515 119.850,249.590 119.762,237.600 119.705 C 181.343 119.437,72.896 119.431,73.060 119.697 M312.000 170.125 C 312.000 170.194,312.585 170.779,313.300 171.425 L 314.600 172.600 313.425 171.300 C 312.330 170.088,312.000 169.816,312.000 170.125 " stroke="none" fill="#3cbccc" fill-rule="evenodd"></path><path id="path2" d="M60.200 32.800 C 60.064 33.020,59.505 33.200,58.957 33.200 C 58.011 33.200,56.165 33.958,54.028 35.224 C 52.728 35.995,48.800 39.877,48.800 40.391 C 48.800 40.616,48.620 40.800,48.400 40.800 C 48.180 40.800,48.000 40.982,48.000 41.204 C 48.000 41.427,47.655 42.372,47.234 43.304 C 45.885 46.290,45.863 47.076,45.813 93.400 L 45.764 139.000 45.982 101.133 C 46.102 80.306,46.335 63.131,46.500 62.966 C 46.665 62.802,46.835 66.162,46.877 70.433 C 46.919 74.705,47.018 77.075,47.096 75.700 L 47.238 73.200 59.519 73.205 C 75.227 73.212,73.550 72.534,73.701 78.944 C 73.770 81.835,73.865 78.845,73.913 72.300 L 74.000 60.400 166.546 60.400 L 259.091 60.400 259.346 62.256 C 259.486 63.277,259.600 66.157,259.600 68.656 L 259.600 73.200 272.600 73.200 L 285.600 73.200 285.667 75.500 L 285.734 77.800 286.000 75.400 C 286.146 74.080,286.299 73.180,286.339 73.400 C 286.379 73.620,286.587 73.530,286.800 73.200 C 287.333 72.376,287.333 45.329,286.800 45.000 C 286.580 44.864,286.400 44.313,286.400 43.776 C 286.400 43.239,286.220 42.800,286.000 42.800 C 285.780 42.800,285.600 42.440,285.600 42.000 C 285.600 41.560,285.432 41.200,285.227 41.200 C 285.022 41.200,284.734 40.821,284.587 40.359 C 284.292 39.429,280.546 35.600,279.931 35.600 C 279.717 35.600,279.264 35.321,278.923 34.980 C 278.582 34.640,277.785 34.257,277.152 34.130 C 276.518 34.004,276.000 33.742,276.000 33.550 C 276.000 33.358,275.381 33.200,274.624 33.200 C 273.867 33.200,273.136 33.020,273.000 32.800 C 272.657 32.246,60.543 32.246,60.200 32.800 " stroke="none" fill="#3cc5c4" fill-rule="evenodd"></path><path id="path3" d="M294.975 145.300 L 293.800 146.600 295.100 145.425 C 295.815 144.779,296.400 144.194,296.400 144.125 C 296.400 143.816,296.070 144.088,294.975 145.300 M244.975 195.300 L 243.800 196.600 245.100 195.425 C 245.815 194.779,246.400 194.194,246.400 194.125 C 246.400 193.816,246.070 194.088,244.975 195.300 M273.375 207.300 L 272.200 208.600 273.500 207.425 C 274.712 206.330,274.984 206.000,274.675 206.000 C 274.606 206.000,274.021 206.585,273.375 207.300 M257.704 222.206 C 258.106 222.650,256.399 224.447,255.880 224.126 C 255.651 223.984,255.600 224.076,255.762 224.338 C 256.139 224.948,256.087 224.970,257.358 223.644 C 258.206 222.759,258.341 222.415,257.933 222.180 C 257.640 222.010,257.537 222.022,257.704 222.206 M252.300 227.620 C 250.438 229.598,250.307 230.504,252.142 228.711 C 252.880 227.990,253.422 227.327,253.345 227.237 C 253.269 227.147,253.407 226.832,253.652 226.537 C 254.582 225.417,253.739 226.092,252.300 227.620 M309.660 227.851 C 309.143 228.402,308.817 228.950,308.936 229.069 C 309.152 229.285,311.200 227.430,311.200 227.018 C 311.200 226.547,310.556 226.895,309.660 227.851 M211.340 231.200 C 211.208 231.860,210.943 232.400,210.750 232.400 C 210.558 232.400,210.400 232.704,210.400 233.076 C 210.400 234.050,211.570 232.474,211.587 231.476 C 211.594 231.078,211.780 230.864,212.000 231.000 C 212.220 231.136,212.400 230.967,212.400 230.624 C 212.400 229.519,211.588 229.961,211.340 231.200 M306.100 231.321 C 305.384 232.025,304.799 232.735,304.800 232.900 C 304.800 233.355,305.993 233.259,306.050 232.800 C 306.078 232.580,306.131 232.175,306.168 231.900 C 306.206 231.625,306.417 231.433,306.639 231.473 C 306.860 231.514,307.258 231.199,307.524 230.773 C 308.246 229.616,307.568 229.877,306.100 231.321 M248.430 231.364 C 248.101 231.760,248.089 232.008,248.390 232.194 C 248.627 232.340,248.770 232.221,248.710 231.930 C 248.649 231.638,248.825 231.445,249.100 231.500 C 249.375 231.555,249.600 231.420,249.600 231.200 C 249.600 230.621,248.973 230.709,248.430 231.364 M265.000 232.931 C 264.195 233.938,264.339 234.603,265.171 233.717 C 265.627 233.231,266.000 232.736,266.000 232.617 C 266.000 232.232,265.411 232.416,265.000 232.931 M243.954 236.100 C 242.540 237.475,241.849 238.192,242.419 237.694 C 242.989 237.196,243.533 236.855,243.628 236.936 C 243.722 237.017,244.548 236.300,245.463 235.342 C 247.981 232.703,246.877 233.258,243.954 236.100 M94.800 234.520 C 94.800 235.096,95.582 236.000,96.080 236.000 C 96.256 236.000,96.400 235.809,96.400 235.576 C 96.400 235.343,96.220 235.264,96.000 235.400 C 95.780 235.536,95.600 235.277,95.600 234.824 C 95.600 234.371,95.420 234.000,95.200 234.000 C 94.980 234.000,94.800 234.234,94.800 234.520 M184.370 235.068 L 183.400 236.136 184.487 235.368 C 185.086 234.946,185.581 234.465,185.587 234.300 C 185.608 233.807,185.389 233.946,184.370 235.068 M262.500 235.423 C 261.911 236.063,261.862 236.400,262.357 236.400 C 262.698 236.400,263.337 235.196,263.109 234.983 C 263.049 234.927,262.775 235.125,262.500 235.423 M302.229 235.829 C 301.449 236.609,301.430 236.840,302.169 236.557 C 302.482 236.436,302.836 236.082,302.957 235.769 C 303.240 235.030,303.009 235.049,302.229 235.829 M96.588 236.420 C 96.207 237.035,96.728 237.432,97.242 236.918 C 97.529 236.631,97.536 236.407,97.262 236.239 C 97.039 236.100,96.735 236.182,96.588 236.420 M260.900 236.998 C 260.156 237.843,260.289 237.977,261.366 237.469 C 261.897 237.218,262.246 236.875,262.142 236.707 C 261.866 236.260,261.467 236.354,260.900 236.998 M45.866 269.283 C 45.471 317.450,45.527 352.308,46.000 352.600 C 46.220 352.736,46.400 353.557,46.400 354.424 C 46.400 355.291,46.580 356.000,46.800 356.000 C 47.020 356.000,47.200 356.450,47.200 357.000 C 47.200 357.550,47.380 358.000,47.600 358.000 C 47.820 358.000,48.000 358.261,48.000 358.581 C 48.000 359.337,53.863 365.200,54.619 365.200 C 54.939 365.200,55.200 365.380,55.200 365.600 C 55.200 365.820,55.650 366.000,56.200 366.000 C 56.750 366.000,57.200 366.180,57.200 366.400 C 57.200 366.620,57.819 366.800,58.576 366.800 C 59.333 366.800,60.064 366.980,60.200 367.200 C 60.364 367.465,96.263 367.600,166.600 367.600 C 236.937 367.600,272.836 367.465,273.000 367.200 C 273.136 366.980,273.867 366.800,274.624 366.800 C 275.381 366.800,276.000 366.620,276.000 366.400 C 276.000 366.180,276.450 366.000,277.000 366.000 C 277.550 366.000,278.000 365.820,278.000 365.600 C 278.000 365.380,278.270 365.200,278.600 365.200 C 278.930 365.200,279.200 365.020,279.200 364.800 C 279.200 364.580,279.474 364.400,279.809 364.400 C 280.143 364.400,281.403 363.414,282.609 362.209 C 283.814 361.003,284.800 359.743,284.800 359.409 C 284.800 359.074,284.935 358.799,285.100 358.797 C 285.506 358.793,286.400 356.814,286.400 355.920 C 286.400 355.524,286.584 355.200,286.809 355.200 C 287.085 355.200,287.212 338.371,287.200 303.300 C 287.190 274.755,287.208 251.220,287.239 251.000 C 287.269 250.780,287.280 250.483,287.261 250.341 C 287.243 250.199,287.581 250.175,288.014 250.288 C 288.466 250.406,288.800 250.294,288.800 250.023 C 288.800 249.758,288.582 249.680,288.300 249.845 C 288.025 250.006,288.143 249.747,288.562 249.269 C 289.413 248.298,289.981 248.059,289.200 249.000 C 288.856 249.415,288.841 249.600,289.151 249.600 C 289.594 249.600,289.758 249.082,289.628 248.094 C 289.592 247.815,289.709 247.635,289.889 247.694 C 290.393 247.858,292.559 246.026,292.239 245.706 C 292.084 245.550,291.811 245.658,291.634 245.946 C 291.456 246.233,291.151 246.498,290.955 246.534 C 290.760 246.570,290.648 246.743,290.706 246.917 C 290.764 247.092,290.427 247.029,289.957 246.777 C 289.488 246.526,289.213 246.498,289.347 246.715 C 289.481 246.932,289.339 247.318,289.031 247.574 C 288.605 247.928,288.400 247.924,288.174 247.558 C 287.985 247.253,288.045 247.181,288.338 247.362 C 288.612 247.531,288.800 247.393,288.800 247.024 C 288.800 246.085,255.068 246.075,254.130 247.013 C 253.696 247.447,253.031 247.566,251.858 247.422 C 250.488 247.253,250.349 247.293,251.055 247.650 L 251.911 248.082 250.874 249.197 C 249.824 250.327,248.308 250.475,249.235 249.358 C 249.486 249.056,249.830 248.895,250.000 249.000 C 250.170 249.105,250.545 248.907,250.833 248.560 C 251.629 247.602,250.039 247.976,248.981 248.996 C 248.117 249.830,247.712 251.425,248.486 250.947 C 248.767 250.773,248.808 250.864,248.601 251.199 C 248.349 251.606,248.148 251.553,247.689 250.961 C 247.116 250.220,247.105 250.222,247.290 251.012 C 247.394 251.458,247.216 252.070,246.894 252.370 C 246.388 252.842,246.348 252.787,246.596 251.958 C 246.876 251.023,246.868 251.019,246.254 251.800 C 245.908 252.240,245.620 252.453,245.613 252.273 C 245.606 252.093,245.077 252.318,244.438 252.773 C 243.799 253.228,242.935 253.600,242.518 253.600 C 242.101 253.600,241.518 253.825,241.221 254.100 C 240.783 254.506,240.744 254.488,241.010 254.000 C 241.275 253.514,241.191 253.523,240.569 254.048 C 240.146 254.404,239.575 254.614,239.300 254.514 C 239.025 254.415,238.800 254.528,238.800 254.767 C 238.800 255.005,238.344 255.200,237.787 255.200 C 237.231 255.200,236.676 255.459,236.554 255.775 C 236.432 256.093,236.063 256.246,235.727 256.116 C 235.393 255.988,235.002 256.045,234.860 256.242 C 234.371 256.916,232.674 257.733,233.017 257.130 C 233.259 256.704,233.212 256.698,232.779 257.100 C 232.057 257.770,231.600 257.731,231.600 257.000 C 231.600 256.670,231.764 256.400,231.965 256.400 C 232.165 256.400,232.282 256.085,232.224 255.700 C 232.166 255.315,232.383 254.595,232.706 254.100 C 233.028 253.605,233.168 253.200,233.017 253.200 C 232.866 253.200,233.026 252.917,233.371 252.571 C 234.125 251.818,234.196 250.546,233.500 250.265 C 233.109 250.107,233.112 250.056,233.514 250.032 C 233.894 250.008,233.922 249.802,233.622 249.242 C 233.325 248.686,233.365 248.361,233.773 248.023 C 234.527 247.396,235.040 248.229,234.385 249.018 C 234.100 249.361,234.069 249.600,234.308 249.600 C 234.701 249.600,235.210 248.734,235.425 247.700 C 235.482 247.425,235.166 247.200,234.722 247.200 C 234.240 247.200,233.992 246.998,234.106 246.700 C 234.257 246.306,231.434 246.200,220.800 246.200 C 209.331 246.200,207.334 246.285,207.519 246.766 C 207.657 247.126,207.566 247.226,207.268 247.042 C 207.011 246.883,206.800 246.929,206.800 247.145 C 206.800 247.360,206.299 247.647,205.686 247.781 C 204.842 247.967,204.551 248.283,204.484 249.090 C 204.436 249.676,204.207 250.272,203.977 250.414 C 203.746 250.557,203.589 250.837,203.626 251.037 C 203.769 251.794,203.588 252.440,203.285 252.252 C 203.112 252.145,202.931 252.530,202.883 253.106 C 202.835 253.683,202.656 254.255,202.485 254.378 C 202.313 254.500,202.153 255.224,202.130 255.986 C 202.106 256.748,201.887 257.438,201.643 257.519 C 201.399 257.600,201.200 257.922,201.200 258.233 C 201.200 258.545,201.041 258.800,200.847 258.800 C 200.527 258.800,200.143 259.653,199.787 261.152 C 199.714 261.456,199.463 261.897,199.228 262.132 C 198.992 262.368,198.800 262.974,198.800 263.480 C 198.800 263.986,198.620 264.400,198.400 264.400 C 198.180 264.400,198.033 264.535,198.073 264.700 C 198.197 265.212,197.090 268.400,196.788 268.400 C 196.631 268.400,196.389 269.107,196.251 269.972 C 196.113 270.836,195.738 271.805,195.419 272.124 C 195.099 272.443,194.945 272.812,195.076 272.943 C 195.207 273.074,195.110 273.427,194.860 273.727 C 194.611 274.028,194.525 274.392,194.670 274.537 C 194.815 274.682,194.753 274.800,194.533 274.800 C 194.313 274.800,194.106 275.025,194.073 275.300 C 193.866 277.028,193.459 278.400,193.155 278.400 C 192.960 278.400,192.800 280.380,192.800 282.800 C 192.800 285.467,192.958 287.200,193.200 287.200 C 193.420 287.200,193.600 287.560,193.600 288.000 C 193.600 288.440,193.788 288.800,194.018 288.800 C 194.247 288.800,194.382 289.053,194.318 289.362 C 194.144 290.190,196.428 293.115,197.700 293.694 C 198.305 293.970,198.800 294.331,198.800 294.498 C 198.800 294.664,199.160 294.800,199.600 294.800 C 200.040 294.800,200.400 294.980,200.400 295.200 C 200.400 295.420,200.760 295.600,201.200 295.600 C 201.640 295.600,202.000 295.780,202.000 296.000 C 202.000 296.241,203.667 296.400,206.200 296.400 C 208.733 296.400,210.400 296.241,210.400 296.000 C 210.400 295.780,210.940 295.600,211.600 295.600 C 212.260 295.600,212.800 295.420,212.800 295.200 C 212.800 294.980,213.162 294.800,213.605 294.800 C 214.048 294.800,214.768 294.620,215.205 294.400 C 215.642 294.180,216.358 293.820,216.795 293.600 C 217.232 293.380,217.952 293.200,218.395 293.200 C 218.838 293.200,219.200 293.020,219.200 292.800 C 219.200 292.580,219.661 292.400,220.224 292.400 C 220.787 292.400,221.150 292.243,221.031 292.051 C 220.912 291.858,221.704 291.583,222.791 291.439 C 223.878 291.295,224.875 291.002,225.007 290.788 C 225.139 290.575,225.597 290.400,226.024 290.400 C 226.451 290.400,226.800 290.220,226.800 290.000 C 226.800 289.780,227.340 289.600,228.000 289.600 C 228.660 289.600,229.200 289.420,229.200 289.200 C 229.200 288.980,229.560 288.800,230.000 288.800 C 230.440 288.800,230.800 288.620,230.800 288.400 C 230.800 288.180,231.351 288.000,232.024 288.000 C 232.737 288.000,233.144 287.833,233.000 287.600 C 232.863 287.378,233.163 287.199,233.676 287.199 C 234.184 287.198,235.189 286.838,235.910 286.399 C 236.630 285.959,237.530 285.590,237.910 285.577 C 238.289 285.564,239.497 285.130,240.594 284.611 C 241.690 284.093,242.725 283.754,242.894 283.858 C 243.062 283.962,243.200 283.857,243.200 283.624 C 243.200 283.391,243.560 283.200,244.000 283.200 C 244.440 283.200,244.800 283.059,244.800 282.887 C 244.800 282.715,245.655 282.342,246.700 282.059 C 247.745 281.775,249.070 281.290,249.644 280.982 C 250.218 280.673,250.803 280.536,250.944 280.677 C 251.085 280.818,251.200 280.723,251.200 280.467 C 251.200 280.210,251.639 280.000,252.176 280.000 C 252.713 280.000,253.264 279.820,253.400 279.600 C 253.536 279.380,253.997 279.200,254.424 279.200 C 254.851 279.200,255.200 279.020,255.200 278.800 C 255.200 278.580,255.751 278.400,256.424 278.400 C 257.097 278.400,257.549 278.241,257.428 278.046 C 257.308 277.851,257.657 277.606,258.205 277.501 L 259.200 277.311 259.200 308.455 L 259.200 339.600 166.600 339.600 L 74.000 339.600 74.000 318.066 C 74.000 290.136,73.470 246.371,73.167 249.200 C 72.959 251.136,72.922 251.208,72.860 249.800 C 72.821 248.920,72.681 247.795,72.548 247.300 L 72.307 246.400 59.787 246.400 C 50.145 246.400,47.220 246.515,47.065 246.900 C 46.954 247.175,46.849 245.116,46.832 242.324 C 46.814 239.532,46.650 237.154,46.466 237.041 C 46.282 236.927,46.012 251.436,45.866 269.283 M300.612 237.580 C 300.465 237.818,300.203 237.926,300.031 237.819 C 299.858 237.712,299.317 238.050,298.828 238.570 C 297.490 239.995,298.520 240.183,300.014 238.787 C 300.727 238.121,301.213 237.480,301.095 237.362 C 300.977 237.243,300.760 237.342,300.612 237.580 M98.084 238.158 C 98.616 238.734,99.200 238.639,99.200 237.976 C 99.200 237.769,98.833 237.600,98.384 237.600 C 97.707 237.600,97.656 237.694,98.084 238.158 M208.510 238.800 C 208.543 239.240,208.712 239.600,208.885 239.600 C 209.058 239.600,209.200 239.240,209.200 238.800 C 209.200 238.360,209.031 238.000,208.825 238.000 C 208.619 238.000,208.477 238.360,208.510 238.800 M259.256 239.213 C 258.736 239.646,258.498 240.000,258.727 240.000 C 259.131 240.000,260.400 238.916,260.400 238.571 C 260.400 238.299,260.258 238.378,259.256 239.213 M101.389 239.617 C 101.259 239.828,101.208 240.014,101.276 240.031 C 102.274 240.278,102.800 240.270,102.800 240.007 C 102.800 239.506,101.654 239.189,101.389 239.617 M177.779 239.566 C 177.903 239.767,177.779 240.023,177.502 240.134 C 177.182 240.263,177.238 240.348,177.657 240.368 C 178.019 240.386,178.418 240.130,178.545 239.800 C 178.687 239.428,178.543 239.200,178.164 239.200 C 177.828 239.200,177.655 239.365,177.779 239.566 M240.613 239.621 C 240.826 239.966,239.812 240.879,239.530 240.597 C 239.422 240.488,239.333 240.675,239.333 241.011 C 239.333 241.447,239.657 241.311,240.467 240.536 C 241.791 239.267,241.761 239.333,241.018 239.333 C 240.697 239.333,240.515 239.463,240.613 239.621 M295.601 241.861 C 294.551 242.906,294.134 243.525,294.601 243.348 C 295.040 243.181,295.580 242.847,295.800 242.604 C 297.708 240.504,298.090 240.005,297.770 240.036 C 297.566 240.055,296.590 240.877,295.601 241.861 M173.200 240.825 C 173.200 241.280,174.275 241.327,174.549 240.883 C 174.656 240.709,174.397 240.540,173.972 240.508 C 173.548 240.476,173.200 240.619,173.200 240.825 M207.360 241.906 C 206.708 242.341,206.399 244.375,207.021 244.137 C 207.369 244.003,208.156 241.541,207.831 241.606 C 207.814 241.609,207.602 241.744,207.360 241.906 M255.592 242.805 C 255.134 243.088,255.112 243.272,255.490 243.650 C 255.868 244.028,256.031 243.985,256.236 243.450 C 256.571 242.579,256.337 242.345,255.592 242.805 M253.624 244.379 C 253.088 244.844,252.848 245.355,253.029 245.647 C 253.240 245.989,253.428 245.876,253.651 245.275 C 253.826 244.801,254.201 244.471,254.485 244.541 C 254.768 244.611,254.864 244.593,254.698 244.500 C 254.531 244.408,254.497 244.167,254.621 243.966 C 254.985 243.378,254.590 243.541,253.624 244.379 M235.334 245.027 C 235.202 245.372,235.298 245.858,235.547 246.107 C 235.877 246.437,236.000 246.439,236.000 246.113 C 236.000 245.867,236.109 245.381,236.243 245.033 C 236.377 244.684,236.281 244.400,236.030 244.400 C 235.780 244.400,235.467 244.682,235.334 245.027 M251.731 246.165 C 251.356 246.593,251.450 246.700,252.199 246.700 C 252.830 246.700,253.068 246.520,252.925 246.150 C 252.664 245.469,252.338 245.473,251.731 246.165 M104.800 272.800 C 104.800 273.020,103.990 273.200,103.000 273.200 C 102.010 273.200,101.200 273.380,101.200 273.600 C 101.200 273.820,100.840 274.000,100.400 274.000 C 99.960 274.000,99.600 274.180,99.600 274.400 C 99.600 274.620,99.330 274.800,99.000 274.800 C 98.670 274.800,98.400 274.980,98.400 275.200 C 98.400 275.420,98.130 275.600,97.800 275.600 C 97.470 275.600,97.200 275.900,97.200 276.267 C 97.200 276.633,97.089 276.822,96.952 276.686 C 96.634 276.367,95.991 277.038,94.890 278.839 C 94.406 279.630,94.128 280.395,94.272 280.539 C 94.416 280.682,94.323 280.800,94.067 280.800 C 93.810 280.800,93.600 281.340,93.600 282.000 C 93.600 282.660,93.420 283.200,93.200 283.200 C 92.963 283.200,92.800 284.667,92.800 286.800 C 92.800 288.780,92.957 290.400,93.149 290.400 C 93.341 290.400,93.618 291.150,93.764 292.067 C 93.936 293.140,94.417 294.082,95.115 294.714 C 95.712 295.253,95.930 295.569,95.600 295.417 C 95.222 295.243,95.259 295.353,95.700 295.714 C 96.085 296.030,96.400 296.473,96.400 296.699 C 96.400 296.924,97.005 297.396,97.745 297.747 C 98.485 298.098,99.317 298.659,99.594 298.993 C 99.871 299.327,100.526 299.600,101.049 299.600 C 101.572 299.600,102.000 299.780,102.000 300.000 C 102.000 300.263,112.725 300.400,133.376 300.400 C 153.863 300.400,164.839 300.261,165.000 300.000 C 165.136 299.780,165.597 299.600,166.024 299.600 C 166.451 299.600,166.800 299.420,166.800 299.200 C 166.800 298.980,167.044 298.800,167.342 298.800 C 167.897 298.800,171.825 295.210,171.294 295.188 C 171.132 295.181,171.315 294.992,171.700 294.768 C 172.085 294.544,172.400 294.180,172.400 293.961 C 172.400 293.741,172.751 292.835,173.180 291.947 C 174.127 289.987,174.261 282.714,173.364 281.970 C 173.080 281.734,172.946 281.285,173.067 280.971 C 173.187 280.657,173.086 280.400,172.843 280.400 C 172.599 280.400,172.400 280.130,172.400 279.800 C 172.400 279.007,168.208 274.800,167.417 274.800 C 167.078 274.800,166.800 274.620,166.800 274.400 C 166.800 274.180,166.350 274.000,165.800 274.000 C 165.250 274.000,164.800 273.820,164.800 273.600 C 164.800 273.380,164.170 273.200,163.400 273.200 C 162.630 273.200,162.000 273.020,162.000 272.800 C 162.000 272.537,152.200 272.400,133.400 272.400 C 114.600 272.400,104.800 272.537,104.800 272.800 " stroke="none" fill="#4494f4" fill-rule="evenodd"></path><path id="path4" d="M166.500 115.900 L 47.200 116.001 47.200 117.972 C 47.200 119.191,46.971 120.172,46.600 120.543 C 46.076 121.066,46.011 124.699,46.089 149.071 C 46.143 166.008,46.261 173.143,46.389 167.200 C 46.597 157.554,46.605 157.474,46.939 162.100 L 47.279 166.800 59.839 166.800 L 72.400 166.800 72.400 165.000 C 72.400 163.675,72.557 163.200,72.993 163.200 C 73.500 163.200,73.604 164.760,73.703 173.900 C 73.766 179.785,73.814 170.200,73.809 152.600 L 73.800 120.600 166.500 120.702 L 259.200 120.803 259.254 144.702 C 259.284 157.846,259.387 168.195,259.482 167.700 L 259.656 166.800 284.884 166.800 C 308.436 166.800,310.148 166.846,310.657 167.500 C 311.168 168.157,311.186 168.153,310.937 167.445 C 310.746 166.901,310.830 166.746,311.236 166.888 C 311.546 166.997,311.774 167.391,311.741 167.763 C 311.709 168.135,311.889 168.363,312.141 168.270 C 312.394 168.176,312.550 167.884,312.490 167.620 C 312.342 166.973,314.116 164.905,314.663 165.088 C 314.902 165.167,315.197 164.854,315.318 164.392 C 315.459 163.853,315.800 163.595,316.269 163.675 C 316.790 163.764,316.964 163.588,316.874 163.063 C 316.805 162.658,317.075 162.079,317.474 161.776 C 318.500 160.998,318.759 161.071,318.500 162.063 C 318.360 162.596,318.430 162.829,318.684 162.672 C 319.141 162.389,320.516 163.713,320.201 164.132 C 320.090 164.280,320.118 164.312,320.263 164.203 C 320.408 164.095,320.803 164.230,321.140 164.503 C 321.629 164.900,321.693 164.899,321.453 164.500 C 321.288 164.225,321.258 164.000,321.386 164.000 C 321.648 164.000,322.558 166.054,322.477 166.463 C 322.411 166.795,323.483 166.650,323.857 166.277 C 324.011 166.123,323.702 165.503,323.172 164.898 C 322.551 164.191,322.740 164.291,323.704 165.178 C 325.362 166.706,325.477 166.881,324.600 166.545 C 324.270 166.418,324.000 166.469,324.000 166.657 C 324.000 166.846,331.724 167.000,341.165 167.000 C 354.852 167.000,358.247 166.899,357.917 166.500 C 357.615 166.137,357.672 166.000,358.126 166.000 C 358.496 166.000,358.727 165.686,358.692 165.228 C 358.660 164.803,358.488 164.545,358.310 164.655 C 358.133 164.765,358.091 165.023,358.217 165.228 C 358.344 165.432,358.257 165.600,358.024 165.600 C 357.458 165.600,357.484 164.676,358.067 164.093 C 358.423 163.737,358.375 163.565,357.867 163.370 C 357.500 163.230,357.200 162.778,357.200 162.366 C 357.200 161.955,356.761 161.331,356.224 160.979 C 355.573 160.553,355.332 160.116,355.499 159.670 C 355.708 159.111,355.648 159.082,355.138 159.497 C 354.427 160.074,354.000 159.781,354.000 158.714 C 354.000 157.919,350.514 154.130,349.938 154.300 C 349.752 154.355,349.645 154.254,349.700 154.076 C 349.755 153.898,345.435 149.370,340.100 144.014 C 334.765 138.658,330.400 134.413,330.400 134.580 C 330.400 134.748,329.878 134.326,329.240 133.642 C 328.601 132.959,327.881 132.400,327.640 132.400 C 327.398 132.400,327.200 132.220,327.200 132.000 C 327.200 131.780,326.921 131.600,326.580 131.600 C 326.239 131.600,325.384 131.293,324.680 130.919 C 323.976 130.544,322.860 130.176,322.200 130.100 C 321.540 130.025,320.410 129.776,319.690 129.547 C 318.229 129.084,315.637 129.530,312.192 130.838 C 311.088 131.257,310.072 131.600,309.933 131.600 C 309.386 131.600,306.651 134.155,298.603 142.185 C 293.982 146.796,290.020 150.516,289.800 150.451 C 289.580 150.386,289.512 150.446,289.650 150.583 C 289.924 150.857,288.010 153.200,287.511 153.200 C 287.340 153.200,287.200 146.388,287.200 138.061 C 287.200 121.568,286.941 115.541,286.240 115.699 C 285.998 115.754,232.115 115.844,166.500 115.900 M237.600 119.705 C 249.590 119.762,217.515 119.850,166.322 119.901 C 115.128 119.952,73.161 119.860,73.060 119.697 C 72.896 119.431,181.343 119.437,237.600 119.705 M103.400 156.501 C 100.889 157.376,99.544 158.080,99.333 158.630 C 99.213 158.944,98.839 159.200,98.503 159.200 C 97.811 159.200,95.964 161.031,96.309 161.375 C 96.432 161.499,96.339 161.600,96.102 161.600 C 95.865 161.600,95.720 162.047,95.780 162.594 C 95.855 163.282,95.414 164.115,94.350 165.294 C 93.504 166.232,92.823 167.180,92.837 167.400 C 92.851 167.620,92.954 167.575,93.065 167.300 C 93.176 167.025,93.532 166.800,93.857 166.800 C 94.213 166.800,94.335 166.998,94.165 167.300 C 93.939 167.700,93.990 167.700,94.421 167.300 C 94.848 166.904,109.289 166.800,163.837 166.800 C 226.872 166.800,232.735 166.745,232.962 166.154 C 233.410 164.986,230.723 160.400,229.591 160.400 C 229.367 160.400,228.975 159.945,228.722 159.389 C 228.388 158.655,228.172 158.518,227.937 158.889 C 227.683 159.288,227.611 159.291,227.606 158.900 C 227.603 158.625,227.319 158.400,226.976 158.400 C 226.584 158.400,226.464 158.215,226.653 157.900 C 226.841 157.587,226.663 157.620,226.177 157.987 C 225.750 158.310,225.526 158.423,225.681 158.239 C 226.127 157.709,224.957 156.800,223.829 156.800 C 223.263 156.800,222.800 156.622,222.800 156.405 C 222.800 155.842,105.020 155.936,103.400 156.501 " stroke="none" fill="#3cb4d4" fill-rule="evenodd"></path></g></svg>