<svg version="1.1" id="Capa_1" xmlns="http://www.w3.org/2000/svg"
	 width="1em"
	 height="1em"
	 fill="currentColor"
	 viewBox="0 0 1080 1080" >
<g>
	<path class="st0" d="M540.28,977.98c-241.42,0-437.82-196.4-437.82-437.82s196.4-437.83,437.82-437.83S978.1,298.74,978.1,540.16
		S781.7,977.98,540.28,977.98z M540.28,166.28c-206.15,0-373.86,167.72-373.86,373.87s167.71,373.86,373.86,373.86
		s373.86-167.71,373.86-373.86S746.44,166.28,540.28,166.28z"/>
</g>
<path class="st0" d="M379.47,325.01c18.35-0.23,32.32,8.54,44.76,21.06c32.13,32.36,64.86,64.13,96.52,96.95
	c13.59,14.09,23.41,18.19,38.93,1.01c28.7-31.78,59.96-61.27,90.02-91.83c15.48-15.73,32.36-29.31,55.99-26.43
	c22.04,2.68,37.99,14.69,45.66,36.33c8.45,23.84,1.74,44.01-15.4,61.2c-30.94,31.01-61.22,62.79-93.68,92.15
	c-19.64,17.77-22.11,29.84-0.89,48.74c31.99,28.5,61.34,60,91.39,90.65c27.08,27.63,29.56,59.9,7.17,83.13
	c-23.74,24.64-57.04,22.78-85.42-5.32c-33.66-33.33-67.61-66.42-100.07-100.9c-11.02-11.7-17.25-11.04-27.66-0.39
	c-34.99,35.81-70.47,71.16-106.29,106.13c-15.66,15.29-34.62,22.54-56.42,14.45c-20.89-7.75-33.73-23.21-37.77-45.13
	c-4.25-23.09,9.13-39.51,23.55-54.34c28.02-28.82,56.66-57.06,85.69-84.88c26.42-25.32,26.5-30.24,0.71-55.13
	c-30.86-29.77-61.45-59.86-91.33-90.61c-16.51-16.99-25.11-37.27-14.66-61.12C339.6,339.4,355.53,326.54,379.47,325.01z"/>
</svg>
