<svg version="1.0" xmlns="http://www.w3.org/2000/svg"
    width="1em"
    height="1em"
    fill="currentColor" viewBox="0 0 1080.000000 1080.000000"
 preserveAspectRatio="xMidYMid meet">

<g transform="translate(0.000000,1080.000000) scale(0.100000,-0.100000)"
 stroke="none">
<path d="M8804 8882 c-21 -16 -372 -364 -778 -773 -407 -409 -751 -752 -765
-762 -47 -32 -92 -38 -152 -22 -244 68 -399 55 -571 -46 -165 -97 -307 -281
-353 -460 -26 -97 -17 -269 19 -374 66 -196 185 -339 346 -419 128 -63 211
-79 370 -73 101 4 140 10 203 32 210 73 385 261 443 475 23 87 23 259 0 365
-19 86 -16 127 14 185 10 19 356 372 769 783 414 412 761 763 771 780 12 20
20 50 20 79 0 38 -7 55 -36 95 -51 67 -114 132 -146 149 -46 24 -110 18 -154
-14z m-1796 -1994 c83 -39 132 -130 132 -242 -1 -98 -45 -177 -122 -217 -66
-34 -123 -41 -190 -24 -125 32 -208 126 -208 237 0 140 77 238 215 272 36 8
128 -6 173 -26z"/>
<path d="M5389 8296 c-25 -6 -69 -25 -97 -41 -66 -38 -3590 -3554 -3615 -3608
-21 -44 -21 -83 1 -125 21 -38 3021 -3046 3066 -3073 47 -29 105 -25 152 10
21 16 827 818 1790 1782 1552 1556 1754 1761 1784 1818 65 125 62 80 71 1066
5 495 8 1063 7 1262 l-3 362 -120 -90 c-202 -152 -269 -229 -301 -344 -15 -53
-18 -157 -25 -850 -4 -434 -5 -835 -2 -890 7 -126 -9 -234 -45 -303 -21 -41
-357 -382 -1606 -1633 -868 -869 -1590 -1585 -1603 -1590 -14 -5 -36 -6 -50
-3 -34 9 -2508 2483 -2517 2518 -3 13 -1 37 4 51 6 15 722 739 1593 1609 1256
1256 1592 1586 1629 1604 27 12 81 27 120 33 45 6 402 12 936 15 960 4 930 2
1069 73 127 64 230 159 341 315 l33 46 -1283 -1 c-982 0 -1294 -3 -1329 -13z"/>
<path d="M4532 5685 c-6 -14 -29 -44 -50 -67 -57 -63 -75 -103 -70 -157 3 -32
52 -147 165 -386 88 -187 271 -582 408 -877 l249 -536 30 15 c44 23 125 103
146 143 53 107 39 161 -130 510 -136 281 -422 892 -526 1125 -87 194 -95 208
-139 232 -52 29 -69 29 -83 -2z"/>
<path d="M5408 5296 c-117 -49 -215 -149 -258 -264 -33 -86 -25 -194 20 -285
62 -127 209 -259 352 -319 42 -17 74 -22 153 -22 93 -1 105 1 168 33 85 41
171 125 212 206 27 55 30 69 30 160 0 94 -2 104 -35 170 -53 107 -187 238
-304 296 -83 41 -94 44 -185 47 -83 2 -104 0 -153 -22z m170 -348 c66 -44 184
-166 180 -185 -2 -9 -11 -21 -21 -27 -27 -17 -119 37 -204 121 -70 68 -88 104
-66 127 13 13 62 -3 111 -36z"/>
<path d="M4086 4980 c-157 -40 -282 -181 -305 -346 -20 -140 27 -253 158 -385
96 -95 202 -157 308 -180 168 -35 351 69 440 249 35 70 38 83 38 162 0 81 -2
91 -42 172 -68 136 -192 248 -343 308 -63 25 -192 35 -254 20z m130 -366 c97
-58 184 -155 170 -189 -8 -21 -55 -19 -93 5 -59 36 -185 143 -193 164 -10 29
6 56 33 56 13 0 50 -16 83 -36z"/>
</g>
</svg>
