<?xml version="1.0" standalone="no"?>
<svg version="1.0" xmlns="http://www.w3.org/2000/svg"
 width="1em"
 height="1em"
 fill="currentColor"  viewBox="0 0 512.000000 512.000000"
 preserveAspectRatio="xMidYMid meet">

<g transform="translate(0.000000,512.000000) scale(0.100000,-0.100000)"
 stroke="none">
<path d="M2196 5104 c-151 -37 -279 -159 -326 -313 -16 -51 -20 -92 -20 -210
l0 -147 -590 -634 -590 -635 0 -1582 0 -1583 945 0 945 0 0 353 0 352 318 317
317 317 445 3 c440 3 446 3 503 27 132 52 237 164 280 296 l22 70 0 1500 0
1500 -24 68 c-44 128 -148 236 -280 289 l-56 23 -915 2 c-767 1 -925 -1 -974
-13z m1244 -1874 l0 -1591 -593 3 -594 3 -37 29 c-61 46 -66 68 -66 308 l0
212 284 286 c229 231 290 298 321 353 167 302 125 655 -108 904 -74 78 -115
106 -193 129 -80 23 -168 15 -245 -23 l-59 -30 0 438 c0 286 4 447 11 466 14
37 47 73 84 89 24 10 149 13 613 14 l582 0 0 -1590z m603 1576 c47 -20 84 -65
96 -116 13 -57 15 -2858 1 -2914 -10 -45 -34 -81 -74 -110 -24 -19 -44 -21
-177 -24 l-149 -3 0 1590 0 1591 135 0 c93 0 146 -4 168 -14z m-2403 -1501
l-210 -210 105 -105 105 -104 348 347 c259 258 354 347 372 347 14 0 38 -16
62 -41 139 -146 172 -347 86 -529 -27 -57 -67 -101 -344 -380 l-314 -316 0
-285 c0 -310 6 -357 57 -451 35 -64 137 -159 205 -191 87 -40 143 -47 406 -47
l247 0 -253 -253 -252 -252 0 -268 0 -267 -645 0 -645 0 0 1374 0 1373 438
470 437 471 3 -236 2 -236 -210 -211z"/>
</g>
</svg>
