<?xml version="1.0" encoding="utf-8"?>
<!-- Generator: Adobe Illustrator 25.3.0, SVG Export Plug-In . SVG Version: 6.00 Build 0)  -->
<svg version="1.1" id="icono_tiempo" xmlns="http://www.w3.org/2000/svg" xmlns:xlink="http://www.w3.org/1999/xlink" x="0px" y="0px" viewBox="0 0 1080 1080" style="enable-background:new 0 0 1080 1080;"
width="1em"
height="1em"
fill="currentColor" 
xml:space="preserve">
	<g>
		<polygon class="st0" points="664.11,791.74 731.91,703.1 594.61,598.07 594.61,330.84 483.01,330.84 483.01,652.41 483.63,652.41 
		483.01,653.21 	" />
		<path class="st0" d="M978.79,581.3c0-223.46-167.91-408.42-384.18-435.39v-86h-111.6v86.3c-215.12,28.02-381.8,212.45-381.8,435.09
		c0,241.95,196.84,438.79,438.79,438.79S978.79,823.25,978.79,581.3z M189.49,581.3c0-193.27,157.24-350.51,350.51-350.51
		S890.51,388.03,890.51,581.3S733.27,931.81,540,931.81S189.49,774.57,189.49,581.3z" />
	</g>
</svg>