<svg version="1.0" xmlns="http://www.w3.org/2000/svg"
    width="1em"
    height="1em"
    fill="currentColor" viewBox="0 0 1080.000000 1080.000000"
 preserveAspectRatio="xMidYMid meet">

<g transform="translate(0.000000,1080.000000) scale(0.100000,-0.100000)" stroke="none">
<path d="M2780 6742 c0 -1973 0 -1959 45 -2202 144 -763 595 -1440 1248 -1871
968 -640 2227 -636 3191 12 620 416 1066 1074 1216 1794 57 278 53 123 57
2213 l4 1922 -2881 0 -2880 0 0 -1868z m5157 -319 c-4 -1728 0 -1611 -63
-1877 -199 -834 -859 -1490 -1699 -1689 -323 -77 -707 -77 -1030 0 -230 54
-490 161 -684 282 -494 306 -863 807 -1006 1365 -74 288 -69 163 -72 1919 l-4
1577 2281 0 2281 0 -4 -1577z"/>
<path d="M6130 6155 c-487 -487 -889 -885 -894 -885 -4 0 -133 127 -286 283
l-278 282 -268 -265 c-148 -146 -270 -269 -271 -275 -1 -5 245 -260 547 -565
l549 -555 1165 1165 1166 1165 -267 267 c-148 148 -270 268 -273 268 -3 0
-403 -398 -890 -885z"/>
</g>
</svg>
