<?xml version="1.0" standalone="no"?>
<svg version="1.0" xmlns="http://www.w3.org/2000/svg"
width="1em"
height="1em"
fill="currentColor" 
viewBox="0 0 512.000000 512.000000"
 preserveAspectRatio="xMidYMid meet">

<g transform="translate(0.000000,512.000000) scale(0.100000,-0.100000)"
fill="#000000" stroke="none">
<path d="M3568 5079 c-97 -12 -240 -48 -343 -88 -353 -136 -663 -454 -790
-809 -134 -375 -107 -773 76 -1121 157 -299 437 -545 747 -656 645 -230 1340
26 1681 620 237 414 237 946 0 1360 -281 490 -811 758 -1371 694z m354 -266
l3 -137 76 -12 c96 -15 177 -38 258 -75 36 -16 67 -31 69 -34 3 -3 -96 -363
-103 -373 -1 -1 -38 13 -81 32 -115 50 -161 64 -259 77 -102 13 -173 6 -233
-23 -49 -23 -72 -60 -72 -117 0 -74 64 -122 293 -221 224 -96 300 -142 389
-237 89 -97 128 -205 128 -362 0 -156 -48 -270 -159 -381 -82 -82 -157 -127
-265 -160 l-66 -21 0 -155 0 -154 -172 2 -173 3 -3 141 -3 142 -57 7 c-100 12
-214 45 -310 90 -51 24 -95 50 -98 58 -4 12 91 365 101 376 2 2 44 -17 93 -42
210 -109 455 -137 564 -64 47 32 78 83 78 129 0 99 -70 157 -302 249 -365 145
-509 303 -509 561 -1 156 45 265 156 374 74 74 152 119 255 150 l50 15 0 149
0 150 175 0 174 0 3 -137z"/>
<path d="M1723 3914 c-309 -211 -564 -384 -567 -384 -3 0 -6 77 -6 170 l0 170
-280 0 -280 0 -2 -367 -3 -367 -290 -199 c-160 -110 -289 -203 -287 -209 3
-12 219 -328 237 -347 11 -11 30 -1 116 59 l104 71 3 -1240 2 -1241 1800 0
1800 0 0 1061 0 1062 -37 -7 c-156 -28 -221 -36 -310 -37 l-103 -2 0 -828 0
-829 -360 0 -360 0 0 840 0 840 -620 0 -620 0 0 -840 0 -840 -375 0 -375 0 2
1182 3 1182 620 426 620 427 7 88 c14 165 48 307 109 454 17 40 27 77 22 82
-4 4 -261 -165 -570 -377z"/>
</g>
</svg>
