<svg version="1.0" xmlns="http://www.w3.org/2000/svg"
 width="1em" height="1em" fill="currentColor" viewBox="0 0 512.000000 512.000000"
 preserveAspectRatio="xMidYMid meet">
<g transform="translate(0.000000,512.000000) scale(0.100000,-0.100000)"
 stroke="none">
<path d="M1420 5081 c-93 -29 -169 -94 -209 -180 -26 -55 -26 -59 -29 -318
l-3 -263 -199 0 c-180 0 -205 -2 -257 -22 -77 -29 -152 -104 -181 -181 l-22
-58 0 -1884 c0 -1870 0 -1885 20 -1939 27 -72 88 -139 158 -173 l57 -28 1302
-3 1301 -2 59 21 c42 16 73 37 114 78 81 82 91 118 97 328 l4 172 391 3 c380
3 393 4 432 25 53 28 99 78 124 133 20 44 21 62 21 880 l0 835 -24 51 c-13 27
-43 67 -67 87 -74 64 -97 67 -511 67 l-368 0 0 650 c0 655 -3 717 -37 784 -25
48 -95 116 -148 144 -49 26 -54 27 -267 30 l-218 3 0 254 c0 231 -2 259 -20
309 -27 72 -88 139 -158 173 l-57 28 -640 2 c-352 1 -651 -2 -665 -6z m1287
-178 c19 -9 47 -34 61 -56 l27 -41 3 -523 3 -523 -726 0 -725 0 0 524 0 523
23 34 c12 18 38 44 56 56 l34 23 604 0 c542 0 609 -2 640 -17z m-1527 -948 l0
-195 -110 0 c-104 0 -112 -1 -135 -25 -35 -34 -33 -78 4 -116 l30 -29 1111 2
1112 3 19 24 c29 36 25 94 -7 120 -23 18 -41 21 -135 21 l-109 0 0 195 0 195
194 0 c184 0 195 -1 226 -22 18 -13 43 -36 54 -51 l21 -28 0 -1874 0 -1874
-21 -28 c-11 -15 -36 -38 -54 -50 l-33 -23 -1269 0 c-1415 0 -1313 -5 -1364
69 l-24 36 0 1870 c0 1848 0 1870 20 1903 41 66 63 72 278 72 l192 0 0 -195z
m3226 -1448 l24 -28 0 -810 0 -811 -29 -29 -29 -29 -371 0 -371 0 0 870 0 871
376 -3 376 -3 24 -28z"/>
<path d="M1505 4745 c-40 -39 -28 -111 22 -134 14 -7 89 -11 188 -11 156 0
165 1 189 23 15 12 29 36 32 54 5 27 1 37 -24 63 l-30 30 -177 0 c-173 0 -176
0 -200 -25z"/>
<path d="M2235 4745 c-31 -30 -33 -83 -6 -116 19 -24 22 -24 206 -24 184 0
187 0 206 24 29 36 25 94 -7 120 -25 19 -40 21 -201 21 -171 0 -174 0 -198
-25z"/>
<path d="M1501 4224 c-12 -15 -21 -39 -21 -54 0 -15 9 -39 21 -54 l20 -26 183
0 c200 0 219 5 231 59 7 33 -15 85 -40 95 -9 3 -97 6 -195 6 l-179 0 -20 -26z"/>
<path d="M2232 4227 c-30 -32 -29 -87 1 -115 22 -21 32 -22 205 -22 169 0 183
1 202 20 29 29 27 90 -3 118 -22 21 -32 22 -203 22 -176 0 -181 -1 -202 -23z"/>
<path d="M955 3408 c-50 -17 -92 -55 -114 -102 -21 -43 -22 -54 -19 -354 l3
-310 31 -38 c16 -21 43 -47 58 -58 27 -21 31 -21 1135 -21 l1107 0 36 24 c19
13 46 40 59 59 24 35 24 36 27 351 2 312 2 316 -21 356 -12 21 -42 53 -65 70
l-44 30 -1081 2 c-740 1 -1091 -2 -1112 -9z m2155 -177 c6 -12 10 -116 10
-267 0 -216 -2 -250 -17 -266 -15 -17 -61 -18 -1053 -18 -792 0 -1039 3 -1048
12 -18 18 -17 544 1 551 6 3 481 6 1054 6 1021 1 1043 1 1053 -18z"/>
<path d="M895 2015 c-15 -15 -25 -36 -25 -54 0 -83 22 -91 270 -91 l202 0 30
30 c26 27 30 36 25 68 -12 69 -22 72 -264 72 -214 0 -214 0 -238 -25z"/>
<path d="M1861 2023 c-12 -10 -24 -35 -28 -55 -5 -32 -1 -41 25 -68 l30 -30
202 0 c248 0 270 8 270 91 0 18 -10 39 -25 54 -24 25 -24 25 -238 25 -190 0
-217 -2 -236 -17z"/>
<path d="M2826 2019 c-32 -26 -36 -84 -7 -120 19 -24 22 -24 228 -27 227 -3
247 1 271 51 10 21 11 36 3 59 -20 56 -27 57 -257 58 -199 0 -213 -1 -238 -21z"/>
<path d="M913 1390 c-48 -19 -58 -95 -18 -135 24 -25 25 -25 229 -25 129 0
214 4 229 11 25 11 47 47 47 74 0 27 -22 63 -47 74 -29 13 -407 14 -440 1z"/>
<path d="M1874 1389 c-22 -11 -44 -48 -44 -74 0 -27 22 -63 47 -74 15 -7 100
-11 229 -11 204 0 205 0 229 25 31 30 33 83 6 116 -19 24 -22 24 -233 26 -135
1 -221 -2 -234 -8z"/>
<path d="M2826 1379 c-21 -16 -26 -29 -26 -64 0 -35 5 -48 26 -64 25 -20 39
-21 235 -21 204 0 208 0 235 24 21 18 28 32 28 61 0 29 -7 43 -28 61 -27 24
-31 24 -235 24 -196 0 -210 -1 -235 -21z"/>
<path d="M914 746 c-51 -23 -61 -90 -19 -131 24 -25 24 -25 238 -25 241 0 252
3 263 71 5 29 1 41 -19 65 l-25 29 -204 2 c-155 2 -210 0 -234 -11z"/>
<path d="M1883 750 c-35 -14 -56 -55 -49 -95 12 -62 25 -65 262 -65 199 0 213
1 238 21 19 15 26 30 26 55 0 48 -14 70 -51 83 -38 13 -394 14 -426 1z"/>
<path d="M2843 750 c-47 -19 -59 -101 -20 -138 22 -21 31 -22 238 -22 233 1
240 2 260 58 13 38 -4 80 -41 99 -29 15 -401 17 -437 3z"/>
<path d="M3993 2350 c-12 -5 -26 -18 -32 -29 -8 -13 -11 -225 -11 -656 l0
-636 25 -24 c30 -31 73 -32 109 -4 l26 20 0 649 0 649 -26 20 c-28 22 -55 25
-91 11z"/>
</g>
</svg>
