<svg version="1.0" xmlns="http://www.w3.org/2000/svg"
    width="1em"
    height="1em"
    fill="currentColor" viewBox="0 0 1080.000000 1080.000000"
 preserveAspectRatio="xMidYMid meet">

<g transform="translate(0.000000,1080.000000) scale(0.100000,-0.100000)" stroke="none">
<path d="M3710 7361 l0 -418 -207 -5 c-115 -3 -356 -3 -538 0 -371 6 -381 4
-525 -68 -148 -74 -228 -152 -410 -395 -149 -200 -263 -338 -505 -610 -98
-110 -212 -238 -252 -284 l-73 -83 0 -959 0 -959 323 0 323 0 47 -99 c103
-217 235 -365 400 -446 142 -69 194 -80 392 -80 195 0 249 11 380 76 152 75
273 198 367 374 51 94 91 137 144 153 29 8 463 12 1640 13 1453 1 1603 0 1631
-15 37 -19 61 -50 96 -130 75 -166 217 -316 368 -390 129 -63 189 -77 355 -83
109 -4 160 -2 225 12 258 51 433 192 562 451 65 129 104 158 212 157 28 0 249
2 493 5 l442 5 0 2098 0 2099 -2945 0 -2945 0 0 -419z m5430 -1691 l0 -1650
-269 0 c-167 0 -280 4 -298 11 -42 16 -70 47 -98 108 -68 148 -214 316 -338
390 -130 77 -330 120 -497 107 -132 -11 -216 -33 -329 -88 -88 -42 -116 -62
-185 -131 -94 -94 -147 -171 -208 -304 l-43 -93 -1345 2 -1345 3 -3 1648 -2
1647 2480 0 2480 0 0 -1650z m-5430 -405 l0 -1235 -103 0 -104 0 -27 64 c-94
221 -261 396 -456 476 -431 178 -891 4 -1104 -417 -57 -114 -106 -143 -216
-128 l-50 7 0 628 c0 346 3 636 7 646 6 17 433 537 765 931 150 179 184 214
229 237 l53 26 503 0 503 0 0 -1235z m-950 -1076 c141 -32 268 -149 310 -286
24 -79 25 -141 4 -214 -21 -70 -46 -113 -103 -172 -199 -207 -529 -151 -658
111 -25 51 -28 67 -28 162 0 93 3 111 27 163 31 66 112 156 174 192 82 48 184
65 274 44z m5018 1 c72 -17 132 -51 197 -111 133 -125 169 -300 93 -457 -27
-58 -106 -143 -162 -176 -278 -163 -624 50 -604 372 6 98 40 174 109 247 104
110 236 155 367 125z"/>
</g>
</svg>
