<?xml version="1.0" standalone="no"?>
<svg version="1.0" xmlns="http://www.w3.org/2000/svg"
 width="1em" height="1em" viewBox="0 0 512.000000 512.000000"
 fill="currentColor"
 preserveAspectRatio="xMidYMid meet">

<g transform="translate(0.000000,512.000000) scale(0.100000,-0.100000)" stroke="none">
<path d="M455 5106 c-73 -32 -164 -176 -225 -356 -88 -261 -178 -768 -221
-1255 -14 -168 -4 -222 61 -303 60 -76 142 -113 265 -120 l95 -5 0 -83 0 -84
-187 0 c-197 -1 -208 -3 -231 -47 -9 -16 -12 -373 -12 -1408 l0 -1387 29 -29
29 -29 2502 0 2502 0 29 29 29 29 0 966 0 965 -24 28 c-23 27 -29 28 -103 27
-61 -1 -102 -10 -188 -39 -154 -51 -235 -51 -395 1 -105 34 -125 37 -230 37
-107 0 -123 -2 -230 -38 -157 -52 -231 -52 -387 -1 -62 20 -127 36 -145 36
-45 0 -51 6 -77 78 -30 80 -57 102 -127 102 l-54 0 0 169 c0 162 1 170 20 176
12 4 30 16 40 28 41 43 31 66 -160 351 -98 149 -190 276 -202 283 -36 20 -65
15 -97 -14 -36 -34 -359 -518 -368 -551 -8 -33 11 -70 47 -90 l30 -17 0 -168
0 -168 -61 3 -61 3 -204 325 c-111 178 -211 330 -220 337 -10 7 -44 13 -76 13
l-58 0 0 84 0 83 95 6 c71 4 108 12 149 30 95 44 163 132 180 233 18 108 -77
821 -153 1153 -185 798 -485 845 -681 107 -86 -323 -172 -899 -174 -1166 -1
-166 7 -190 86 -267 62 -61 122 -84 234 -90 l94 -6 0 -83 0 -84 -510 0 -510 0
0 85 0 85 60 0 c130 0 218 35 288 115 75 85 84 151 57 413 -107 1055 -311
1613 -550 1508z m78 -184 c23 -25 65 -123 98 -227 93 -299 176 -765 211 -1186
12 -144 11 -153 -7 -187 -42 -75 -49 -77 -308 -80 -225 -3 -233 -2 -276 20
-30 15 -51 36 -64 61 -18 35 -19 46 -8 170 51 569 172 1160 283 1382 36 70 45
76 71 47z m1225 -52 c109 -217 226 -782 277 -1336 15 -159 14 -168 -4 -208
-14 -33 -29 -48 -63 -65 -41 -19 -60 -21 -254 -21 -115 0 -226 5 -246 10 -21
6 -50 26 -69 47 l-32 37 6 120 c11 208 57 545 113 831 68 345 176 662 222 653
9 -2 32 -32 50 -68z m1151 -2007 c44 -67 81 -125 81 -128 0 -3 -79 -5 -175 -5
-96 0 -175 2 -175 5 0 15 175 264 180 258 4 -5 44 -63 89 -130z m-874 -461
c111 -177 207 -328 214 -335 9 -9 129 -13 474 -17 l462 -5 206 -534 c147 -383
212 -539 228 -552 22 -18 54 -19 677 -19 l654 0 0 -385 0 -385 -2390 0 -2390
0 0 1280 0 1280 832 -2 831 -3 202 -323z m955 -12 l0 -170 -170 0 -170 0 0
170 0 170 170 0 170 0 0 -170z m1395 -558 c100 -32 121 -35 225 -35 106 0 123
2 223 36 59 20 109 37 112 37 3 0 5 -171 5 -380 l0 -380 -612 2 -612 3 -142
370 c-78 203 -141 371 -139 373 2 2 44 -10 93 -27 159 -53 277 -52 449 5 154
51 228 51 398 -4z"/>
<path d="M4350 5035 l0 -85 85 0 85 0 0 85 0 85 -85 0 -85 0 0 -85z"/>
<path d="M3955 4920 l-59 -60 59 -60 60 -60 60 60 60 60 -60 60 -60 60 -60
-60z"/>
<path d="M4795 4920 l-60 -60 63 -63 62 -62 62 62 63 63 -60 60 c-33 33 -62
60 -65 60 -3 0 -32 -27 -65 -60z"/>
<path d="M4352 4766 c-192 -48 -301 -264 -230 -453 29 -80 112 -162 193 -192
83 -32 197 -26 272 12 166 85 234 276 158 443 -66 148 -236 230 -393 190z
m133 -167 c77 -22 136 -115 120 -192 -10 -47 -45 -93 -88 -118 -31 -17 -50
-20 -93 -17 -90 8 -144 62 -152 151 -5 60 11 100 56 142 43 41 93 52 157 34z"/>
<path d="M3752 4438 l3 -83 85 0 85 0 3 83 3 82 -91 0 -91 0 3 -82z"/>
<path d="M4950 4435 l0 -85 85 0 85 0 0 85 0 85 -85 0 -85 0 0 -85z"/>
<path d="M3952 4077 c-29 -29 -52 -57 -52 -63 0 -13 103 -114 116 -114 13 0
114 103 114 116 0 13 -103 114 -116 114 -5 0 -33 -24 -62 -53z"/>
<path d="M4797 4072 l-57 -58 60 -59 60 -59 60 59 60 59 -57 58 c-32 32 -60
58 -63 58 -3 0 -31 -26 -63 -58z"/>
<path d="M4354 3917 c-3 -8 -4 -47 -2 -88 l3 -74 83 -3 82 -3 0 91 0 90 -80 0
c-58 0 -82 -4 -86 -13z"/>
</g>
</svg>
