<?xml version="1.0" standalone="no"?>
<svg version="1.0" xmlns="http://www.w3.org/2000/svg"
    width="1em"
    height="1em"
	 fill="currentColor" viewBox="0 0 474.000000 512.000000"
 preserveAspectRatio="xMidYMid meet">

<g transform="translate(0.000000,512.000000) scale(0.100000,-0.100000)" stroke="none">
<path d="M207 5106 c-90 -32 -162 -108 -188 -196 -6 -23 -9 -772 -7 -2225 l3
-2190 30 -54 c35 -64 99 -116 168 -136 74 -22 1630 -23 1682 -1 67 28 93 111
55 173 -40 66 3 63 -872 63 -436 0 -799 4 -806 8 -10 7 -12 446 -10 2163 l3
2154 1800 0 1800 0 5 -1022 c5 -1018 5 -1022 26 -1050 56 -75 166 -70 208 9
16 31 17 98 14 1073 l-3 1040 -30 54 c-36 65 -83 105 -153 131 -52 20 -83 20
-1870 20 -1502 -1 -1824 -3 -1855 -14z"/>
<path d="M770 4201 c-5 -11 -10 -86 -10 -173 0 -212 -14 -198 200 -198 214 0
200 -14 200 198 0 87 -5 162 -10 173 -10 18 -23 19 -190 19 -167 0 -180 -1
-190 -19z"/>
<path d="M1582 4154 c-74 -51 -65 -187 14 -220 27 -12 168 -14 779 -14 819 0
788 -2 820 60 8 16 15 50 15 76 0 39 -5 51 -34 80 l-34 34 -769 0 c-680 0
-771 -2 -791 -16z"/>
<path d="M1016 3064 l-118 -96 -47 46 c-51 50 -88 59 -127 31 -27 -18 -48 -69
-37 -88 4 -9 45 -54 90 -101 67 -69 89 -86 112 -86 22 0 66 30 184 125 86 69
161 134 167 144 16 31 12 57 -16 90 -44 53 -71 45 -208 -65z"/>
<path d="M1500 3102 c-31 -31 -46 -86 -36 -127 4 -14 19 -40 35 -58 l29 -32
770 0 c767 0 771 0 799 21 60 44 63 147 6 200 l-26 24 -774 0 -775 0 -28 -28z"/>
<path d="M3405 2299 c-335 -48 -652 -264 -826 -560 -349 -598 -92 -1374 545
-1646 551 -235 1190 -8 1472 521 168 316 179 707 29 1024 -168 355 -476 590
-862 657 -92 16 -261 18 -358 4z m424 -228 c355 -104 608 -381 682 -746 17
-83 14 -275 -5 -362 -76 -352 -340 -630 -687 -725 -72 -20 -107 -23 -249 -22
-150 0 -173 3 -253 27 -161 50 -277 117 -396 231 -125 120 -206 253 -258 423
-24 81 -27 102 -27 258 0 156 3 177 27 258 50 163 141 314 256 426 116 112
299 211 456 245 105 23 355 16 454 -13z"/>
<path d="M3541 1786 c-49 -27 -50 -38 -51 -393 0 -330 0 -332 23 -357 12 -13
130 -88 261 -165 261 -154 281 -161 334 -116 36 31 46 66 32 111 -11 31 -34
48 -231 165 l-219 130 0 285 c0 177 -4 293 -10 305 -13 23 -61 49 -92 49 -13
-1 -34 -7 -47 -14z"/>
<path d="M776 2084 c-13 -13 -16 -43 -16 -175 0 -92 4 -169 10 -180 10 -18 23
-19 190 -19 171 0 180 1 190 21 7 13 10 78 8 185 -2 133 -6 167 -18 174 -8 5
-90 10 -182 10 -138 0 -169 -3 -182 -16z"/>
<path d="M1593 2034 c-56 -28 -80 -113 -48 -174 31 -60 30 -60 367 -60 199 0
315 4 331 11 53 24 74 117 41 180 -28 55 -53 59 -371 59 -241 0 -293 -3 -320
-16z"/>
</g>
</svg>
