<svg version="1.0" xmlns="http://www.w3.org/2000/svg"
    width="1em"
	height="1em"
	fill="currentColor" viewBox="0 0 512.000000 512.000000"
 preserveAspectRatio="xMidYMid meet">

<g transform="translate(0.000000,512.000000) scale(0.100000,-0.100000)" stroke="none">
<path d="M985 4215 c-25 -24 -25 -24 -25 -240 l0 -215 -215 0 c-288 0 -265 23
-265 -265 l0 -215 -215 0 c-216 0 -216 0 -240 -25 l-25 -24 0 -1151 0 -1151
25 -24 24 -25 2031 0 2031 0 24 25 c25 24 25 24 25 240 l0 215 215 0 c216 0
216 0 240 25 25 24 25 24 25 240 l0 215 215 0 c216 0 216 0 240 25 l25 24 0
1151 0 1151 -25 24 -24 25 -2031 0 -2031 0 -24 -25z m3975 -1175 l0 -1040
-1920 0 -1920 0 0 1040 0 1040 1920 0 1920 0 0 -1040z m-4000 -295 l0 -856 25
-24 24 -25 1736 0 1735 0 0 -160 0 -160 -1360 0 -1360 0 0 -80 0 -80 1120 0
1120 0 0 -160 0 -160 -1920 0 -1920 0 0 1040 0 1040 160 0 160 0 0 -855 0
-856 25 -24 24 -25 376 0 375 0 0 80 0 80 -320 0 -320 0 0 1040 0 1040 160 0
160 0 0 -855z"/>
<path d="M1625 3895 c-16 -15 -25 -35 -25 -56 0 -122 -117 -239 -239 -239 -21
0 -41 -9 -56 -25 l-25 -24 0 -511 0 -511 25 -24 c15 -16 35 -25 56 -25 122 0
239 -117 239 -239 0 -21 9 -41 25 -56 l24 -25 1391 0 1391 0 24 25 c16 15 25
35 25 56 0 122 117 239 239 239 21 0 41 9 56 25 l25 24 0 511 0 511 -25 24
c-15 16 -35 25 -56 25 -122 0 -239 117 -239 239 0 21 -9 41 -25 56 l-24 25
-1391 0 -1391 0 -24 -25z m851 -181 c-161 -130 -275 -337 -307 -554 -42 -291
78 -603 304 -791 l58 -49 -390 0 c-306 0 -391 3 -391 13 0 28 -62 139 -101
181 -39 43 -163 116 -195 116 -12 0 -14 70 -14 410 0 321 3 410 13 410 28 0
139 62 181 101 43 39 116 163 116 195 0 12 67 14 391 14 l391 0 -56 -46z m779
12 c113 -36 198 -89 290 -181 131 -131 199 -277 212 -454 30 -434 -330 -796
-765 -767 -107 6 -228 43 -320 97 -77 46 -208 179 -255 259 -21 36 -49 101
-64 145 -22 68 -26 98 -27 205 -1 148 14 215 76 340 73 147 234 290 388 346
143 51 324 55 465 10z m1075 22 c0 -29 62 -140 101 -182 39 -43 163 -116 195
-116 12 0 14 -70 14 -410 0 -340 -2 -410 -14 -410 -32 0 -156 -73 -195 -116
-39 -42 -101 -153 -101 -181 0 -10 -85 -13 -391 -13 l-390 0 58 49 c138 114
236 271 286 456 29 107 30 316 3 419 -51 191 -150 352 -289 467 l-58 49 390 0
c306 0 391 -3 391 -12z"/>
<path d="M2960 3480 c0 -30 -4 -40 -16 -40 -108 0 -224 -125 -224 -240 0 -63
23 -114 75 -165 63 -64 100 -75 244 -75 105 0 113 -1 136 -25 16 -15 25 -36
25 -55 0 -19 -9 -40 -25 -55 -23 -24 -31 -25 -135 -25 -104 0 -112 1 -135 25
-14 13 -25 31 -25 40 0 12 -15 15 -80 15 -67 0 -80 -3 -80 -16 0 -100 124
-224 224 -224 12 0 16 -10 16 -40 l0 -40 80 0 80 0 0 40 c0 32 4 40 18 40 48
0 113 34 155 80 93 103 90 228 -8 325 -63 64 -100 75 -244 75 -105 0 -113 1
-136 25 -33 32 -33 78 0 110 23 24 31 25 135 25 104 0 112 -1 135 -25 14 -13
25 -31 25 -40 0 -12 15 -15 80 -15 67 0 80 3 80 16 0 76 -80 182 -157 208 -26
9 -55 16 -65 16 -14 0 -18 8 -18 40 l0 40 -80 0 -80 0 0 -40z"/>
<path d="M1440 1440 l0 -80 80 0 80 0 0 80 0 80 -80 0 -80 0 0 -80z"/>
</g>
</svg>
